{"glyphs":{"0":{"ha":625,"x_min":-93,"x_max":703,"o":"m 617 635 q 615 577 621 604 q 578 533 610 550 q 572 521 572 531 q 568 471 575 494 q 550 426 561 447 q 526 383 539 404 q 501 342 513 363 q 400 169 456 251 q 278 10 344 88 q 228 -32 257 -15 q 166 -56 199 -49 q 100 -60 133 -62 q 38 -43 67 -57 q -54 32 -25 -17 q -90 138 -83 81 q -90 185 -93 161 q -81 233 -87 210 q -67 281 -75 257 q -53 329 -60 306 q -33 383 -46 357 q -8 436 -19 410 q 67 599 29 518 q 140 763 104 681 q 174 838 158 800 q 206 914 189 876 q 215 926 208 921 q 226 935 221 931 q 257 1001 264 956 q 262 1020 257 1011 q 269 1040 267 1029 q 325 1054 303 1035 q 358 1096 347 1074 q 392 1133 372 1124 q 438 1143 413 1143 q 485 1147 461 1144 q 531 1149 508 1150 q 577 1142 554 1147 q 622 1121 600 1136 q 685 1046 667 1089 q 697 951 703 1003 q 678 865 692 908 q 653 778 665 822 q 646 756 650 767 q 640 735 642 746 q 639 712 638 724 q 649 688 640 700 q 649 674 651 682 q 642 657 647 665 q 629 642 636 649 q 617 635 622 636 m 421 958 q 318 736 369 847 q 217 511 267 625 q 160 373 186 443 q 122 228 135 303 q 115 172 115 200 q 111 108 114 143 q 126 122 122 118 q 133 129 131 125 q 203 235 168 182 q 274 340 238 288 q 278 334 274 338 q 288 328 282 331 q 291 342 290 336 q 294 356 292 349 q 319 404 307 379 q 346 453 331 429 q 365 485 354 471 q 388 515 376 499 q 406 558 399 535 q 424 602 414 581 q 446 643 433 624 q 478 676 458 663 q 469 681 474 679 q 460 686 465 683 q 486 700 475 693 q 488 713 486 706 q 488 732 489 719 q 479 715 482 721 q 472 703 476 710 q 482 756 478 732 q 490 804 486 781 q 494 824 490 818 q 506 864 508 843 q 507 907 504 885 q 475 949 518 958 q 451 951 464 946 q 421 958 438 956 z "},"1":{"ha":474,"x_min":-61,"x_max":660,"o":"m 244 578 q 272 617 264 589 q 268 668 281 644 q 210 619 240 640 q 138 597 181 597 q 128 596 133 597 q 121 597 124 594 q 63 619 92 608 q 4 640 33 629 q -5 646 -1 642 q -15 657 -8 650 q 11 678 -1 668 q 36 699 24 689 q 106 749 71 725 q 168 810 140 772 q 254 916 208 865 q 344 1018 300 967 q 383 1074 368 1044 q 408 1135 397 1103 q 427 1153 413 1146 q 454 1163 442 1160 q 517 1172 486 1168 q 581 1174 549 1176 q 615 1158 599 1171 q 649 1133 632 1144 q 653 1128 651 1132 q 653 1121 654 1124 q 645 1081 639 1100 q 656 1042 651 1061 q 656 1006 660 1024 q 631 976 651 989 q 608 954 618 968 q 592 925 599 940 q 499 756 546 840 q 411 585 451 672 q 333 397 368 492 q 261 206 297 301 q 213 74 236 139 q 164 -54 190 10 q 99 -124 142 -107 q 1 -121 56 -140 q -24 -113 -11 -117 q -51 -106 -37 -110 q -56 -91 -54 -99 q -61 -76 -58 -83 q -44 -62 -53 -69 q -28 -47 -35 -56 q 10 8 -8 -19 q 47 63 29 35 q 54 86 54 74 q 60 110 54 99 q 80 144 68 128 q 99 179 92 160 q 110 219 106 199 q 119 261 115 240 q 129 297 124 281 q 154 329 135 314 q 176 363 168 340 q 183 404 183 385 q 188 435 183 421 q 199 463 192 450 q 213 490 206 476 q 226 517 221 503 q 235 544 232 529 q 244 578 239 558 z "},"2":{"ha":926,"x_min":-101,"x_max":951,"o":"m 149 842 q 134 808 140 822 q 121 781 128 793 q 124 780 122 781 q 128 779 126 779 q 183 854 156 817 q 243 928 211 892 q 297 983 268 956 q 351 1038 325 1010 q 448 1108 392 1081 q 563 1158 504 1136 q 714 1193 636 1188 q 871 1174 792 1199 q 901 1152 888 1168 q 922 1116 914 1136 q 933 1074 931 1096 q 929 1032 935 1051 q 903 963 921 996 q 863 897 885 929 q 817 834 842 865 q 771 772 793 803 q 703 681 739 725 q 631 593 667 638 q 526 472 578 532 q 421 351 474 413 q 363 289 392 319 q 306 226 333 258 q 296 213 300 221 q 283 193 292 206 q 318 194 303 194 q 346 197 333 193 q 441 222 393 214 q 538 236 489 231 q 693 247 617 246 q 846 233 769 249 q 895 217 872 228 q 938 190 918 206 q 950 171 949 182 q 945 148 951 160 q 926 127 939 136 q 899 117 914 118 q 858 114 879 114 q 818 119 836 114 q 649 133 732 142 q 485 107 567 124 q 319 56 397 88 q 165 -14 240 25 q 7 -17 89 -53 q -46 2 -18 -6 q -101 21 -74 10 q -100 26 -100 24 q -99 31 -100 28 q -38 63 -68 47 q 24 90 -8 78 q 44 105 43 99 q 33 124 44 111 q -1 165 14 143 q -31 214 -15 188 q 149 322 61 261 q 320 460 238 382 q 480 638 403 539 q 628 863 557 738 q 672 965 663 924 q 669 1023 681 1006 q 626 1034 657 1040 q 550 994 594 1028 q 399 868 469 933 q 281 722 328 803 q 222 678 261 688 q 133 688 182 668 q 90 709 111 697 q 44 735 69 721 q 83 756 69 743 q 105 783 96 768 q 123 813 114 797 q 149 842 132 829 z "},"3":{"ha":625,"x_min":-117,"x_max":779,"o":"m 494 1032 q 536 1079 549 1035 q 538 1093 533 1086 q 546 1107 542 1100 q 554 1116 549 1113 q 564 1125 560 1119 q 565 1143 565 1125 q 497 1114 529 1128 q 435 1082 464 1100 q 340 1022 386 1053 q 249 958 294 990 q 135 968 185 914 q 114 985 125 978 q 92 1001 103 993 q 81 1024 76 1013 q 96 1044 85 1035 q 122 1069 108 1057 q 151 1090 136 1081 q 171 1106 161 1097 q 199 1103 181 1115 q 209 1108 200 1101 q 225 1117 218 1114 q 298 1156 261 1138 q 365 1199 335 1175 q 445 1240 403 1226 q 533 1257 488 1253 q 649 1252 594 1263 q 746 1197 704 1242 q 773 1150 767 1174 q 767 1103 779 1126 q 716 1018 743 1060 q 656 939 689 976 q 527 807 593 872 q 397 678 461 742 q 445 624 421 650 q 492 569 469 597 q 528 502 518 536 q 535 434 538 468 q 519 366 532 400 q 485 299 506 332 q 397 182 447 236 q 289 76 347 128 q 203 15 249 42 q 97 -22 157 -12 q 18 -17 56 -29 q -47 18 -19 -6 q -92 62 -71 38 q -117 122 -112 86 q -97 120 -106 121 q -79 117 -87 119 q -35 108 -57 110 q 8 117 -14 106 q 11 117 10 117 q 14 118 13 118 q 58 120 40 114 q 90 138 76 126 q 116 163 104 150 q 143 186 128 176 q 215 250 185 214 q 269 325 244 286 q 324 422 300 372 q 343 529 349 472 q 329 573 340 553 q 290 606 318 593 q 213 670 239 632 q 178 756 188 708 q 212 758 196 757 q 243 761 228 760 q 265 767 257 761 q 279 781 274 772 q 290 798 285 789 q 301 814 294 807 q 367 881 335 846 q 438 947 400 915 q 472 978 456 963 q 494 1014 488 993 q 495 1022 496 1018 q 494 1032 494 1026 z "},"4":{"ha":733,"x_min":-58,"x_max":935,"o":"m 740 1064 q 757 1051 750 1057 q 771 1039 764 1046 q 907 1044 831 1083 q 931 1024 926 1033 q 928 999 935 1014 q 891 928 910 963 q 853 858 872 894 q 752 672 803 764 q 656 485 701 581 q 604 360 626 422 q 558 235 582 297 q 518 135 539 183 q 476 38 497 86 q 451 -26 463 6 q 424 -90 439 -58 q 292 -135 385 -169 q 269 -131 281 -131 q 246 -125 257 -131 q 231 -114 238 -122 q 222 -99 225 -106 q 220 -83 219 -92 q 221 -65 221 -74 q 245 -49 232 -57 q 269 -29 258 -40 q 287 -13 279 -22 q 288 11 294 -4 q 291 26 285 18 q 301 43 297 35 q 308 56 304 50 q 318 71 313 63 q 331 65 322 71 q 363 152 346 110 q 403 236 381 194 q 422 280 415 257 q 435 326 428 303 q 452 372 442 350 q 485 414 463 394 q 449 406 467 410 q 414 400 432 403 q 378 394 394 397 q 343 386 361 390 q 239 364 290 375 q 135 344 188 353 q 90 347 115 340 q 42 367 65 354 q 1 398 19 381 q -26 432 -18 415 q -41 461 -33 447 q -58 490 -49 475 q -46 493 -51 492 q -35 493 -40 494 q 19 492 -3 482 q 58 522 40 501 q 61 524 61 524 l 61 525 q 96 530 82 524 q 120 546 110 536 q 140 567 131 556 q 160 590 149 579 q 169 598 164 594 q 179 606 175 601 q 225 655 201 631 q 268 706 249 679 q 295 748 283 725 q 319 793 307 771 q 372 872 344 833 q 447 935 399 911 q 458 941 453 938 q 467 950 464 944 q 500 1024 485 986 q 533 1099 515 1061 q 542 1113 536 1106 q 551 1126 547 1119 q 568 1156 560 1142 q 564 1190 576 1171 q 565 1202 561 1194 q 574 1215 568 1210 q 583 1215 575 1218 q 596 1211 590 1213 q 619 1234 606 1231 q 656 1225 632 1238 q 671 1223 661 1222 q 689 1224 681 1224 q 731 1213 711 1224 q 762 1187 750 1203 q 776 1151 774 1171 q 768 1113 778 1131 q 754 1088 761 1100 q 740 1064 747 1075 m 544 564 q 581 636 565 599 q 613 712 597 674 q 644 788 628 750 q 683 861 661 825 q 676 864 679 863 q 671 867 674 865 q 659 856 664 861 q 649 846 654 851 q 667 896 656 871 q 693 940 678 921 q 703 963 708 957 q 686 978 699 969 q 510 756 597 865 q 335 535 422 646 q 439 549 388 542 q 544 564 490 557 z "},"5":{"ha":744,"x_min":-128,"x_max":893,"o":"m 129 588 q 121 574 121 572 q 120 568 119 571 q 121 563 121 565 q 96 584 106 571 q 82 613 86 597 q 81 642 78 628 q 93 668 83 657 l 93 669 q 94 671 93 671 q 133 688 122 674 q 149 719 144 701 q 155 757 153 738 q 168 792 157 776 q 201 860 190 821 q 224 936 213 899 q 224 1003 235 972 q 196 1065 213 1035 q 185 1078 192 1072 q 176 1090 179 1083 q 177 1116 172 1106 q 201 1128 182 1126 q 249 1131 225 1129 q 297 1133 274 1132 q 601 1215 458 1133 q 634 1236 618 1225 q 668 1257 650 1247 q 683 1260 675 1261 q 699 1260 692 1260 q 756 1265 728 1263 q 813 1267 785 1268 q 889 1186 893 1265 q 880 1166 889 1176 q 863 1151 871 1156 q 525 1022 693 1085 q 473 1010 500 1014 q 419 1003 446 1007 q 415 934 422 967 q 397 870 408 901 q 373 808 386 839 q 351 743 360 776 q 422 739 389 740 q 527 712 482 736 q 601 649 572 688 q 644 560 631 610 q 651 460 657 511 q 600 276 640 361 q 499 114 560 190 q 244 -97 394 -17 q 136 -144 192 -126 q 18 -154 81 -161 q -42 -141 -12 -150 q -86 -99 -71 -132 q -97 -91 -89 -93 q -110 -85 -106 -89 q -118 -69 -115 -78 q -124 -54 -121 -61 q -125 -36 -128 -46 q -122 -22 -124 -29 q -115 -11 -119 -15 q -102 -6 -110 -7 q -89 -1 -94 -6 q -45 16 -68 19 q -7 -3 -22 13 q 37 -26 15 -26 q 82 -14 58 -25 q 129 7 106 -3 q 174 31 153 17 q 217 65 197 46 q 258 103 238 83 q 337 184 299 142 q 396 279 375 226 q 422 333 407 307 q 436 392 438 358 q 442 469 433 431 q 450 547 451 508 q 428 615 450 604 q 354 600 406 626 q 303 572 328 588 q 268 525 279 557 q 253 514 265 518 q 226 508 242 510 q 195 510 211 507 q 169 518 179 513 q 148 532 156 526 q 136 544 140 538 q 131 560 132 550 q 129 588 129 571 z "},"6":{"ha":722,"x_min":-139,"x_max":733,"o":"m -96 149 q -100 185 -99 167 q -99 221 -101 203 q -89 256 -97 239 q -62 290 -81 274 q -67 295 -64 292 q -78 303 -71 299 q -62 301 -71 301 q -52 328 -57 315 q -40 353 -47 340 q -5 415 -24 385 q 33 474 14 444 q 63 515 49 496 q 92 557 76 535 q 94 569 94 563 q 99 581 94 575 q 113 606 106 593 q 129 629 121 618 q 166 678 147 654 q 204 728 185 703 q 212 745 210 736 q 224 761 214 754 q 246 790 239 775 q 260 821 253 806 q 264 831 260 826 q 271 839 268 835 q 297 876 285 858 q 325 914 310 894 q 354 950 339 933 q 383 985 369 967 q 422 1037 403 1011 q 457 1090 442 1063 q 462 1119 464 1103 q 453 1150 460 1136 q 460 1199 442 1178 q 513 1222 478 1219 q 593 1235 550 1226 q 713 1199 671 1247 q 727 1152 733 1175 q 706 1107 721 1129 q 581 949 643 1028 q 458 790 519 871 q 404 711 431 750 q 350 632 378 672 q 435 574 392 603 q 514 514 478 546 q 582 439 551 478 q 640 360 613 400 q 661 307 658 333 q 657 256 664 281 q 635 206 650 231 q 601 158 619 182 q 523 69 565 111 q 426 -8 481 28 q 311 -60 375 -43 q 183 -74 247 -76 q 58 -47 118 -71 q -44 26 -1 -22 q -135 135 -93 79 q -135 148 -139 140 q -131 163 -132 156 q -115 156 -124 160 q -96 149 -107 153 m 104 151 q 110 151 107 151 q 117 150 114 150 q 115 135 117 143 q 117 119 114 126 q 142 74 122 83 q 206 81 161 64 q 308 140 268 103 q 376 222 349 176 q 393 254 385 238 q 401 289 401 271 q 397 341 400 315 q 383 390 393 367 q 353 435 372 414 q 301 475 333 457 q 263 488 274 490 q 240 469 251 486 q 210 413 225 442 q 181 356 194 385 q 143 253 161 304 q 104 151 125 203 z "},"7":{"ha":753,"x_min":-14,"x_max":925,"o":"m 606 1004 q 556 980 581 992 q 507 954 531 968 q 387 894 449 919 q 258 857 325 869 q 171 848 215 850 q 86 867 126 846 q 47 890 67 878 q 15 921 26 903 q 2 940 8 929 q -11 960 -4 950 q -12 969 -14 963 q -8 978 -11 976 q 19 986 4 986 q 104 976 63 982 q 186 985 146 969 q 326 1040 257 1013 q 464 1097 394 1068 q 518 1123 492 1108 q 569 1153 544 1138 q 603 1177 588 1164 q 636 1203 619 1190 q 664 1220 649 1213 q 686 1240 679 1228 q 704 1260 694 1256 q 729 1265 714 1264 q 787 1269 758 1265 q 843 1271 815 1274 q 878 1257 861 1268 q 911 1235 896 1246 q 922 1199 925 1224 q 906 1156 919 1175 q 814 1028 860 1092 q 725 899 768 965 q 647 767 683 833 q 571 633 610 700 q 569 628 569 631 q 567 618 568 625 q 587 615 578 617 q 607 613 596 613 q 660 588 639 610 q 678 533 681 565 q 660 500 676 507 q 626 489 644 493 q 507 468 569 476 q 460 431 474 463 q 350 197 406 313 q 240 -37 294 81 q 223 -87 229 -61 q 211 -137 217 -112 q 196 -162 207 -156 q 171 -167 185 -169 q 140 -165 156 -165 q 108 -160 124 -164 q 81 -145 93 -156 q 63 -114 69 -135 q 57 -112 63 -112 q 49 -111 51 -112 q 31 -99 40 -110 q 16 -74 22 -87 q 8 -49 10 -61 q 10 -29 6 -36 q 26 -16 15 -21 q 44 -6 36 -11 q 60 -11 51 -17 q 71 -7 69 -6 q 92 -15 83 -19 q 104 0 100 -11 q 110 24 108 11 q 113 47 111 36 q 111 60 114 50 q 135 64 124 63 q 150 67 146 65 q 222 240 186 154 q 297 417 258 325 q 160 414 222 401 q 51 489 97 426 q 69 511 54 507 q 103 519 83 515 q 238 552 171 535 q 372 589 306 569 q 397 607 386 593 q 419 633 407 621 l 400 633 q 413 655 407 644 q 425 676 418 665 q 436 687 429 683 q 447 697 443 690 l 493 781 q 499 790 496 785 q 500 797 503 794 q 492 824 492 813 q 500 843 493 835 q 517 858 507 851 q 536 871 528 864 q 544 882 542 875 q 549 895 546 889 q 556 906 551 901 q 572 908 561 910 q 571 926 571 918 q 569 942 571 935 q 592 965 581 953 q 615 990 604 978 q 610 997 613 993 q 606 1004 608 1001 z "},"8":{"ha":642,"x_min":-69,"x_max":871,"o":"m -54 214 q -40 219 -47 217 q -31 224 -33 221 q -22 259 -25 242 q -12 300 -18 276 q 36 344 18 315 q 72 406 54 374 q 81 420 75 413 q 93 435 88 428 q 103 442 96 439 q 116 447 111 444 q 119 455 121 450 q 106 468 118 460 q 108 472 107 469 q 110 475 110 474 q 113 478 111 476 q 133 500 129 489 q 135 523 138 511 q 126 546 133 535 q 114 569 119 557 q 102 598 107 583 q 97 629 97 613 q 104 621 101 625 q 111 613 107 617 q 118 614 113 614 q 112 644 115 629 q 111 675 108 660 q 156 849 131 763 q 167 856 157 854 q 185 864 178 858 q 260 939 224 900 q 343 1010 297 978 q 420 1062 381 1036 q 502 1109 460 1088 q 592 1144 544 1131 q 694 1163 640 1158 q 767 1164 731 1165 q 836 1140 803 1163 q 871 1090 871 1117 q 856 1038 871 1063 q 745 870 801 953 q 631 704 689 788 q 539 572 585 638 q 446 439 493 506 q 435 408 435 422 q 454 378 436 393 q 560 222 529 310 q 549 147 572 181 q 474 72 518 103 q 375 13 429 40 q 278 -19 328 -11 q 175 -24 229 -26 q 82 -1 122 -21 q 8 50 42 18 q -50 126 -31 86 q -54 214 -69 165 m 633 992 q 575 1003 599 1008 q 531 985 551 999 q 421 905 472 946 q 333 808 369 864 q 285 705 301 757 q 286 594 269 653 q 300 578 289 586 q 322 567 311 569 q 338 572 328 564 q 356 586 349 579 q 364 601 363 593 q 371 618 365 610 q 383 642 378 629 q 394 667 388 656 q 415 688 401 679 q 451 697 428 696 q 440 707 440 706 q 453 719 447 714 q 463 731 458 725 q 477 758 471 744 q 493 782 483 771 q 530 824 513 803 q 547 872 547 844 q 552 885 547 879 q 561 896 557 892 q 597 944 579 919 q 633 992 615 968 m 360 203 q 355 206 357 204 q 350 208 353 207 q 342 203 346 206 q 333 197 339 200 l 322 197 q 345 250 343 226 q 336 294 347 274 q 303 332 325 314 q 257 367 282 350 q 206 313 231 340 q 164 257 182 286 q 136 195 146 228 q 131 126 126 163 q 149 91 132 100 q 196 93 167 82 q 248 111 222 101 q 296 135 274 121 q 329 167 315 149 q 360 203 343 186 z "},"9":{"ha":586,"x_min":-47,"x_max":822,"o":"m -47 90 q -17 84 -29 88 q 3 82 -6 81 q 20 89 11 85 q 36 99 29 93 q 86 140 61 119 q 138 185 111 161 q 133 207 132 196 q 146 233 133 218 q 179 279 165 256 q 208 326 193 303 q 253 396 232 361 q 294 467 274 431 q 315 509 307 486 q 336 560 324 532 q 283 553 306 557 q 242 553 261 550 q 191 559 217 556 q 143 572 165 563 q 76 612 106 589 q 28 664 47 635 q 28 676 25 668 q 33 683 31 683 q 72 688 58 682 q 93 704 86 694 q 103 725 100 714 q 111 747 107 736 q 265 960 150 868 q 349 1024 306 992 q 440 1082 392 1057 q 545 1126 490 1106 q 667 1150 600 1147 q 734 1142 703 1151 q 785 1115 765 1132 q 814 1074 806 1097 q 813 1025 822 1050 q 796 995 806 1010 q 776 965 786 981 q 704 856 740 910 q 633 746 668 801 q 559 633 594 689 q 488 521 524 578 q 431 428 460 474 q 375 335 401 383 q 320 228 346 282 q 265 121 294 174 q 225 51 246 85 q 183 -15 204 18 q 164 -27 178 -22 q 133 -34 150 -32 q 98 -34 115 -36 q 69 -26 81 -32 q 42 -8 54 -18 q 14 10 29 1 q 3 15 10 14 q -6 19 -4 17 q -26 53 -17 36 q -47 90 -35 69 m 221 649 q 263 668 244 660 q 299 683 281 676 q 318 692 308 688 q 333 703 328 697 q 338 719 339 710 q 324 740 336 728 q 365 746 347 744 q 401 749 383 747 q 436 755 422 750 q 460 775 450 760 q 470 807 468 790 q 488 840 472 824 q 528 897 513 867 q 558 958 543 928 q 560 976 561 967 q 558 993 558 985 q 535 991 547 992 q 514 986 522 990 q 356 876 422 939 q 243 739 289 814 q 229 696 232 719 q 221 649 226 672 z "},"\u0000":{"ha":0,"x_min":0,"x_max":0,"o":""},"\r":{"ha":406,"x_min":0,"x_max":0,"o":""}," ":{"ha":406,"x_min":0,"x_max":0,"o":""},"~":{"ha":807,"x_min":-89,"x_max":729,"o":"m 226 465 q 160 416 193 440 q 97 364 128 392 q 41 338 71 343 q -19 347 11 332 q -48 360 -33 354 q -74 376 -62 365 q -85 397 -81 383 q -89 421 -89 410 q -78 430 -89 425 q -60 440 -67 435 q -53 441 -57 442 q -47 443 -50 440 q 27 492 -10 467 q 100 542 64 518 q 222 584 160 581 q 349 564 283 588 q 425 428 440 531 q 492 458 465 435 q 547 504 519 481 q 567 528 558 515 q 585 553 575 540 q 674 568 624 613 q 715 525 701 544 q 728 487 728 506 q 718 448 729 468 q 686 404 707 428 q 575 317 638 349 q 435 292 513 285 q 328 335 369 297 q 254 422 286 372 q 247 437 250 429 q 239 451 243 444 q 235 456 238 453 q 226 465 233 458 z "},"¤":{"ha":772,"x_min":-110,"x_max":769,"o":"m -101 50 q -110 88 -106 72 q -83 126 -96 107 q -57 165 -71 146 q -26 209 -42 188 q 7 251 -10 231 q 42 293 24 272 q 79 338 60 314 q 72 357 76 344 q 64 385 67 369 q 85 506 47 449 q 108 546 97 525 q 135 583 118 567 q 156 624 158 606 q 136 664 153 643 q 86 727 111 696 q 18 774 61 758 q 6 790 11 776 q -7 818 1 803 q 66 826 32 822 q 133 833 100 831 q 156 828 144 833 q 178 815 168 822 q 216 782 197 800 q 254 744 235 764 q 272 733 264 735 q 293 739 281 732 q 393 766 346 771 q 488 719 440 761 q 494 717 493 717 q 548 788 522 753 q 600 860 574 824 q 615 877 607 868 q 631 894 622 886 q 717 914 671 942 q 759 872 749 896 q 754 819 769 849 q 723 767 740 792 q 689 718 706 743 q 672 691 681 704 q 657 663 663 678 q 626 618 646 635 q 578 592 607 601 q 599 520 597 554 q 590 456 600 486 q 560 396 579 425 q 518 339 540 367 q 574 292 554 321 q 611 232 593 264 q 620 192 624 210 q 603 161 617 174 q 567 137 588 147 q 524 143 547 126 q 472 181 497 161 q 426 224 447 200 q 397 243 411 242 q 367 238 383 244 q 289 224 328 222 q 210 228 250 226 q 174 214 192 229 q 140 183 156 199 q 106 141 121 164 q 72 96 90 118 q 54 76 64 85 q 36 57 44 67 q 13 40 25 44 q -11 36 1 36 q -37 39 -24 36 q -62 43 -50 42 q -83 47 -74 44 q -101 50 -93 49 m 374 590 q 340 558 356 574 q 310 528 325 543 q 243 385 253 465 q 244 367 242 378 q 253 353 247 356 q 271 350 260 350 q 289 356 282 350 q 334 390 313 372 q 375 428 356 407 q 406 503 407 464 q 374 590 406 542 z "},"`":{"ha":519,"x_min":176,"x_max":463,"o":"m 176 953 q 184 960 179 956 q 196 965 189 964 q 235 969 215 967 q 274 969 256 971 q 311 959 293 967 q 346 933 329 951 q 399 878 371 904 q 451 822 426 851 q 459 799 458 814 q 463 769 460 783 q 430 761 447 767 q 400 761 413 756 q 347 790 372 774 q 299 825 321 806 q 238 885 267 853 q 176 953 208 918 z "},"?":{"ha":726,"x_min":-65,"x_max":1015,"o":"m 344 657 q 355 667 350 661 q 365 675 360 674 q 451 708 411 686 q 526 757 490 729 q 614 817 569 789 q 706 874 658 846 q 765 917 738 893 q 811 975 792 942 q 822 1013 826 999 q 792 1036 818 1026 q 586 1022 686 1071 q 443 929 507 985 q 335 794 379 874 q 314 756 324 775 q 289 722 304 738 q 260 706 278 711 q 228 699 243 700 q 214 709 221 697 q 199 728 207 721 q 170 758 185 743 q 144 790 156 774 q 128 833 125 814 q 150 875 131 851 q 191 929 172 901 q 232 985 210 957 q 353 1095 286 1050 q 500 1171 421 1140 q 590 1190 546 1188 q 678 1184 635 1192 q 763 1162 721 1176 q 846 1131 804 1147 q 931 1075 896 1110 q 993 997 965 1040 q 1013 926 1015 961 q 993 856 1011 892 q 903 748 957 789 q 785 675 849 707 q 640 607 713 640 q 497 536 568 574 q 394 481 446 510 q 303 411 343 451 q 258 332 272 379 q 225 240 243 285 q 223 221 222 232 q 222 199 224 210 q 199 162 219 176 q 157 154 178 147 q 112 179 135 161 q 69 221 89 197 q 37 271 50 244 q 21 321 24 297 q 19 336 19 328 q 24 349 19 344 q 49 385 40 365 q 64 427 57 406 q 78 469 71 449 q 97 508 85 490 q 117 521 103 517 q 142 529 128 526 q 165 540 157 532 q 201 570 182 557 q 242 594 221 583 q 283 617 263 606 q 322 642 303 628 q 335 645 326 644 q 350 647 343 646 q 347 652 349 650 q 344 657 346 654 m 33 103 q 97 97 65 100 q 158 88 128 94 q 192 74 175 85 q 215 49 210 63 q 212 10 222 28 q 178 -18 201 -8 q 128 -54 149 -32 q 82 -83 108 -78 q 31 -81 56 -87 q -17 -60 6 -75 q -50 -26 -39 -44 q -53 -11 -54 -19 q -53 6 -53 -3 q -51 19 -53 13 q -51 33 -50 26 q -60 56 -54 43 q -62 71 -65 68 q -33 87 -49 81 q -3 99 -18 93 q 15 99 6 101 q 32 97 24 97 q 33 103 33 99 z "},"_":{"ha":642,"x_min":-171,"x_max":517,"o":"m -171 181 q 95 193 -36 188 q 360 204 226 199 q 406 203 383 206 q 451 196 428 200 q 497 173 479 190 q 517 117 515 156 q 476 101 497 110 q 433 90 456 92 q 211 78 321 83 q -11 67 101 72 q -54 72 -35 65 q -92 90 -74 79 q -126 115 -110 101 q -158 140 -142 128 q -166 154 -165 143 q -171 181 -167 165 z "},"]":{"ha":576,"x_min":-236,"x_max":886,"o":"m 306 -118 q 194 -106 250 -112 q 82 -96 139 -100 q 38 -100 60 -96 q -8 -106 15 -104 q -112 -98 -62 -111 q -203 -49 -162 -85 q -227 -14 -218 -33 q -228 29 -236 6 q -201 50 -218 49 q -165 53 -185 51 q -22 53 -93 53 q 121 56 49 53 q 137 61 128 56 q 149 72 146 67 q 198 181 168 114 q 264 328 228 249 q 338 495 300 408 q 413 662 376 582 q 478 808 449 742 q 528 914 508 874 q 574 1014 551 964 q 618 1113 596 1064 q 621 1127 621 1119 q 624 1147 621 1135 q 585 1135 603 1140 q 549 1126 567 1129 q 476 1117 513 1122 q 403 1115 439 1113 q 360 1120 375 1117 q 334 1134 344 1124 q 315 1164 324 1144 q 290 1217 306 1183 q 326 1233 308 1224 q 363 1247 343 1242 q 499 1285 431 1267 q 635 1322 567 1303 q 706 1356 675 1333 q 737 1365 722 1367 q 765 1356 751 1364 q 810 1329 788 1342 q 847 1299 832 1317 q 869 1260 863 1282 q 886 1214 875 1238 q 855 1207 865 1214 q 838 1188 844 1200 q 828 1163 832 1176 q 819 1136 825 1149 q 798 1087 808 1111 q 776 1038 788 1063 q 765 1007 769 1022 q 753 976 760 992 q 712 901 733 938 q 672 824 690 864 q 649 776 667 811 q 609 692 632 740 q 560 591 586 644 q 512 490 535 538 q 472 406 489 442 q 450 357 456 369 q 433 325 443 340 q 413 293 422 310 q 387 249 401 271 q 372 204 372 226 q 366 164 372 189 q 351 112 360 139 q 331 60 342 85 q 315 24 321 36 q 302 -6 307 6 q 297 -33 297 -18 q 298 -67 296 -47 q 306 -118 300 -86 z "},"\\":{"ha":572,"x_min":19,"x_max":496,"o":"m 19 1154 q 93 1155 58 1154 q 163 1153 128 1156 q 209 1131 192 1150 q 233 1086 226 1111 q 251 1013 244 1050 q 264 940 258 976 q 280 798 275 869 q 304 657 285 726 q 335 528 321 596 q 369 392 350 461 q 414 256 388 324 q 482 128 440 188 q 492 106 489 119 q 493 82 496 93 q 479 59 490 71 q 460 47 468 47 q 433 40 449 47 q 403 26 418 33 q 374 14 388 18 q 354 17 361 10 q 302 75 326 40 q 259 148 278 110 q 226 226 240 186 q 204 300 213 265 q 174 441 189 371 q 147 582 160 511 q 119 747 132 665 q 93 911 107 828 q 81 989 86 950 q 65 1065 75 1028 q 46 1108 58 1088 q 19 1154 33 1129 z "},"[":{"ha":544,"x_min":-142,"x_max":981,"o":"m 439 1369 q 550 1358 494 1364 q 663 1347 606 1351 q 707 1351 685 1347 q 753 1357 729 1356 q 857 1349 807 1363 q 947 1300 907 1336 q 972 1265 963 1285 q 972 1222 981 1246 q 946 1201 963 1203 q 910 1199 929 1200 q 767 1199 838 1199 q 624 1196 696 1199 q 608 1190 617 1196 q 596 1179 599 1185 q 547 1070 576 1138 q 481 923 517 1003 q 406 756 444 843 q 332 590 368 669 q 266 444 296 510 q 217 338 236 378 q 171 238 193 288 q 126 139 149 188 q 124 124 124 132 q 121 104 124 117 q 160 117 142 111 q 196 125 178 122 q 269 134 232 129 q 342 136 306 139 q 384 131 368 133 q 410 117 400 128 q 430 88 421 107 q 454 35 439 68 q 419 19 436 28 q 382 4 401 10 q 246 -33 314 -15 q 110 -71 178 -51 q 39 -104 69 -82 q 8 -114 22 -115 q -21 -104 -7 -112 q -65 -78 -43 -90 q -103 -47 -87 -65 q -124 -8 -118 -31 q -142 38 -131 14 q -110 44 -121 38 q -94 63 -100 51 q -84 89 -87 75 q -75 115 -81 103 q -53 165 -64 140 q -32 214 -43 189 q -20 244 -25 229 q -8 275 -15 260 q 33 351 11 314 q 72 428 54 388 q 95 476 78 440 q 135 559 113 511 q 184 660 158 607 q 233 762 210 714 q 272 846 256 810 q 294 894 289 882 q 312 926 301 911 q 332 958 322 942 q 358 1003 343 981 q 372 1047 372 1025 q 378 1088 372 1063 q 394 1140 385 1113 q 413 1191 403 1167 q 429 1228 422 1215 q 442 1258 438 1246 q 447 1284 446 1269 q 447 1318 449 1299 q 439 1369 444 1338 z "},"Z":{"ha":744,"x_min":-154,"x_max":900,"o":"m 286 269 q 376 265 331 267 q 467 257 422 263 q 503 243 485 256 q 533 214 521 231 q 551 179 546 197 q 551 147 557 161 q 517 115 540 118 q 474 114 494 111 q 369 108 418 121 q 274 69 319 94 q 170 10 221 42 q 68 -54 119 -22 q 47 -74 58 -60 q -1 -99 28 -97 q -56 -83 -31 -100 q -90 -52 -76 -69 q -115 -15 -104 -35 q -133 26 -125 6 q -151 68 -142 47 q -148 82 -154 72 q -136 93 -142 92 q -32 154 -72 103 q 50 258 8 206 q 136 368 92 310 q 88 385 107 372 q 56 417 69 399 q 30 456 42 435 q 6 499 18 478 q 198 541 106 508 q 371 636 290 574 q 363 639 368 638 q 354 642 358 640 q 448 781 401 713 q 542 919 494 850 q 536 925 539 922 q 531 931 533 928 q 451 870 490 900 q 371 808 411 840 q 274 730 322 769 q 176 651 226 690 q 119 638 149 631 q 69 678 90 646 q 63 680 67 681 q 51 682 58 679 q 60 692 56 688 q 67 703 64 697 q 46 702 56 703 q 25 701 36 701 l 25 706 q 38 711 36 711 q 33 732 35 722 q 28 751 31 742 q 35 744 32 749 q 69 778 53 761 q 103 810 85 794 q 145 838 124 825 q 189 867 167 851 q 213 881 200 874 q 231 899 225 888 q 249 925 238 914 q 272 944 260 936 q 298 960 285 953 q 324 978 311 968 q 393 1031 358 1006 q 464 1083 428 1057 q 492 1102 478 1093 q 525 1124 506 1111 q 549 1123 539 1118 q 568 1138 560 1128 q 584 1158 576 1147 q 603 1176 592 1169 q 648 1208 626 1192 q 693 1236 669 1224 q 727 1239 703 1242 q 778 1228 751 1236 q 828 1211 804 1221 q 860 1193 851 1201 q 887 1167 874 1179 q 894 1131 900 1156 q 893 1119 893 1125 q 890 1111 893 1114 q 806 987 847 1049 q 721 864 764 925 q 624 729 672 796 q 525 594 575 663 q 565 586 544 589 q 603 574 586 583 q 638 550 621 564 q 667 518 656 536 q 669 473 682 492 q 625 454 657 454 q 561 455 593 454 q 497 456 529 456 q 425 444 457 457 q 369 396 393 431 q 326 330 347 363 q 286 269 306 297 z "},"Y":{"ha":760,"x_min":-6,"x_max":1121,"o":"m 199 786 q 125 791 163 789 q 50 796 88 793 q 44 813 47 807 q 132 904 89 858 q 219 994 175 950 q 307 1081 263 1039 q 392 1167 351 1122 q 417 1207 407 1183 q 439 1254 428 1231 q 511 1213 474 1235 q 585 1167 549 1192 q 606 1093 621 1142 q 580 1026 596 1057 q 544 965 564 994 q 504 907 525 936 q 464 849 483 878 q 367 697 414 774 q 271 543 319 621 q 269 533 269 540 q 333 581 301 557 q 396 628 364 604 q 404 642 404 633 q 417 680 407 669 q 450 700 426 690 q 469 714 461 703 q 486 732 476 725 q 570 801 528 768 q 653 871 613 835 q 764 971 710 919 q 875 1074 818 1022 q 861 1078 867 1076 q 888 1103 872 1099 q 924 1101 904 1108 q 952 1102 942 1094 q 965 1138 963 1110 q 1035 1094 1001 1114 q 1099 1050 1069 1074 q 1117 1004 1121 1033 q 1092 951 1114 975 q 976 820 1033 885 q 861 689 918 756 q 662 429 753 564 q 486 154 571 294 q 423 40 453 97 q 360 -75 393 -18 q 320 -133 342 -106 q 275 -192 299 -160 l 267 -158 q 238 -198 251 -181 q 213 -235 224 -215 q 172 -267 197 -258 q 122 -261 147 -276 q 83 -238 101 -250 q 44 -212 64 -226 q 34 -196 36 -207 q 35 -173 32 -185 q 44 -150 38 -161 q 63 -133 51 -139 q 79 -124 71 -129 q 92 -111 88 -118 q 144 -31 119 -71 q 194 51 169 10 q 209 78 203 64 q 224 106 215 93 q 258 162 240 135 q 306 210 276 189 q 327 242 321 221 q 344 281 333 263 q 433 416 389 349 q 521 551 476 483 q 526 562 524 556 q 531 576 528 568 q 479 556 497 575 q 443 518 461 536 q 343 410 392 465 q 242 303 294 354 q 201 274 222 285 q 156 262 179 263 q 108 272 132 261 q 60 311 83 283 q 31 348 44 329 q 6 386 17 367 q -6 422 -6 404 q 13 458 -6 439 q 43 506 32 479 q 68 558 54 533 q 134 674 101 617 q 199 786 167 731 z "},"X":{"ha":606,"x_min":-456,"x_max":985,"o":"m 82 833 q 115 854 94 846 q 156 867 135 863 q 199 869 178 871 q 235 860 219 868 q 297 802 275 839 q 338 725 318 765 q 362 744 351 735 q 383 764 372 753 q 426 798 403 783 q 468 835 450 813 q 476 834 469 838 q 490 828 483 831 q 486 851 486 846 q 543 899 515 875 q 599 944 571 922 q 672 1001 635 972 q 747 1057 710 1029 q 735 1088 742 1072 q 721 1124 729 1103 q 802 1124 761 1124 q 883 1121 843 1125 q 922 1110 903 1119 q 957 1089 940 1100 q 978 1062 972 1078 q 982 1031 985 1046 q 969 1003 979 1015 q 940 988 958 992 q 865 955 897 978 q 799 908 832 932 q 653 801 724 856 q 510 692 582 747 q 456 649 482 671 q 407 603 431 626 q 397 582 400 596 q 396 560 393 568 q 449 408 422 483 q 519 264 475 332 q 531 234 528 251 q 528 204 533 217 q 510 190 525 194 q 478 185 494 185 q 423 194 447 185 q 378 219 399 204 q 342 253 358 233 q 308 292 325 272 q 288 341 293 313 q 275 397 283 369 q 266 419 272 408 q 253 447 260 431 q 219 417 235 431 q 189 388 204 403 q 153 351 171 369 q 119 314 135 333 q 78 261 97 288 q 39 207 58 235 q 33 194 36 200 q 26 182 31 189 q -86 25 -31 103 q -200 -131 -142 -53 q -285 -226 -239 -185 q -314 -240 -296 -236 q -347 -240 -332 -244 q -454 -135 -431 -219 q -449 -126 -456 -132 q -436 -115 -443 -119 q -417 -106 -428 -110 q -399 -96 -406 -103 q -343 -32 -371 -64 q -279 24 -315 0 q -263 49 -268 32 q -247 81 -258 67 q -220 110 -235 96 q -190 140 -206 125 q -147 182 -168 161 q -104 225 -125 203 q -97 238 -97 232 q -82 275 -93 258 q -57 305 -71 292 q -28 331 -43 318 q 3 356 -12 343 q 35 398 22 374 q 64 443 47 422 q 116 505 90 475 q 169 564 142 535 q 192 597 186 581 q 188 638 197 614 q 163 700 172 668 q 138 764 153 732 q 112 799 126 783 q 82 833 97 815 z "},"W":{"ha":989,"x_min":-208,"x_max":1458,"o":"m -143 171 q -133 183 -137 178 q -124 196 -128 189 q -107 226 -115 211 q -92 257 -99 242 q -76 290 -83 272 q -58 322 -68 307 q -49 333 -56 329 q -39 342 -43 336 q -38 356 -37 349 q -35 369 -39 364 q 40 492 11 426 q 108 618 69 557 q 167 723 142 668 q 217 833 192 778 q 224 862 224 846 q 221 893 224 878 q 228 928 218 910 q 251 956 238 947 q 301 970 275 972 q 351 969 326 968 q 417 942 393 971 q 428 874 442 913 q 388 779 411 825 q 340 686 364 733 q 297 603 319 644 q 251 517 275 561 q 265 515 260 517 q 274 515 271 513 q 306 556 290 535 q 339 596 322 576 q 343 602 342 599 q 347 606 344 606 q 372 616 363 608 q 389 634 382 624 q 402 656 396 644 q 417 676 408 667 q 449 715 433 696 q 485 750 465 733 q 542 770 506 768 q 615 761 578 772 q 679 728 651 750 q 711 679 707 707 q 715 608 717 644 q 711 536 714 572 q 704 463 708 500 q 697 390 700 426 q 702 390 700 390 q 707 389 704 389 q 787 499 747 444 q 867 611 826 554 q 877 607 869 610 q 894 601 885 604 q 891 632 888 619 q 902 655 894 644 q 919 674 910 665 q 935 693 928 682 q 967 735 950 715 q 1000 776 983 756 q 1015 790 1007 783 q 1029 803 1022 796 q 1101 880 1065 842 q 1174 958 1138 918 q 1188 983 1183 969 q 1203 1008 1193 997 q 1221 1023 1210 1018 q 1239 1033 1232 1028 q 1219 1060 1228 1049 q 1199 1086 1210 1072 q 1270 1097 1236 1092 q 1338 1106 1304 1103 q 1444 1067 1399 1110 q 1455 1049 1451 1060 q 1458 1026 1458 1038 q 1455 1006 1458 1015 q 1444 993 1451 996 q 1387 958 1413 978 q 1337 916 1361 939 q 1290 869 1313 893 q 1244 822 1268 844 q 1160 740 1201 781 q 1079 654 1118 699 q 996 552 1036 604 q 917 447 956 500 q 833 321 874 385 q 753 192 793 257 q 711 117 729 156 q 674 39 693 78 q 618 -24 649 -14 q 540 3 588 -35 q 494 50 514 22 q 453 106 474 78 q 453 115 450 108 q 461 124 456 121 q 473 133 467 129 q 481 144 479 138 q 481 183 483 163 q 489 218 479 204 q 514 289 511 251 q 524 363 517 326 q 541 458 535 410 q 556 557 547 507 q 367 402 456 482 q 200 228 278 322 q 99 111 151 168 q -7 -4 46 54 q -32 -17 -15 -12 q -60 -19 -49 -22 q -128 7 -97 -11 q -175 65 -160 25 q -191 90 -181 79 q -208 110 -201 100 q -178 139 -192 125 q -149 167 -164 153 q -146 169 -147 168 q -143 171 -144 169 z "},"V":{"ha":581,"x_min":-90,"x_max":1311,"o":"m 560 826 q 583 833 571 831 q 600 842 596 835 q 634 885 618 863 q 667 931 650 907 q 668 933 668 932 q 669 936 668 935 q 736 999 704 968 q 807 1057 768 1031 q 849 1104 838 1081 q 856 1158 860 1128 q 872 1151 863 1156 q 885 1149 882 1146 q 912 1169 897 1158 q 940 1191 926 1181 q 963 1213 953 1201 q 976 1235 974 1224 q 1008 1301 986 1271 q 1042 1364 1031 1331 q 1072 1378 1044 1372 q 1119 1385 1100 1383 q 1174 1383 1147 1386 q 1225 1372 1200 1379 q 1300 1343 1269 1364 q 1310 1328 1308 1339 q 1307 1304 1311 1317 q 1295 1280 1303 1292 q 1276 1264 1288 1268 q 1137 1182 1196 1233 q 1022 1076 1078 1131 q 852 917 936 996 q 693 751 768 838 q 545 564 614 660 q 410 371 476 468 q 288 192 346 282 q 167 10 229 101 q 92 -46 138 -35 q -3 -35 46 -57 q -85 39 -57 -11 q -85 62 -90 49 q -78 89 -81 75 q -67 143 -72 117 q -56 197 -61 169 q -15 325 -46 263 q -1 370 -4 347 q 8 417 1 393 q 18 450 14 433 q 26 483 22 467 q 38 516 31 500 q 56 549 44 532 q 78 602 74 572 q 93 660 83 632 q 134 755 113 708 q 171 850 156 801 q 190 931 185 890 q 204 1014 196 971 q 208 1015 203 1014 q 218 1019 213 1017 q 223 1027 221 1022 q 226 1032 225 1032 q 273 1028 249 1028 q 320 1025 297 1028 q 361 1013 343 1022 q 390 982 379 1004 q 400 947 400 967 q 394 908 400 926 q 349 788 372 847 q 301 667 325 728 q 252 533 276 600 q 203 397 228 465 q 206 381 203 392 q 231 388 224 382 q 241 401 239 393 q 242 419 243 410 q 244 439 242 429 q 278 411 260 426 q 288 462 282 438 q 300 515 293 486 q 316 503 311 507 q 326 497 321 500 q 389 578 358 538 q 451 660 419 619 q 524 732 485 697 q 558 781 546 751 q 560 826 569 810 z "},"U":{"ha":942,"x_min":-64,"x_max":1092,"o":"m 260 1006 q 303 1008 282 1006 q 344 1010 324 1010 q 386 1004 365 1010 q 428 982 407 999 q 463 934 458 956 q 446 876 468 913 q 352 724 401 797 q 260 572 303 651 q 203 444 228 511 q 150 313 178 378 q 147 297 147 306 q 147 274 147 288 q 167 283 158 279 q 182 293 175 286 q 258 378 221 335 q 335 465 294 421 q 347 472 340 469 q 360 481 353 475 q 374 493 365 488 q 391 505 383 499 q 403 521 399 511 q 404 547 407 531 q 415 558 403 551 q 433 571 426 564 q 463 608 449 589 q 494 644 478 628 q 503 657 499 650 q 513 669 507 664 q 527 674 519 674 q 546 668 535 675 l 554 692 q 555 706 556 699 q 557 717 554 713 q 629 801 593 758 q 697 888 665 843 q 734 947 718 915 q 767 1008 750 978 l 785 1040 q 806 1069 793 1056 q 828 1098 818 1083 q 842 1130 839 1113 q 835 1171 844 1147 q 905 1185 871 1178 q 972 1197 939 1193 q 1004 1190 985 1199 q 1042 1169 1024 1182 q 1074 1140 1061 1156 q 1089 1110 1088 1124 q 1085 1059 1092 1085 q 1069 1011 1078 1033 q 1024 909 1047 958 q 978 807 1001 860 q 881 569 932 688 q 777 331 829 450 q 676 91 725 211 q 583 -149 626 -29 q 567 -164 581 -158 q 536 -172 553 -169 q 502 -170 519 -174 q 474 -157 485 -167 q 433 -108 450 -135 q 399 -54 415 -81 q 397 -39 394 -49 q 401 -25 399 -29 q 495 217 454 108 q 559 392 536 325 q 586 475 582 458 q 571 443 590 492 q 551 433 561 436 q 536 422 542 429 q 441 306 488 364 q 346 189 394 247 q 299 141 324 165 q 249 101 275 117 q 133 74 190 69 q 21 132 76 78 q -10 163 6 147 q -39 196 -26 178 q -56 276 -64 236 q -33 356 -49 315 q 5 456 -14 407 q 43 556 24 506 l 46 575 q 103 664 74 619 q 154 757 132 708 q 188 803 167 783 q 213 846 208 824 q 238 906 221 881 q 268 960 256 931 q 267 978 271 967 q 260 1006 263 990 z "},"T":{"ha":357,"x_min":-194,"x_max":1247,"o":"m 906 1411 q 924 1419 914 1415 q 943 1428 935 1424 q 978 1442 961 1435 q 1014 1447 994 1449 q 1053 1438 1033 1447 q 1093 1422 1072 1429 q 1117 1411 1106 1418 q 1142 1397 1129 1404 q 1203 1346 1179 1378 q 1238 1274 1226 1314 q 1235 1224 1247 1242 q 1194 1211 1222 1206 q 1082 1223 1138 1221 q 971 1222 1026 1225 q 860 1215 915 1219 q 750 1211 806 1211 q 716 1209 732 1211 q 681 1208 700 1207 q 633 1197 653 1210 q 600 1160 614 1183 q 565 1096 588 1135 q 519 1015 543 1057 q 474 935 496 974 q 438 871 451 896 q 380 763 414 828 q 310 626 346 697 q 242 489 275 556 q 188 379 208 422 q 101 192 140 288 q 21 -1 61 96 q -5 -87 4 -43 q 1 -185 -14 -132 q 1 -205 6 -193 q -8 -218 -3 -217 q -42 -224 -24 -221 q -72 -219 -60 -226 q -187 -68 -151 -161 q -191 -17 -194 -44 q -181 36 -187 10 q -161 100 -172 68 q -135 160 -150 132 q -103 205 -121 185 q -75 249 -86 225 q -62 269 -69 260 q -49 291 -56 279 q -41 316 -43 303 q -43 346 -39 329 q -42 353 -46 349 q -37 363 -39 358 q -35 367 -37 367 q 0 405 -22 374 q 42 475 22 436 q 72 553 63 514 q 65 615 81 592 q 88 616 78 615 q 108 617 99 617 q 110 632 106 626 q 120 644 115 638 q 126 657 125 650 q 118 676 128 664 q 114 697 114 683 q 119 717 114 710 q 160 766 139 743 q 199 815 181 789 q 213 853 208 831 q 225 893 217 875 q 245 933 231 906 q 276 989 260 960 q 308 1044 293 1018 q 329 1083 324 1071 q 342 1118 338 1099 q 353 1161 346 1138 q 283 1153 315 1156 q 218 1149 250 1151 q 195 1148 207 1147 q 172 1150 183 1149 q 68 1197 111 1153 q 10 1322 25 1242 q 5 1342 8 1333 q -4 1363 1 1351 q 6 1367 1 1365 q 14 1367 10 1369 q 74 1352 44 1354 q 133 1352 104 1350 q 191 1359 163 1354 q 249 1367 219 1364 q 274 1364 260 1368 q 300 1361 288 1360 q 333 1370 317 1364 q 365 1381 350 1376 q 446 1397 406 1392 q 525 1403 486 1400 q 607 1404 564 1406 q 590 1397 596 1399 q 593 1392 593 1394 q 632 1403 613 1397 q 674 1411 651 1408 q 689 1408 681 1413 q 707 1400 697 1403 q 719 1400 717 1397 q 756 1418 736 1414 q 795 1423 775 1422 q 836 1422 815 1424 q 876 1425 857 1421 q 891 1421 883 1426 q 906 1411 899 1415 z "},"S":{"ha":536,"x_min":-164,"x_max":800,"o":"m 499 817 q 519 828 510 824 q 540 839 528 832 l 476 839 q 555 940 517 892 q 629 1036 593 988 q 633 1045 632 1040 q 638 1063 635 1050 q 596 1044 614 1051 q 563 1025 578 1036 q 401 899 476 967 q 260 747 325 832 q 237 710 246 731 q 221 668 228 689 q 222 650 218 661 q 232 635 226 639 q 274 607 253 619 q 317 582 294 594 q 401 511 369 553 q 444 420 433 469 q 442 317 454 371 q 396 210 431 263 q 309 102 356 151 q 199 28 263 53 q 106 -1 154 11 q 11 -10 58 -12 q -91 39 -56 -7 q -150 167 -126 85 q -151 172 -151 169 q -150 178 -150 175 q -154 196 -151 186 q -159 215 -157 206 q -162 230 -161 224 q -161 238 -164 236 q -127 253 -146 249 q -92 256 -108 258 q -66 240 -78 253 q -43 215 -54 228 q -15 194 -29 197 q 18 197 -1 192 q 147 276 96 221 q 240 397 197 331 q 249 453 258 425 q 211 500 240 482 q 133 560 168 526 q 78 646 97 594 q 51 738 57 708 q 49 785 44 767 q 72 822 54 803 q 117 881 89 840 q 178 958 142 921 q 243 1021 214 996 q 333 1099 288 1061 q 426 1174 379 1138 q 533 1217 479 1213 q 644 1197 588 1221 q 697 1170 672 1186 q 746 1139 722 1154 q 785 1097 772 1124 q 799 1041 799 1071 q 789 978 800 1011 q 756 918 778 946 q 715 870 736 893 q 672 826 694 847 q 594 786 633 790 q 499 817 556 782 z "},"R":{"ha":708,"x_min":-149,"x_max":1026,"o":"m 46 603 q 74 597 61 600 q 93 597 86 593 q 118 617 107 604 q 140 640 129 629 q 163 671 153 656 q 186 703 174 686 q 108 756 133 719 q 68 832 82 792 q 106 862 88 847 q 144 892 125 876 l 144 889 q 145 886 144 888 q 146 883 146 885 q 217 977 172 939 q 304 1056 261 1015 q 335 1092 321 1072 q 364 1132 349 1113 l 356 1140 q 394 1144 375 1143 q 433 1151 414 1146 q 491 1174 463 1161 q 549 1194 519 1186 q 622 1217 585 1206 q 697 1229 660 1229 q 810 1226 760 1229 q 899 1214 860 1222 q 982 1177 951 1201 q 1019 1110 1013 1153 q 1009 1003 1026 1067 q 947 847 992 939 q 898 776 928 807 q 833 719 868 744 q 758 674 797 694 q 679 633 718 653 q 594 592 636 613 q 507 553 551 572 q 483 506 474 539 q 533 334 508 419 q 583 164 557 249 q 606 110 592 136 q 633 57 619 83 q 638 10 646 32 q 603 -22 629 -11 q 543 -29 571 -35 q 489 -4 515 -24 q 481 0 485 -1 q 474 4 478 1 q 444 16 454 11 q 430 28 433 21 q 428 48 426 36 q 436 81 431 60 q 439 92 438 86 q 438 100 440 99 q 419 125 425 111 q 412 153 414 139 q 408 183 410 168 q 400 211 406 197 q 357 338 375 274 q 332 468 339 401 q 329 474 331 471 q 328 478 328 476 q 294 473 310 475 q 263 465 278 471 q 235 451 249 460 q 215 432 222 443 q 125 262 169 347 q 36 90 81 176 q 12 65 26 74 q -21 63 -3 56 q -100 108 -68 78 q -143 188 -132 138 q -136 219 -149 210 q -106 233 -124 228 q -87 240 -97 236 q -76 250 -78 243 q -35 340 -65 301 q 19 422 -4 379 q 38 453 28 438 q 53 485 47 468 q 61 519 60 501 q 54 557 63 538 q 49 580 50 568 q 46 603 49 592 m 618 1071 q 556 1044 581 1064 q 515 993 531 1025 q 452 866 483 929 q 392 738 421 803 q 390 719 388 731 q 396 700 393 708 q 407 697 397 697 q 424 700 417 697 q 489 730 457 715 q 553 761 521 744 q 603 794 579 776 q 651 826 626 811 q 696 854 674 842 q 738 883 718 867 q 817 989 800 940 q 815 1067 833 1038 q 744 1100 796 1096 q 618 1071 693 1104 z "},"Q":{"ha":783,"x_min":-62,"x_max":915,"o":"m 614 1113 q 601 1156 607 1136 q 588 1196 594 1175 q 587 1195 586 1193 q 590 1199 588 1197 q 687 1200 635 1207 q 785 1172 739 1193 q 864 1115 831 1150 q 906 1029 897 1079 q 898 883 915 963 q 849 724 881 804 q 776 569 817 643 q 701 440 736 496 q 637 355 672 396 q 569 271 601 314 q 558 255 563 264 q 556 235 554 246 q 572 85 558 158 q 618 -64 586 11 q 630 -118 633 -100 q 599 -151 626 -136 q 541 -156 576 -162 q 483 -132 506 -150 q 440 -107 464 -117 q 415 -91 422 -100 q 407 -71 408 -82 q 406 -49 406 -60 q 406 -26 407 -37 q 400 26 403 0 q 394 82 397 53 q 335 51 363 65 q 281 22 307 38 q 188 -1 236 -1 q 96 16 140 0 q 14 61 51 32 q -47 124 -24 90 q -60 153 -58 139 q -60 181 -62 167 q -56 209 -58 194 q -53 240 -53 224 q -33 344 -54 281 q 24 482 -12 407 q 113 638 61 557 q 224 797 164 719 q 350 944 283 875 q 483 1061 417 1013 q 497 1069 490 1065 q 507 1079 504 1074 q 521 1105 511 1097 q 544 1115 531 1113 q 576 1115 558 1117 q 614 1113 593 1114 m 663 988 q 590 922 626 956 q 519 854 554 889 q 337 640 415 754 q 200 399 258 526 q 156 296 176 347 q 115 192 135 244 q 117 167 113 181 q 125 143 122 154 q 153 146 139 146 q 178 153 167 146 q 254 209 217 181 q 325 269 292 238 q 364 307 347 286 q 392 349 381 328 q 408 406 403 376 q 424 464 414 436 q 444 524 433 494 q 467 583 456 554 q 481 582 476 583 q 494 551 488 567 q 508 517 501 535 q 517 528 514 521 q 524 533 521 535 q 556 531 543 528 q 578 542 569 535 q 593 561 588 550 q 604 583 599 572 q 638 657 618 608 q 675 761 657 706 q 706 871 693 817 q 722 962 719 925 q 710 1009 724 999 q 663 988 697 1019 z "},"P":{"ha":681,"x_min":-236,"x_max":854,"o":"m -117 113 q -104 133 -108 121 q -97 157 -100 144 q -88 183 -94 169 q -69 207 -82 196 q -41 244 -51 221 q -21 290 -31 268 q -16 319 -14 306 q -24 346 -18 333 q -35 371 -29 358 q -43 397 -42 383 q -49 422 -44 410 q -60 449 -54 433 q -20 438 -37 442 q 15 432 -3 433 q 35 435 24 429 q 49 449 46 442 q 93 537 69 493 q 126 626 117 581 q 152 690 133 665 q 190 742 171 714 q 155 782 172 763 q 122 824 138 801 q 114 846 115 833 q 111 863 113 858 q 144 878 129 872 q 169 893 158 885 q 196 917 185 904 q 221 940 207 929 q 254 985 244 960 q 275 1035 264 1010 q 288 1060 278 1046 q 306 1072 299 1074 q 355 1073 332 1068 q 399 1088 378 1078 q 439 1113 419 1099 q 478 1142 458 1128 q 567 1180 519 1171 q 662 1181 615 1189 q 748 1150 708 1174 q 813 1089 788 1126 q 849 994 843 1044 q 846 890 854 943 q 813 774 839 828 q 756 667 788 719 q 650 525 707 592 q 521 407 593 458 q 354 310 440 350 q 168 260 268 269 q 147 253 158 260 q 132 239 135 247 q 63 88 97 164 q -4 -65 28 13 q -20 -105 -11 -86 q -50 -135 -29 -124 q -72 -139 -58 -139 q -99 -135 -85 -139 q -126 -124 -114 -131 q -144 -108 -139 -117 q -166 -86 -153 -96 q -193 -67 -179 -76 q -208 -53 -203 -60 q -217 -31 -214 -46 q -223 -17 -218 -24 q -231 -4 -228 -11 q -235 10 -235 3 q -229 26 -236 18 q -208 42 -219 36 q -185 56 -196 49 q -175 65 -181 61 q -164 74 -169 68 q -140 93 -153 83 q -117 113 -128 103 m 464 936 q 456 924 458 932 q 450 910 453 917 q 432 860 439 885 q 414 813 425 836 q 334 650 374 731 q 254 486 294 569 q 252 472 251 479 q 251 458 253 465 q 267 457 258 458 q 279 460 275 456 q 297 478 290 467 q 315 497 304 489 q 470 614 396 551 q 594 764 544 676 q 617 806 607 785 q 640 847 628 826 q 688 947 678 911 q 688 999 697 983 q 652 1013 678 1014 q 594 999 626 1011 q 526 970 561 988 q 464 936 492 953 z "},"}":{"ha":593,"x_min":-249,"x_max":697,"o":"m 508 418 q 475 440 492 435 q 442 442 458 444 q 411 433 426 440 q 383 419 396 425 q 243 313 296 379 q 176 150 190 247 q 46 -61 157 21 q 33 -72 39 -68 q 21 -81 26 -76 q -34 -133 -7 -117 q -87 -150 -61 -149 q -141 -142 -114 -151 q -196 -121 -168 -133 q -238 -78 -228 -107 q -208 -8 -249 -50 q -186 15 -197 3 q -161 33 -175 26 q -44 149 -81 78 q 0 303 -8 219 q 35 414 4 365 q 113 503 67 463 q 180 554 144 531 q 251 604 215 578 q 223 690 226 647 q 230 775 219 733 q 260 858 240 817 q 303 940 281 900 q 370 1040 333 992 q 443 1138 407 1088 q 456 1164 450 1149 q 456 1186 461 1179 q 435 1196 449 1193 q 411 1201 422 1199 q 340 1208 375 1206 q 272 1222 304 1210 q 247 1248 257 1226 q 236 1288 236 1269 q 253 1322 239 1303 q 283 1350 268 1342 q 351 1374 318 1368 q 417 1376 385 1379 q 481 1362 450 1372 q 540 1338 511 1351 q 663 1249 629 1297 q 695 1149 697 1201 q 664 1039 693 1096 q 597 925 635 982 q 521 811 558 868 q 465 700 483 754 q 453 643 456 674 q 469 582 450 613 q 494 530 485 558 q 510 472 503 501 q 511 450 514 463 q 508 418 508 438 z "},"|":{"ha":350,"x_min":-200,"x_max":475,"o":"m 246 1051 q 297 1056 274 1054 q 344 1058 321 1057 q 343 1063 343 1061 q 340 1067 343 1064 q 362 1059 351 1063 q 383 1054 372 1056 q 450 1022 425 1050 q 464 954 475 993 q 435 857 451 906 q 400 761 419 808 q 331 601 367 681 q 260 442 296 521 q 216 356 240 397 q 169 269 192 314 q 116 152 142 211 q 63 35 90 93 q 44 -8 54 13 q 25 -50 33 -28 q 13 -94 18 -71 q 1 -140 8 -117 q -41 -199 -8 -181 q -115 -203 -74 -218 q -169 -169 -147 -190 q -197 -115 -190 -147 q -197 -71 -200 -94 q -182 -31 -194 -47 q -147 44 -158 6 q -117 119 -136 83 q -83 188 -101 156 q -49 256 -65 221 q -2 344 -25 300 q 43 433 21 389 q 95 537 69 485 q 146 642 121 589 q 179 722 164 682 q 211 803 194 763 q 258 910 232 857 q 253 1026 288 971 q 248 1040 249 1032 q 246 1051 247 1047 z "},"{":{"ha":593,"x_min":-65,"x_max":881,"o":"m 124 801 q 157 780 140 785 q 190 777 174 775 q 221 786 206 779 q 249 800 236 793 q 389 906 336 840 q 456 1069 442 972 q 499 1188 465 1135 q 586 1281 532 1240 q 599 1292 593 1288 q 611 1300 606 1296 q 666 1352 639 1336 q 719 1369 693 1368 q 773 1362 746 1371 q 828 1340 800 1353 q 870 1298 860 1326 q 840 1228 881 1269 q 818 1205 829 1217 q 793 1186 807 1193 q 724 1135 753 1164 q 676 1071 694 1106 q 647 997 657 1036 q 632 917 636 958 q 597 806 628 854 q 519 717 565 757 q 452 665 488 689 q 381 615 417 642 q 409 529 406 572 q 402 444 413 486 q 372 361 392 403 q 329 279 351 319 q 262 180 299 228 q 189 82 225 132 q 176 56 182 71 q 176 33 171 40 q 197 24 183 26 q 221 18 210 21 q 292 12 257 14 q 360 -3 328 10 q 385 -28 375 -7 q 396 -68 396 -50 q 378 -103 393 -83 q 349 -131 364 -122 q 281 -154 314 -149 q 215 -156 247 -160 q 151 -142 182 -153 q 92 -118 121 -132 q -31 -30 3 -78 q -63 71 -65 18 q -32 181 -61 124 q 35 294 -3 238 q 111 408 74 351 q 167 519 149 465 q 179 576 176 546 q 163 638 182 607 q 138 690 147 661 q 122 747 129 718 q 121 769 118 757 q 124 801 124 782 z "},"z":{"ha":744,"x_min":-154,"x_max":900,"o":"m 286 269 q 376 265 331 267 q 467 257 422 263 q 503 243 485 256 q 533 214 521 231 q 551 179 546 197 q 551 147 557 161 q 517 115 540 118 q 474 114 494 111 q 369 108 418 121 q 274 69 319 94 q 170 10 221 42 q 68 -54 119 -22 q 47 -74 58 -60 q -1 -99 28 -97 q -56 -83 -31 -100 q -90 -52 -76 -69 q -115 -15 -104 -35 q -133 26 -125 6 q -151 68 -142 47 q -148 82 -154 72 q -136 93 -142 92 q -32 154 -72 103 q 50 258 8 206 q 136 368 92 310 q 88 385 107 372 q 56 417 69 399 q 30 456 42 435 q 6 499 18 478 q 198 541 106 508 q 371 636 290 574 q 363 639 368 638 q 354 642 358 640 q 448 781 401 713 q 542 919 494 850 q 536 925 539 922 q 531 931 533 928 q 451 870 490 900 q 371 808 411 840 q 274 730 322 769 q 176 651 226 690 q 119 638 149 631 q 69 678 90 646 q 63 680 67 681 q 51 682 58 679 q 60 692 56 688 q 67 703 64 697 q 46 702 56 703 q 25 701 36 701 l 25 706 q 38 711 36 711 q 33 732 35 722 q 28 751 31 742 q 35 744 32 749 q 69 778 53 761 q 103 810 85 794 q 145 838 124 825 q 189 867 167 851 q 213 881 200 874 q 231 899 225 888 q 249 925 238 914 q 272 944 260 936 q 298 960 285 953 q 324 978 311 968 q 393 1031 358 1006 q 464 1083 428 1057 q 492 1102 478 1093 q 525 1124 506 1111 q 549 1123 539 1118 q 568 1138 560 1128 q 584 1158 576 1147 q 603 1176 592 1169 q 648 1208 626 1192 q 693 1236 669 1224 q 727 1239 703 1242 q 778 1228 751 1236 q 828 1211 804 1221 q 860 1193 851 1201 q 887 1167 874 1179 q 894 1131 900 1156 q 893 1119 893 1125 q 890 1111 893 1114 q 806 987 847 1049 q 721 864 764 925 q 624 729 672 796 q 525 594 575 663 q 565 586 544 589 q 603 574 586 583 q 638 550 621 564 q 667 518 656 536 q 669 473 682 492 q 625 454 657 454 q 561 455 593 454 q 497 456 529 456 q 425 444 457 457 q 369 396 393 431 q 326 330 347 363 q 286 269 306 297 z "},"y":{"ha":760,"x_min":-6,"x_max":1121,"o":"m 199 786 q 125 791 163 789 q 50 796 88 793 q 44 813 47 807 q 132 904 89 858 q 219 994 175 950 q 307 1081 263 1039 q 392 1167 351 1122 q 417 1207 407 1183 q 439 1254 428 1231 q 511 1213 474 1235 q 585 1167 549 1192 q 606 1093 621 1142 q 580 1026 596 1057 q 544 965 564 994 q 504 907 525 936 q 464 849 483 878 q 367 697 414 774 q 271 543 319 621 q 269 533 269 540 q 333 581 301 557 q 396 628 364 604 q 404 642 404 633 q 417 680 407 669 q 450 700 426 690 q 469 714 461 703 q 486 732 476 725 q 570 801 528 768 q 653 871 613 835 q 764 971 710 919 q 875 1074 818 1022 q 861 1078 867 1076 q 888 1103 872 1099 q 924 1101 904 1108 q 952 1102 942 1094 q 965 1138 963 1110 q 1035 1094 1001 1114 q 1099 1050 1069 1074 q 1117 1004 1121 1033 q 1092 951 1114 975 q 976 820 1033 885 q 861 689 918 756 q 662 429 753 564 q 486 154 571 294 q 423 40 453 97 q 360 -75 393 -18 q 320 -133 342 -106 q 275 -192 299 -160 l 267 -158 q 238 -198 251 -181 q 213 -235 224 -215 q 172 -267 197 -258 q 122 -261 147 -276 q 83 -238 101 -250 q 44 -212 64 -226 q 34 -196 36 -207 q 35 -173 32 -185 q 44 -150 38 -161 q 63 -133 51 -139 q 79 -124 71 -129 q 92 -111 88 -118 q 144 -31 119 -71 q 194 51 169 10 q 209 78 203 64 q 224 106 215 93 q 258 162 240 135 q 306 210 276 189 q 327 242 321 221 q 344 281 333 263 q 433 416 389 349 q 521 551 476 483 q 526 562 524 556 q 531 576 528 568 q 479 556 497 575 q 443 518 461 536 q 343 410 392 465 q 242 303 294 354 q 201 274 222 285 q 156 262 179 263 q 108 272 132 261 q 60 311 83 283 q 31 348 44 329 q 6 386 17 367 q -6 422 -6 404 q 13 458 -6 439 q 43 506 32 479 q 68 558 54 533 q 134 674 101 617 q 199 786 167 731 z "},"x":{"ha":606,"x_min":-456,"x_max":985,"o":"m 82 833 q 115 854 94 846 q 156 867 135 863 q 199 869 178 871 q 235 860 219 868 q 297 802 275 839 q 338 725 318 765 q 362 744 351 735 q 383 764 372 753 q 426 798 403 783 q 468 835 450 813 q 476 834 469 838 q 490 828 483 831 q 486 851 486 846 q 543 899 515 875 q 599 944 571 922 q 672 1001 635 972 q 747 1057 710 1029 q 735 1088 742 1072 q 721 1124 729 1103 q 802 1124 761 1124 q 883 1121 843 1125 q 922 1110 903 1119 q 957 1089 940 1100 q 978 1062 972 1078 q 982 1031 985 1046 q 969 1003 979 1015 q 940 988 958 992 q 865 955 897 978 q 799 908 832 932 q 653 801 724 856 q 510 692 582 747 q 456 649 482 671 q 407 603 431 626 q 397 582 400 596 q 396 560 393 568 q 449 408 422 483 q 519 264 475 332 q 531 234 528 251 q 528 204 533 217 q 510 190 525 194 q 478 185 494 185 q 423 194 447 185 q 378 219 399 204 q 342 253 358 233 q 308 292 325 272 q 288 341 293 313 q 275 397 283 369 q 266 419 272 408 q 253 447 260 431 q 219 417 235 431 q 189 388 204 403 q 153 351 171 369 q 119 314 135 333 q 78 261 97 288 q 39 207 58 235 q 33 194 36 200 q 26 182 31 189 q -86 25 -31 103 q -200 -131 -142 -53 q -285 -226 -239 -185 q -314 -240 -296 -236 q -347 -240 -332 -244 q -454 -135 -431 -219 q -449 -126 -456 -132 q -436 -115 -443 -119 q -417 -106 -428 -110 q -399 -96 -406 -103 q -343 -32 -371 -64 q -279 24 -315 0 q -263 49 -268 32 q -247 81 -258 67 q -220 110 -235 96 q -190 140 -206 125 q -147 182 -168 161 q -104 225 -125 203 q -97 238 -97 232 q -82 275 -93 258 q -57 305 -71 292 q -28 331 -43 318 q 3 356 -12 343 q 35 398 22 374 q 64 443 47 422 q 116 505 90 475 q 169 564 142 535 q 192 597 186 581 q 188 638 197 614 q 163 700 172 668 q 138 764 153 732 q 112 799 126 783 q 82 833 97 815 z "},"w":{"ha":989,"x_min":-208,"x_max":1458,"o":"m -143 171 q -133 183 -137 178 q -124 196 -128 189 q -107 226 -115 211 q -92 257 -99 242 q -76 290 -83 272 q -58 322 -68 307 q -49 333 -56 329 q -39 342 -43 336 q -38 356 -37 349 q -35 369 -39 364 q 40 492 11 426 q 108 618 69 557 q 167 723 142 668 q 217 833 192 778 q 224 862 224 846 q 221 893 224 878 q 228 928 218 910 q 251 956 238 947 q 301 970 275 972 q 351 969 326 968 q 417 942 393 971 q 428 874 442 913 q 388 779 411 825 q 340 686 364 733 q 297 603 319 644 q 251 517 275 561 q 265 515 260 517 q 274 515 271 513 q 306 556 290 535 q 339 596 322 576 q 343 602 342 599 q 347 606 344 606 q 372 616 363 608 q 389 634 382 624 q 402 656 396 644 q 417 676 408 667 q 449 715 433 696 q 485 750 465 733 q 542 770 506 768 q 615 761 578 772 q 679 728 651 750 q 711 679 707 707 q 715 608 717 644 q 711 536 714 572 q 704 463 708 500 q 697 390 700 426 q 702 390 700 390 q 707 389 704 389 q 787 499 747 444 q 867 611 826 554 q 877 607 869 610 q 894 601 885 604 q 891 632 888 619 q 902 655 894 644 q 919 674 910 665 q 935 693 928 682 q 967 735 950 715 q 1000 776 983 756 q 1015 790 1007 783 q 1029 803 1022 796 q 1101 880 1065 842 q 1174 958 1138 918 q 1188 983 1183 969 q 1203 1008 1193 997 q 1221 1023 1210 1018 q 1239 1033 1232 1028 q 1219 1060 1228 1049 q 1199 1086 1210 1072 q 1270 1097 1236 1092 q 1338 1106 1304 1103 q 1444 1067 1399 1110 q 1455 1049 1451 1060 q 1458 1026 1458 1038 q 1455 1006 1458 1015 q 1444 993 1451 996 q 1387 958 1413 978 q 1337 916 1361 939 q 1290 869 1313 893 q 1244 822 1268 844 q 1160 740 1201 781 q 1079 654 1118 699 q 996 552 1036 604 q 917 447 956 500 q 833 321 874 385 q 753 192 793 257 q 711 117 729 156 q 674 39 693 78 q 618 -24 649 -14 q 540 3 588 -35 q 494 50 514 22 q 453 106 474 78 q 453 115 450 108 q 461 124 456 121 q 473 133 467 129 q 481 144 479 138 q 481 183 483 163 q 489 218 479 204 q 514 289 511 251 q 524 363 517 326 q 541 458 535 410 q 556 557 547 507 q 367 402 456 482 q 200 228 278 322 q 99 111 151 168 q -7 -4 46 54 q -32 -17 -15 -12 q -60 -19 -49 -22 q -128 7 -97 -11 q -175 65 -160 25 q -191 90 -181 79 q -208 110 -201 100 q -178 139 -192 125 q -149 167 -164 153 q -146 169 -147 168 q -143 171 -144 169 z "},"v":{"ha":581,"x_min":-90,"x_max":1311,"o":"m 560 826 q 583 833 571 831 q 600 842 596 835 q 634 885 618 863 q 667 931 650 907 q 668 933 668 932 q 669 936 668 935 q 736 999 704 968 q 807 1057 768 1031 q 849 1104 838 1081 q 856 1158 860 1128 q 872 1151 863 1156 q 885 1149 882 1146 q 912 1169 897 1158 q 940 1191 926 1181 q 963 1213 953 1201 q 976 1235 974 1224 q 1008 1301 986 1271 q 1042 1364 1031 1331 q 1072 1378 1044 1372 q 1119 1385 1100 1383 q 1174 1383 1147 1386 q 1225 1372 1200 1379 q 1300 1343 1269 1364 q 1310 1328 1308 1339 q 1307 1304 1311 1317 q 1295 1280 1303 1292 q 1276 1264 1288 1268 q 1137 1182 1196 1233 q 1022 1076 1078 1131 q 852 917 936 996 q 693 751 768 838 q 545 564 614 660 q 410 371 476 468 q 288 192 346 282 q 167 10 229 101 q 92 -46 138 -35 q -3 -35 46 -57 q -85 39 -57 -11 q -85 62 -90 49 q -78 89 -81 75 q -67 143 -72 117 q -56 197 -61 169 q -15 325 -46 263 q -1 370 -4 347 q 8 417 1 393 q 18 450 14 433 q 26 483 22 467 q 38 516 31 500 q 56 549 44 532 q 78 602 74 572 q 93 660 83 632 q 134 755 113 708 q 171 850 156 801 q 190 931 185 890 q 204 1014 196 971 q 208 1015 203 1014 q 218 1019 213 1017 q 223 1027 221 1022 q 226 1032 225 1032 q 273 1028 249 1028 q 320 1025 297 1028 q 361 1013 343 1022 q 390 982 379 1004 q 400 947 400 967 q 394 908 400 926 q 349 788 372 847 q 301 667 325 728 q 252 533 276 600 q 203 397 228 465 q 206 381 203 392 q 231 388 224 382 q 241 401 239 393 q 242 419 243 410 q 244 439 242 429 q 278 411 260 426 q 288 462 282 438 q 300 515 293 486 q 316 503 311 507 q 326 497 321 500 q 389 578 358 538 q 451 660 419 619 q 524 732 485 697 q 558 781 546 751 q 560 826 569 810 z "},"u":{"ha":942,"x_min":-64,"x_max":1092,"o":"m 260 1006 q 303 1008 282 1006 q 344 1010 324 1010 q 386 1004 365 1010 q 428 982 407 999 q 463 934 458 956 q 446 876 468 913 q 352 724 401 797 q 260 572 303 651 q 203 444 228 511 q 150 313 178 378 q 147 297 147 306 q 147 274 147 288 q 167 283 158 279 q 182 293 175 286 q 258 378 221 335 q 335 465 294 421 q 347 472 340 469 q 360 481 353 475 q 374 493 365 488 q 391 505 383 499 q 403 521 399 511 q 404 547 407 531 q 415 558 403 551 q 433 571 426 564 q 463 608 449 589 q 494 644 478 628 q 503 657 499 650 q 513 669 507 664 q 527 674 519 674 q 546 668 535 675 l 554 692 q 555 706 556 699 q 557 717 554 713 q 629 801 593 758 q 697 888 665 843 q 734 947 718 915 q 767 1008 750 978 l 785 1040 q 806 1069 793 1056 q 828 1098 818 1083 q 842 1130 839 1113 q 835 1171 844 1147 q 905 1185 871 1178 q 972 1197 939 1193 q 1004 1190 985 1199 q 1042 1169 1024 1182 q 1074 1140 1061 1156 q 1089 1110 1088 1124 q 1085 1059 1092 1085 q 1069 1011 1078 1033 q 1024 909 1047 958 q 978 807 1001 860 q 881 569 932 688 q 777 331 829 450 q 676 91 725 211 q 583 -149 626 -29 q 567 -164 581 -158 q 536 -172 553 -169 q 502 -170 519 -174 q 474 -157 485 -167 q 433 -108 450 -135 q 399 -54 415 -81 q 397 -39 394 -49 q 401 -25 399 -29 q 495 217 454 108 q 559 392 536 325 q 586 475 582 458 q 571 443 590 492 q 551 433 561 436 q 536 422 542 429 q 441 306 488 364 q 346 189 394 247 q 299 141 324 165 q 249 101 275 117 q 133 74 190 69 q 21 132 76 78 q -10 163 6 147 q -39 196 -26 178 q -56 276 -64 236 q -33 356 -49 315 q 5 456 -14 407 q 43 556 24 506 l 46 575 q 103 664 74 619 q 154 757 132 708 q 188 803 167 783 q 213 846 208 824 q 238 906 221 881 q 268 960 256 931 q 267 978 271 967 q 260 1006 263 990 z "},"t":{"ha":357,"x_min":-194,"x_max":1247,"o":"m 906 1411 q 924 1419 914 1415 q 943 1428 935 1424 q 978 1442 961 1435 q 1014 1447 994 1449 q 1053 1438 1033 1447 q 1093 1422 1072 1429 q 1117 1411 1106 1418 q 1142 1397 1129 1404 q 1203 1346 1179 1378 q 1238 1274 1226 1314 q 1235 1224 1247 1242 q 1194 1211 1222 1206 q 1082 1223 1138 1221 q 971 1222 1026 1225 q 860 1215 915 1219 q 750 1211 806 1211 q 716 1209 732 1211 q 681 1208 700 1207 q 633 1197 653 1210 q 600 1160 614 1183 q 565 1096 588 1135 q 519 1015 543 1057 q 474 935 496 974 q 438 871 451 896 q 380 763 414 828 q 310 626 346 697 q 242 489 275 556 q 188 379 208 422 q 101 192 140 288 q 21 -1 61 96 q -5 -87 4 -43 q 1 -185 -14 -132 q 1 -205 6 -193 q -8 -218 -3 -217 q -42 -224 -24 -221 q -72 -219 -60 -226 q -187 -68 -151 -161 q -191 -17 -194 -44 q -181 36 -187 10 q -161 100 -172 68 q -135 160 -150 132 q -103 205 -121 185 q -75 249 -86 225 q -62 269 -69 260 q -49 291 -56 279 q -41 316 -43 303 q -43 346 -39 329 q -42 353 -46 349 q -37 363 -39 358 q -35 367 -37 367 q 0 405 -22 374 q 42 475 22 436 q 72 553 63 514 q 65 615 81 592 q 88 616 78 615 q 108 617 99 617 q 110 632 106 626 q 120 644 115 638 q 126 657 125 650 q 118 676 128 664 q 114 697 114 683 q 119 717 114 710 q 160 766 139 743 q 199 815 181 789 q 213 853 208 831 q 225 893 217 875 q 245 933 231 906 q 276 989 260 960 q 308 1044 293 1018 q 329 1083 324 1071 q 342 1118 338 1099 q 353 1161 346 1138 q 283 1153 315 1156 q 218 1149 250 1151 q 195 1148 207 1147 q 172 1150 183 1149 q 68 1197 111 1153 q 10 1322 25 1242 q 5 1342 8 1333 q -4 1363 1 1351 q 6 1367 1 1365 q 14 1367 10 1369 q 74 1352 44 1354 q 133 1352 104 1350 q 191 1359 163 1354 q 249 1367 219 1364 q 274 1364 260 1368 q 300 1361 288 1360 q 333 1370 317 1364 q 365 1381 350 1376 q 446 1397 406 1392 q 525 1403 486 1400 q 607 1404 564 1406 q 590 1397 596 1399 q 593 1392 593 1394 q 632 1403 613 1397 q 674 1411 651 1408 q 689 1408 681 1413 q 707 1400 697 1403 q 719 1400 717 1397 q 756 1418 736 1414 q 795 1423 775 1422 q 836 1422 815 1424 q 876 1425 857 1421 q 891 1421 883 1426 q 906 1411 899 1415 z "},"s":{"ha":536,"x_min":-164,"x_max":800,"o":"m 499 817 q 519 828 510 824 q 540 839 528 832 l 476 839 q 555 940 517 892 q 629 1036 593 988 q 633 1045 632 1040 q 638 1063 635 1050 q 596 1044 614 1051 q 563 1025 578 1036 q 401 899 476 967 q 260 747 325 832 q 237 710 246 731 q 221 668 228 689 q 222 650 218 661 q 232 635 226 639 q 274 607 253 619 q 317 582 294 594 q 401 511 369 553 q 444 420 433 469 q 442 317 454 371 q 396 210 431 263 q 309 102 356 151 q 199 28 263 53 q 106 -1 154 11 q 11 -10 58 -12 q -91 39 -56 -7 q -150 167 -126 85 q -151 172 -151 169 q -150 178 -150 175 q -154 196 -151 186 q -159 215 -157 206 q -162 230 -161 224 q -161 238 -164 236 q -127 253 -146 249 q -92 256 -108 258 q -66 240 -78 253 q -43 215 -54 228 q -15 194 -29 197 q 18 197 -1 192 q 147 276 96 221 q 240 397 197 331 q 249 453 258 425 q 211 500 240 482 q 133 560 168 526 q 78 646 97 594 q 51 738 57 708 q 49 785 44 767 q 72 822 54 803 q 117 881 89 840 q 178 958 142 921 q 243 1021 214 996 q 333 1099 288 1061 q 426 1174 379 1138 q 533 1217 479 1213 q 644 1197 588 1221 q 697 1170 672 1186 q 746 1139 722 1154 q 785 1097 772 1124 q 799 1041 799 1071 q 789 978 800 1011 q 756 918 778 946 q 715 870 736 893 q 672 826 694 847 q 594 786 633 790 q 499 817 556 782 z "},"r":{"ha":708,"x_min":-149,"x_max":1026,"o":"m 46 603 q 74 597 61 600 q 93 597 86 593 q 118 617 107 604 q 140 640 129 629 q 163 671 153 656 q 186 703 174 686 q 108 756 133 719 q 68 832 82 792 q 106 862 88 847 q 144 892 125 876 l 144 889 q 145 886 144 888 q 146 883 146 885 q 217 977 172 939 q 304 1056 261 1015 q 335 1092 321 1072 q 364 1132 349 1113 l 356 1140 q 394 1144 375 1143 q 433 1151 414 1146 q 491 1174 463 1161 q 549 1194 519 1186 q 622 1217 585 1206 q 697 1229 660 1229 q 810 1226 760 1229 q 899 1214 860 1222 q 982 1177 951 1201 q 1019 1110 1013 1153 q 1009 1003 1026 1067 q 947 847 992 939 q 898 776 928 807 q 833 719 868 744 q 758 674 797 694 q 679 633 718 653 q 594 592 636 613 q 507 553 551 572 q 483 506 474 539 q 533 334 508 419 q 583 164 557 249 q 606 110 592 136 q 633 57 619 83 q 638 10 646 32 q 603 -22 629 -11 q 543 -29 571 -35 q 489 -4 515 -24 q 481 0 485 -1 q 474 4 478 1 q 444 16 454 11 q 430 28 433 21 q 428 48 426 36 q 436 81 431 60 q 439 92 438 86 q 438 100 440 99 q 419 125 425 111 q 412 153 414 139 q 408 183 410 168 q 400 211 406 197 q 357 338 375 274 q 332 468 339 401 q 329 474 331 471 q 328 478 328 476 q 294 473 310 475 q 263 465 278 471 q 235 451 249 460 q 215 432 222 443 q 125 262 169 347 q 36 90 81 176 q 12 65 26 74 q -21 63 -3 56 q -100 108 -68 78 q -143 188 -132 138 q -136 219 -149 210 q -106 233 -124 228 q -87 240 -97 236 q -76 250 -78 243 q -35 340 -65 301 q 19 422 -4 379 q 38 453 28 438 q 53 485 47 468 q 61 519 60 501 q 54 557 63 538 q 49 580 50 568 q 46 603 49 592 m 618 1071 q 556 1044 581 1064 q 515 993 531 1025 q 452 866 483 929 q 392 738 421 803 q 390 719 388 731 q 396 700 393 708 q 407 697 397 697 q 424 700 417 697 q 489 730 457 715 q 553 761 521 744 q 603 794 579 776 q 651 826 626 811 q 696 854 674 842 q 738 883 718 867 q 817 989 800 940 q 815 1067 833 1038 q 744 1100 796 1096 q 618 1071 693 1104 z "},"q":{"ha":783,"x_min":-62,"x_max":915,"o":"m 614 1113 q 601 1156 607 1136 q 588 1196 594 1175 q 587 1195 586 1193 q 590 1199 588 1197 q 687 1200 635 1207 q 785 1172 739 1193 q 864 1115 831 1150 q 906 1029 897 1079 q 898 883 915 963 q 849 724 881 804 q 776 569 817 643 q 701 440 736 496 q 637 355 672 396 q 569 271 601 314 q 558 255 563 264 q 556 235 554 246 q 572 85 558 158 q 618 -64 586 11 q 630 -118 633 -100 q 599 -151 626 -136 q 541 -156 576 -162 q 483 -132 506 -150 q 440 -107 464 -117 q 415 -91 422 -100 q 407 -71 408 -82 q 406 -49 406 -60 q 406 -26 407 -37 q 400 26 403 0 q 394 82 397 53 q 335 51 363 65 q 281 22 307 38 q 188 -1 236 -1 q 96 16 140 0 q 14 61 51 32 q -47 124 -24 90 q -60 153 -58 139 q -60 181 -62 167 q -56 209 -58 194 q -53 240 -53 224 q -33 344 -54 281 q 24 482 -12 407 q 113 638 61 557 q 224 797 164 719 q 350 944 283 875 q 483 1061 417 1013 q 497 1069 490 1065 q 507 1079 504 1074 q 521 1105 511 1097 q 544 1115 531 1113 q 576 1115 558 1117 q 614 1113 593 1114 m 663 988 q 590 922 626 956 q 519 854 554 889 q 337 640 415 754 q 200 399 258 526 q 156 296 176 347 q 115 192 135 244 q 117 167 113 181 q 125 143 122 154 q 153 146 139 146 q 178 153 167 146 q 254 209 217 181 q 325 269 292 238 q 364 307 347 286 q 392 349 381 328 q 408 406 403 376 q 424 464 414 436 q 444 524 433 494 q 467 583 456 554 q 481 582 476 583 q 494 551 488 567 q 508 517 501 535 q 517 528 514 521 q 524 533 521 535 q 556 531 543 528 q 578 542 569 535 q 593 561 588 550 q 604 583 599 572 q 638 657 618 608 q 675 761 657 706 q 706 871 693 817 q 722 962 719 925 q 710 1009 724 999 q 663 988 697 1019 z "},"o":{"ha":851,"x_min":-62,"x_max":1004,"o":"m 261 839 q 267 865 265 853 q 275 885 268 878 q 338 949 306 918 q 400 1014 369 981 q 485 1086 440 1056 q 586 1132 529 1117 q 595 1140 592 1135 q 604 1149 599 1146 q 615 1151 610 1151 q 621 1150 619 1150 q 633 1170 628 1160 q 646 1182 639 1181 q 705 1189 675 1186 q 764 1192 735 1192 q 828 1181 799 1192 q 883 1152 857 1169 q 931 1113 908 1135 q 976 1069 954 1092 q 998 1024 992 1054 q 997 974 1004 994 q 940 822 971 896 q 878 672 908 747 q 865 637 871 654 q 850 604 860 619 q 781 498 817 550 q 717 389 746 446 q 602 228 668 300 q 468 86 536 157 q 389 19 432 49 q 290 -21 346 -10 q 194 -19 238 -32 q 111 29 150 -6 q 49 88 78 56 q 26 174 14 124 q 44 241 36 207 q 64 310 53 275 q 64 335 69 326 q 47 356 58 344 q -5 410 19 382 q -53 465 -29 438 q -60 485 -62 476 q -39 497 -58 494 q -26 504 -32 499 q -14 517 -19 510 q 41 581 14 549 q 94 647 68 614 q 163 735 129 692 q 231 821 196 778 q 247 833 238 829 q 261 839 257 836 m 669 947 q 585 903 621 935 q 513 840 549 872 q 507 829 508 838 q 508 815 506 821 q 496 756 519 783 q 450 699 472 728 q 408 638 428 669 q 369 566 388 603 q 331 493 350 529 q 267 357 294 426 q 224 213 239 288 q 222 195 221 204 q 229 182 224 186 q 243 180 233 179 q 258 185 253 181 q 322 226 290 206 q 381 272 353 247 q 426 325 406 296 q 471 381 447 354 q 564 493 522 433 q 636 619 606 553 q 664 676 649 649 q 692 735 679 704 q 720 808 706 767 q 738 884 735 850 q 726 938 740 918 q 669 947 713 958 z "},"p":{"ha":681,"x_min":-236,"x_max":854,"o":"m -117 113 q -104 133 -108 121 q -97 157 -100 144 q -88 183 -94 169 q -69 207 -82 196 q -41 244 -51 221 q -21 290 -31 268 q -16 319 -14 306 q -24 346 -18 333 q -35 371 -29 358 q -43 397 -42 383 q -49 422 -44 410 q -60 449 -54 433 q -20 438 -37 442 q 15 432 -3 433 q 35 435 24 429 q 49 449 46 442 q 93 537 69 493 q 126 626 117 581 q 152 690 133 665 q 190 742 171 714 q 155 782 172 763 q 122 824 138 801 q 114 846 115 833 q 111 863 113 858 q 144 878 129 872 q 169 893 158 885 q 196 917 185 904 q 221 940 207 929 q 254 985 244 960 q 275 1035 264 1010 q 288 1060 278 1046 q 306 1072 299 1074 q 355 1073 332 1068 q 399 1088 378 1078 q 439 1113 419 1099 q 478 1142 458 1128 q 567 1180 519 1171 q 662 1181 615 1189 q 748 1150 708 1174 q 813 1089 788 1126 q 849 994 843 1044 q 846 890 854 943 q 813 774 839 828 q 756 667 788 719 q 650 525 707 592 q 521 407 593 458 q 354 310 440 350 q 168 260 268 269 q 147 253 158 260 q 132 239 135 247 q 63 88 97 164 q -4 -65 28 13 q -20 -105 -11 -86 q -50 -135 -29 -124 q -72 -139 -58 -139 q -99 -135 -85 -139 q -126 -124 -114 -131 q -144 -108 -139 -117 q -166 -86 -153 -96 q -193 -67 -179 -76 q -208 -53 -203 -60 q -217 -31 -214 -46 q -223 -17 -218 -24 q -231 -4 -228 -11 q -235 10 -235 3 q -229 26 -236 18 q -208 42 -219 36 q -185 56 -196 49 q -175 65 -181 61 q -164 74 -169 68 q -140 93 -153 83 q -117 113 -128 103 m 464 936 q 456 924 458 932 q 450 910 453 917 q 432 860 439 885 q 414 813 425 836 q 334 650 374 731 q 254 486 294 569 q 252 472 251 479 q 251 458 253 465 q 267 457 258 458 q 279 460 275 456 q 297 478 290 467 q 315 497 304 489 q 470 614 396 551 q 594 764 544 676 q 617 806 607 785 q 640 847 628 826 q 688 947 678 911 q 688 999 697 983 q 652 1013 678 1014 q 594 999 626 1011 q 526 970 561 988 q 464 936 492 953 z "},"n":{"ha":853,"x_min":-264,"x_max":1197,"o":"m 613 454 q 660 551 636 503 q 711 644 683 599 q 774 749 740 697 q 838 856 807 801 q 867 917 854 886 q 894 981 881 949 q 913 1015 901 999 q 924 1050 925 1032 q 929 1085 922 1074 q 948 1101 936 1097 q 974 1106 960 1106 q 1003 1110 989 1107 q 1100 1102 1056 1121 q 1175 1044 1144 1083 q 1190 990 1197 1014 q 1172 946 1182 967 q 1068 767 1126 851 q 1026 719 1050 740 q 979 675 1001 699 q 973 669 976 672 q 969 663 969 667 q 955 638 964 646 q 924 638 946 631 q 882 628 896 644 q 858 594 868 613 q 781 436 818 515 q 703 278 743 357 q 696 260 699 269 q 688 244 693 251 q 674 215 679 229 q 668 185 668 200 q 675 156 668 171 q 700 128 682 142 q 681 100 693 108 q 650 85 668 92 q 620 62 632 79 q 596 29 608 44 q 585 4 589 18 q 574 -21 581 -10 q 547 -50 563 -40 q 506 -54 531 -60 q 447 -44 476 -49 q 396 -11 418 -39 q 433 65 415 28 q 471 142 451 103 q 479 160 479 153 q 472 195 476 178 q 464 232 467 213 q 443 340 453 286 q 424 447 433 393 q 412 535 417 492 q 403 624 407 579 q 404 633 401 628 q 408 642 407 638 q 406 645 407 644 q 403 649 404 646 q 390 636 396 642 q 381 624 385 631 q 313 522 347 572 q 251 415 279 471 q 209 347 233 378 q 165 279 185 315 q 122 207 146 242 q 75 136 99 172 q 28 66 51 100 q -19 -4 4 32 q -43 -35 -31 -19 q -67 -65 -56 -50 q -107 -87 -79 -83 q -154 -79 -135 -92 q -190 -56 -176 -65 q -215 -35 -204 -46 q -237 -8 -226 -24 q -264 33 -247 7 q -210 53 -231 38 q -173 90 -189 68 q -143 136 -157 113 q -112 181 -129 160 q -31 297 -65 233 q 44 421 4 361 q 149 589 99 504 q 253 758 200 674 q 289 821 272 789 q 326 881 306 853 q 351 951 353 915 q 329 1026 349 986 q 328 1042 326 1032 q 335 1054 331 1053 q 424 1067 379 1067 q 510 1031 469 1067 q 539 991 528 1015 q 553 944 550 967 q 567 809 563 876 q 579 674 572 742 q 592 563 586 618 q 603 453 597 508 q 608 453 606 453 q 613 454 610 454 z "},"m":{"ha":1090,"x_min":-181,"x_max":1324,"o":"m 151 749 q 188 797 167 774 q 213 849 208 821 q 232 915 217 885 q 258 976 247 944 q 271 1010 264 994 q 283 1043 278 1026 q 285 1066 286 1054 q 283 1089 285 1078 q 274 1093 278 1092 q 290 1112 282 1100 q 307 1122 297 1124 q 365 1119 336 1122 q 422 1106 394 1117 q 445 1078 436 1099 q 461 1039 454 1058 q 472 1002 468 1021 q 479 964 476 983 q 481 864 482 914 q 483 765 481 814 q 486 683 485 725 q 489 601 488 642 q 494 600 492 600 q 501 599 497 600 q 513 606 507 603 q 522 615 518 610 q 635 743 581 679 q 749 869 690 807 q 822 953 786 911 q 901 1031 858 994 q 967 1056 929 1053 q 1043 1039 1004 1058 q 1072 1032 1063 1029 q 1089 1053 1082 1035 q 1107 1095 1096 1075 q 1124 1138 1118 1115 q 1126 1169 1128 1153 q 1125 1207 1125 1186 q 1171 1219 1146 1211 q 1219 1222 1196 1228 q 1306 1175 1288 1210 q 1303 1078 1324 1140 q 1274 1005 1292 1040 q 1240 933 1257 969 q 1182 819 1211 875 q 1122 704 1153 763 q 1033 537 1078 619 q 946 368 988 454 q 858 176 901 272 q 772 -17 815 81 q 769 -26 768 -24 q 755 -95 775 -68 q 708 -142 735 -122 q 683 -173 690 -156 q 665 -207 676 -190 q 644 -219 660 -215 q 617 -221 628 -224 q 579 -209 597 -218 q 546 -189 561 -200 q 526 -165 535 -179 q 507 -139 517 -151 q 493 -146 501 -140 q 515 -119 504 -132 q 536 -94 525 -107 q 550 -60 553 -79 q 543 -21 547 -40 q 549 10 540 -1 q 565 35 557 22 q 592 78 581 56 q 617 122 604 100 q 627 142 624 132 q 639 160 631 153 q 656 188 651 172 q 671 218 661 204 q 688 255 682 235 q 700 294 694 275 q 713 333 706 314 q 733 368 719 353 q 746 372 738 372 q 757 376 754 372 q 765 399 763 388 q 774 426 768 411 q 792 444 782 428 q 800 479 803 461 q 804 506 800 494 q 874 640 839 574 q 942 772 908 706 q 962 810 953 792 q 981 847 971 828 q 969 857 974 854 q 906 796 938 826 q 843 733 875 765 q 678 550 756 646 q 539 344 601 454 q 495 308 524 317 q 432 310 467 300 q 393 317 413 315 q 354 326 374 319 q 330 344 333 332 q 339 371 326 356 q 358 391 349 382 q 375 411 367 400 q 391 434 383 422 q 410 464 399 446 q 385 482 397 474 q 360 500 372 490 q 321 588 317 535 q 322 619 324 603 q 318 651 319 636 q 313 652 315 651 q 307 653 310 653 q 271 583 289 618 q 235 513 253 549 q 128 303 182 408 q 21 94 75 199 q -10 59 6 64 q -62 65 -26 54 q -131 101 -101 78 q -181 147 -160 124 q -154 182 -167 165 q -128 214 -142 199 q -108 238 -117 226 q -87 261 -99 250 q -74 285 -79 269 q -60 324 -67 304 q -46 363 -53 343 q -42 369 -43 365 q -39 375 -42 374 q -2 395 -14 381 q 17 428 10 410 q 29 467 24 447 q 47 503 35 488 q 86 560 71 529 q 119 621 101 590 q 147 672 133 647 q 172 725 160 697 q 170 734 175 728 q 163 747 165 740 q 151 749 156 747 z "},"a":{"ha":799,"x_min":-172,"x_max":1058,"o":"m 385 319 q 384 342 385 329 q 382 371 383 354 l 307 342 q 208 301 258 321 q 110 258 158 282 q 83 236 94 251 q 60 206 71 221 q 26 157 43 182 q -6 107 10 132 q -40 76 -19 83 q -81 75 -61 69 q -120 96 -101 82 q -157 125 -139 110 q -167 151 -172 138 q -150 176 -161 165 q -124 202 -139 190 q -99 229 -110 214 q -74 264 -85 246 q -51 301 -62 282 q -49 317 -47 308 q -49 336 -50 326 q -47 355 -47 344 q -42 371 -47 365 q -9 394 -26 383 q 24 418 8 404 q 64 456 44 436 q 103 494 83 475 q 149 544 126 519 q 193 596 171 569 q 206 617 201 606 q 218 640 211 629 q 224 644 219 643 q 231 647 228 644 q 244 663 238 654 q 257 682 251 671 q 300 710 282 693 q 324 758 318 726 q 338 753 338 753 q 472 899 406 828 q 600 1038 538 969 q 565 1069 583 1053 q 532 1100 547 1086 q 592 1145 564 1124 q 649 1186 621 1167 q 661 1197 656 1192 q 674 1207 667 1203 q 769 1276 726 1236 q 853 1356 811 1315 q 876 1368 865 1369 q 897 1356 886 1367 q 916 1342 906 1346 q 939 1335 926 1339 q 999 1306 971 1324 q 1056 1269 1028 1289 q 1056 1256 1058 1268 q 1050 1238 1054 1244 q 991 1131 1021 1185 q 932 1025 961 1078 q 816 817 874 921 q 700 608 758 713 q 723 585 711 596 q 744 561 735 574 q 759 534 754 549 q 761 500 764 519 q 713 490 738 494 q 665 476 689 485 q 641 462 653 471 q 624 442 629 453 q 543 263 581 353 q 482 75 506 172 q 453 26 472 36 q 397 31 433 15 q 341 59 367 42 q 306 113 315 76 q 301 121 304 115 q 297 131 299 126 q 300 139 296 136 q 317 142 304 142 q 322 151 319 142 q 326 167 324 160 q 342 224 335 196 q 358 281 349 253 q 369 300 361 292 q 385 319 378 308 m 664 825 q 627 843 643 849 q 597 824 611 838 l 351 574 q 329 551 340 563 q 307 528 318 539 q 333 525 322 521 q 397 551 365 539 q 458 579 429 563 q 505 613 483 594 q 549 650 526 631 q 551 658 551 653 q 551 668 550 663 q 554 685 553 675 q 558 696 556 696 q 579 701 572 696 q 590 715 586 707 q 593 731 593 722 q 594 747 593 739 q 615 797 597 775 q 664 825 632 818 z "},"b":{"ha":885,"x_min":-229,"x_max":1094,"o":"m 290 951 q 276 1017 283 985 q 260 1085 268 1050 q 373 1141 317 1113 q 486 1200 429 1169 q 503 1214 496 1206 q 521 1229 511 1222 q 549 1247 535 1238 q 578 1256 564 1257 q 618 1258 599 1254 q 656 1270 638 1263 q 691 1286 674 1278 q 728 1300 708 1294 q 805 1317 765 1310 q 881 1323 844 1325 q 951 1307 918 1321 q 1006 1260 983 1293 q 1067 1155 1040 1208 q 1094 1044 1094 1101 q 1056 926 1093 988 q 922 800 1018 865 q 812 731 868 764 q 699 664 756 699 q 688 655 693 660 q 672 643 682 650 q 702 627 689 635 q 729 614 715 619 q 806 560 782 593 q 833 492 831 528 q 821 420 836 456 q 781 356 806 385 q 658 246 725 292 q 519 157 590 200 q 417 95 468 125 q 311 40 365 65 q 147 -34 229 1 q -26 -79 65 -69 q -57 -81 -42 -81 q -87 -82 -72 -81 q -179 -51 -140 -86 q -225 44 -218 -15 q -227 55 -226 50 q -229 67 -228 60 q -173 81 -196 85 q -149 53 -150 78 q -104 65 -125 60 q -61 78 -83 71 q -85 107 -74 94 q -103 135 -96 119 q -116 164 -111 149 q -128 194 -121 179 q -91 229 -108 213 q -54 264 -74 246 q -38 290 -39 278 q -61 313 -37 301 q -15 392 -37 353 q 31 468 7 431 q 80 542 54 506 q 131 615 106 579 l 226 753 l 335 903 q 308 925 321 914 q 282 947 294 936 l 290 951 m 150 143 q 161 156 157 150 q 172 165 165 163 q 219 189 196 178 q 267 214 243 200 q 348 261 307 238 q 428 311 389 285 q 516 374 472 342 q 603 439 560 406 q 629 463 617 450 q 651 490 642 475 q 659 501 654 494 q 667 515 664 508 q 667 528 669 522 q 654 538 665 535 q 611 549 633 543 q 567 556 589 556 q 524 552 546 557 q 479 532 501 547 q 426 501 454 514 q 369 474 397 489 q 314 447 342 460 q 265 414 286 435 q 217 353 238 386 q 174 288 196 319 q 124 214 149 251 q 75 139 100 176 q 83 128 78 136 q 109 140 96 135 q 138 151 122 144 q 144 148 140 150 q 150 143 147 146 m 507 763 q 515 760 513 761 q 518 760 517 760 q 627 831 572 796 q 736 903 682 867 q 760 922 749 911 q 785 936 771 932 q 872 1015 843 975 q 897 1081 901 1054 q 851 1116 892 1108 q 732 1100 811 1124 q 674 1053 693 1088 q 626 964 650 1008 q 576 875 601 919 q 543 819 561 847 q 507 763 525 792 z "},"c":{"ha":926,"x_min":-101,"x_max":1042,"o":"m 146 -29 q 159 -31 153 -31 q 172 -33 165 -32 q 142 -15 158 -21 q 110 -8 126 -10 q 76 -5 93 -6 q 42 -1 58 -4 q 58 8 50 3 q 81 19 67 13 q 56 38 67 29 q 35 51 46 46 q -81 174 -42 92 q -92 259 -101 219 q -49 335 -82 299 q -34 359 -39 346 q -22 386 -29 372 q 2 446 -10 415 q 29 504 14 476 q 65 572 46 539 q 101 638 83 604 q 107 652 104 644 q 114 667 110 660 q 122 681 118 674 q 133 696 126 689 q 169 728 151 713 q 206 761 188 744 q 214 781 214 769 q 226 815 213 804 q 257 835 239 825 q 279 850 269 842 q 300 867 289 858 q 329 892 315 881 q 351 918 343 903 q 381 960 364 942 q 424 992 397 979 q 444 1012 436 999 q 464 1035 453 1025 q 580 1115 522 1075 q 694 1196 638 1154 q 776 1236 735 1225 q 856 1244 817 1247 q 932 1228 896 1242 q 997 1194 968 1214 q 1031 1158 1021 1179 q 1033 1113 1042 1138 q 1001 1031 1018 1071 q 965 951 983 992 q 956 935 961 943 q 944 918 950 926 q 907 886 929 892 q 856 889 885 881 q 833 900 843 893 q 814 915 822 907 q 797 933 806 924 q 779 949 789 942 q 777 965 775 951 q 785 986 779 978 q 808 1021 796 1004 q 831 1058 821 1038 q 787 1027 808 1042 q 746 993 765 1013 q 613 865 679 929 q 485 735 547 801 q 372 609 426 672 q 269 478 318 546 q 183 333 221 408 q 131 174 146 258 q 130 164 129 169 q 131 146 131 158 q 194 167 164 157 q 253 190 225 178 q 316 222 285 206 q 378 254 347 238 q 394 271 388 261 q 408 288 400 281 q 496 359 453 324 q 583 431 539 394 q 641 481 613 456 q 697 533 669 507 q 720 560 710 546 q 738 590 731 575 q 755 614 744 607 q 777 622 765 621 q 801 619 789 622 q 822 615 813 617 q 878 594 850 608 q 932 565 906 581 q 953 527 954 551 q 933 485 953 503 q 847 402 889 444 q 760 319 804 360 q 636 208 697 263 q 508 101 575 154 q 388 18 450 56 q 254 -39 326 -19 q 209 -47 232 -46 q 163 -50 186 -47 q 151 -46 157 -50 q 140 -39 146 -42 q 146 -29 142 -33 z "},"d":{"ha":857,"x_min":-242,"x_max":1047,"o":"m -242 104 l -140 104 q -110 188 -124 149 q -69 264 -97 228 q -42 300 -56 283 q -7 329 -28 317 q -1 338 -4 332 q 3 347 3 343 q 26 422 4 390 q 72 483 49 453 q 80 502 79 490 q 86 522 81 514 q 124 576 106 550 q 163 631 143 603 q 171 648 168 639 q 178 665 174 657 q 207 731 193 697 q 243 793 221 765 q 267 824 258 810 q 272 860 275 839 q 229 849 250 854 q 186 840 208 843 q 156 847 167 836 q 140 875 146 858 q 131 901 136 888 q 121 931 126 915 q 138 947 129 938 q 157 965 147 956 q 163 974 160 968 q 164 982 167 979 q 156 1001 156 994 q 162 1011 157 1007 q 174 1017 167 1015 q 188 1022 182 1019 q 249 1059 219 1040 q 311 1094 279 1078 q 343 1115 326 1104 q 378 1128 360 1125 q 440 1159 418 1135 q 476 1217 461 1183 q 520 1263 492 1253 q 581 1249 549 1272 q 619 1220 600 1235 q 639 1175 638 1206 q 647 1166 639 1171 q 661 1158 654 1161 q 790 1122 728 1143 q 906 1057 853 1101 q 1041 833 1035 943 q 929 589 1047 722 q 691 363 821 465 q 436 164 561 260 q 298 77 368 118 q 157 -4 228 36 q 49 -42 104 -33 q -68 -35 -6 -50 q -137 -20 -104 -26 q -194 19 -171 -14 q -216 56 -206 36 q -242 104 -226 76 m 142 265 q 151 260 147 263 q 158 258 156 257 q 306 328 228 285 q 460 424 385 372 q 605 533 536 476 q 724 643 674 590 q 847 892 867 794 q 625 1014 826 989 q 577 1008 597 1017 q 546 971 557 999 q 526 933 538 951 q 503 896 514 915 q 381 686 442 790 q 258 476 319 582 q 201 373 229 425 q 142 265 172 321 z "},"e":{"ha":750,"x_min":-272,"x_max":961,"o":"m 954 957 q 788 951 867 954 q 629 949 708 949 q 585 935 601 949 q 554 903 568 922 q 500 824 526 864 q 443 742 474 785 q 527 740 488 740 q 607 721 567 740 q 671 671 647 701 q 690 588 694 640 q 660 585 675 588 q 629 585 644 582 q 475 585 550 596 q 324 558 400 574 q 313 553 318 556 q 304 544 307 550 q 235 444 269 494 q 168 344 201 394 q 161 328 163 338 q 158 310 160 319 q 191 332 174 326 q 231 335 208 338 q 267 339 249 332 q 303 350 285 346 q 336 357 319 353 q 369 364 353 361 q 383 366 376 365 q 393 364 389 367 q 426 344 410 353 q 459 324 443 335 q 489 301 475 314 q 513 268 503 288 q 511 223 524 242 q 469 207 499 204 q 329 203 397 215 q 194 168 261 190 q 78 122 135 149 q -36 72 22 96 q -92 49 -64 61 q -149 31 -119 38 q -212 44 -182 24 q -253 97 -242 65 q -262 124 -257 110 q -272 153 -267 138 q -241 163 -257 158 q -210 172 -225 167 q -197 181 -203 175 q -185 193 -192 186 q -156 220 -169 207 q -126 244 -142 233 l -101 282 q -74 315 -87 299 q -47 347 -61 332 q -13 388 -31 368 q 19 429 4 408 q 53 474 38 453 q 81 514 68 496 q 45 583 61 550 q 11 653 29 617 q 74 663 43 660 q 133 679 106 665 q 199 712 165 694 q 250 771 232 729 q 292 846 265 811 q 346 919 319 881 q 335 921 339 921 q 328 921 331 921 q 269 931 296 919 q 222 962 243 943 q 185 1005 200 981 q 164 1054 171 1029 q 167 1066 163 1058 q 175 1074 172 1074 q 326 1081 250 1078 q 478 1090 401 1085 q 638 1106 558 1097 q 800 1122 718 1114 q 846 1117 821 1124 q 894 1096 871 1110 q 934 1063 917 1082 q 957 1024 951 1044 q 958 989 961 1007 q 954 957 956 971 z "},"f":{"ha":708,"x_min":-203,"x_max":1221,"o":"m 475 842 q 492 838 490 838 q 543 847 518 847 q 592 838 568 846 q 638 820 615 831 q 683 801 660 810 q 706 784 694 797 q 725 755 717 771 q 738 724 733 739 q 739 700 742 708 q 697 674 729 667 q 626 681 661 681 q 555 679 590 682 q 483 672 519 676 q 413 665 447 667 q 339 621 363 663 q 226 440 283 529 q 118 258 169 351 q 38 101 75 181 q -35 -60 1 21 q -97 -101 -54 -101 q -149 -64 -133 -101 q -156 -62 -150 -61 q -167 -60 -162 -62 q -183 -39 -175 -56 q -197 -3 -192 -22 q -202 33 -201 15 q -196 56 -203 50 q -188 68 -190 60 q -183 83 -186 76 q -172 93 -179 90 q -153 90 -165 96 q -150 94 -151 92 q -149 99 -149 97 q -147 103 -149 100 q -99 198 -122 150 q -50 293 -76 246 q 2 382 -25 338 q 56 471 29 426 q 91 535 74 503 q 128 603 108 568 q 63 609 92 603 q 14 649 33 615 q -11 700 -1 675 q -15 754 -21 725 q 51 758 18 757 q 117 767 85 760 q 162 776 139 771 q 206 788 185 781 q 247 808 228 796 q 281 839 265 819 q 344 937 315 886 q 404 1039 374 988 q 431 1090 419 1064 q 458 1147 443 1117 q 411 1152 435 1153 q 366 1153 388 1151 q 325 1164 344 1156 q 290 1193 306 1172 q 263 1255 269 1222 q 260 1325 257 1288 q 282 1324 271 1324 q 303 1319 293 1324 q 401 1303 351 1296 q 497 1321 451 1310 q 614 1337 556 1333 q 731 1347 672 1340 q 778 1358 754 1350 q 825 1365 801 1367 q 938 1371 883 1361 q 1050 1376 993 1381 q 1105 1360 1078 1374 q 1160 1332 1132 1346 q 1214 1257 1203 1313 q 1209 1212 1221 1222 q 1163 1204 1197 1201 q 1029 1210 1096 1208 q 894 1211 963 1213 q 809 1206 851 1211 q 724 1199 767 1201 q 678 1186 696 1196 q 647 1149 661 1176 q 574 1015 613 1081 q 497 882 536 949 q 487 863 492 872 q 475 842 482 853 z "},"g":{"ha":971,"x_min":-97,"x_max":1046,"o":"m 592 1106 q 681 1158 633 1138 q 781 1168 729 1179 q 893 1130 839 1154 q 999 1075 947 1106 q 1031 1041 1019 1063 q 1044 994 1042 1019 q 1040 944 1046 969 q 1019 897 1033 918 q 965 826 993 861 q 908 756 938 790 q 800 735 865 703 q 791 738 796 738 q 783 740 786 738 q 760 759 772 750 q 746 779 747 768 q 751 810 743 794 q 783 826 760 825 q 796 831 793 826 q 836 902 822 868 q 846 953 850 936 q 817 965 842 971 q 739 919 792 960 q 535 763 636 840 q 336 599 433 685 q 197 448 257 531 q 96 268 136 365 q 79 201 83 236 q 68 132 75 167 q 72 116 67 125 q 83 104 78 107 q 99 106 90 101 q 115 115 108 111 q 135 128 126 121 q 156 140 144 136 q 219 170 190 151 q 274 212 247 189 q 325 258 300 235 q 378 304 350 282 q 401 325 389 314 q 428 350 413 336 q 400 358 407 357 q 333 386 364 361 q 296 446 303 411 q 299 482 290 472 q 331 494 307 492 q 363 503 347 497 q 396 514 379 510 q 460 530 428 522 q 525 547 493 538 q 555 557 540 551 q 585 568 569 563 q 612 578 599 574 q 639 586 625 583 q 722 605 681 596 q 807 621 764 614 q 838 620 822 624 q 869 611 854 617 q 919 594 894 603 q 967 571 944 585 q 990 544 981 561 q 1001 511 999 526 q 992 483 1004 496 q 960 472 981 471 q 914 474 936 472 q 868 476 892 475 q 838 450 844 476 q 821 413 831 431 q 797 381 811 394 q 635 192 713 289 q 490 -10 558 94 q 428 -119 456 -62 q 393 -242 401 -176 q 365 -281 389 -269 q 315 -281 342 -293 q 261 -234 279 -265 q 244 -162 243 -203 q 244 -135 244 -149 q 240 -100 243 -121 q 247 -111 244 -108 q 250 -117 249 -114 q 259 -86 249 -99 q 281 -62 269 -74 q 301 -37 292 -50 q 306 -3 310 -24 q 315 21 304 8 q 333 46 326 33 q 342 40 339 43 q 329 35 335 38 q 318 31 324 33 q 228 -17 274 3 q 129 -37 182 -36 q 76 -28 104 -39 q 21 0 47 -18 q -26 40 -6 18 q -57 83 -47 61 q -69 109 -62 97 q -82 135 -76 121 q -96 192 -94 164 q -92 248 -97 221 q -77 301 -86 275 q -57 354 -68 328 q 14 488 -28 425 q 104 610 56 550 q 181 707 143 658 q 260 801 219 756 q 306 845 281 825 q 356 888 332 865 q 383 919 371 903 q 411 949 396 935 q 463 988 436 969 q 515 1025 489 1006 q 550 1047 532 1036 q 583 1071 568 1058 q 589 1085 589 1075 q 592 1106 589 1096 z "},"h":{"ha":792,"x_min":-303,"x_max":1119,"o":"m 864 1007 q 853 1010 858 1010 q 840 1014 847 1011 q 878 1070 860 1042 q 915 1131 896 1099 q 927 1165 919 1147 q 941 1203 935 1183 q 949 1242 947 1222 q 942 1285 950 1263 q 967 1284 957 1285 q 989 1285 978 1283 q 1041 1281 1015 1289 q 1085 1256 1067 1274 q 1112 1215 1104 1239 q 1108 1161 1119 1190 q 1065 1052 1088 1106 q 1014 947 1042 999 q 916 775 967 860 q 814 606 865 690 q 730 472 774 538 q 647 338 686 407 q 601 240 621 290 q 561 139 581 189 q 533 101 550 113 q 488 100 515 90 q 385 197 410 122 q 374 224 381 211 q 364 246 368 236 q 382 270 375 258 q 400 289 389 282 q 417 308 411 297 q 425 331 422 319 q 431 353 428 343 q 440 371 433 364 q 475 412 461 389 q 501 458 489 435 q 527 503 514 481 q 560 546 540 526 q 571 569 568 554 q 574 597 574 583 q 558 605 572 600 q 535 608 544 610 q 407 592 471 600 q 281 571 343 583 q 251 557 265 568 q 229 532 238 546 q 89 294 158 413 q -50 54 19 175 q -83 -10 -68 22 q -115 -74 -99 -42 q -152 -115 -131 -103 q -196 -126 -174 -126 q -240 -112 -218 -125 q -275 -81 -261 -100 q -293 -56 -287 -65 q -301 -41 -299 -47 q -301 -28 -303 -35 q -294 -11 -299 -22 q -288 -19 -292 -15 q -282 -26 -285 -22 q -244 47 -262 11 q -207 117 -226 82 q -199 121 -204 119 q -190 125 -194 122 q -167 147 -174 132 q -169 181 -161 163 q -136 236 -124 190 q -131 255 -139 243 q -117 269 -124 267 q -87 293 -99 279 q -67 323 -75 307 q -53 356 -58 339 q -39 390 -47 374 q -35 403 -36 396 q -31 411 -35 410 q 15 456 3 426 q 42 514 26 486 q 43 539 47 524 q 32 565 39 554 q 2 615 18 590 q -33 668 -14 640 q 22 672 -3 671 q 69 676 46 674 q 110 683 89 679 q 147 696 131 686 q 169 717 160 703 q 186 744 179 731 q 199 777 194 760 q 210 811 203 794 q 210 817 210 814 q 211 821 210 819 q 250 872 236 843 q 274 930 264 900 q 295 990 285 960 q 324 1046 306 1019 q 339 1064 331 1056 q 354 1081 347 1072 q 353 1095 354 1088 q 354 1110 351 1103 q 382 1170 368 1140 q 408 1231 396 1200 q 410 1252 413 1240 q 408 1276 408 1264 q 458 1293 431 1292 q 509 1285 485 1294 q 551 1256 533 1276 q 575 1210 569 1236 q 575 1198 576 1204 q 571 1186 574 1192 q 490 1016 531 1100 q 410 847 450 932 q 379 790 396 818 q 344 729 363 761 q 389 735 371 731 q 492 747 440 742 q 594 760 543 753 q 618 756 607 760 q 685 746 663 738 q 732 797 708 754 q 763 849 747 824 q 796 899 779 874 q 801 906 799 901 q 804 913 804 910 q 819 968 807 944 q 864 1007 832 992 z "},"i":{"ha":374,"x_min":-72,"x_max":585,"o":"m -72 236 q -53 237 -61 236 q -39 238 -46 238 q 0 315 -19 278 q 39 390 19 353 q 63 439 49 408 q 94 502 78 469 q 126 565 111 535 q 153 614 142 596 q 163 628 157 621 q 176 641 169 635 q 187 652 182 647 q 190 660 192 657 q 188 681 185 672 q 197 695 190 689 q 210 708 203 701 q 218 726 217 715 q 239 785 222 757 q 271 842 256 814 q 338 969 304 906 q 403 1096 371 1032 q 406 1121 408 1107 q 406 1147 403 1135 q 413 1169 408 1157 q 422 1182 417 1182 q 460 1181 438 1183 q 506 1173 483 1179 q 549 1155 529 1167 q 576 1125 568 1143 q 583 1097 582 1113 q 582 1068 585 1082 q 553 983 571 1024 q 515 903 536 943 q 473 825 494 864 q 431 747 451 786 q 373 632 404 696 q 309 501 342 568 q 245 371 276 435 q 189 256 214 307 q 170 197 175 228 q 158 136 165 165 q 149 117 156 126 q 132 99 142 107 q 111 88 122 92 q 90 88 100 85 q 21 115 56 100 q -47 146 -14 131 q -59 160 -54 149 q -67 181 -64 171 q -69 207 -69 193 q -72 236 -69 221 z "},"j":{"ha":603,"x_min":-557,"x_max":907,"o":"m 296 465 q 301 476 299 474 q 303 479 304 476 q 339 579 321 529 q 375 679 357 629 q 381 698 378 689 q 392 722 385 707 q 315 697 350 708 q 246 672 279 685 q 158 660 201 656 q 69 700 114 665 q 19 744 42 721 q -15 800 -3 768 q 83 802 39 789 q 168 832 126 815 q 275 875 221 854 q 383 917 329 896 q 415 929 400 922 q 442 945 431 936 q 460 967 454 954 q 465 997 467 979 q 528 995 499 997 q 586 999 558 993 q 618 1014 603 1001 q 644 1040 633 1026 q 685 1059 661 1060 q 729 1054 708 1058 q 788 1038 758 1049 q 846 1014 818 1026 q 888 982 874 1003 q 904 938 901 961 q 889 906 907 914 q 851 893 871 899 q 763 865 807 879 q 676 833 719 850 q 656 819 665 829 q 642 799 647 810 q 502 465 571 632 q 357 135 433 299 q 251 -70 308 29 q 131 -268 193 -169 q 77 -335 110 -304 q 13 -393 44 -365 q -37 -417 -6 -410 q -107 -425 -69 -425 q -181 -416 -144 -425 q -247 -390 -218 -407 q -310 -347 -281 -371 q -368 -300 -339 -324 q -437 -243 -403 -272 q -506 -186 -471 -214 q -532 -158 -519 -172 q -557 -124 -544 -143 q -506 -131 -531 -126 q -456 -137 -482 -135 q -392 -153 -422 -142 q -331 -181 -362 -165 q -237 -217 -286 -203 q -140 -246 -189 -231 q -112 -247 -126 -250 q -85 -235 -97 -243 q -62 -215 -72 -226 q -46 -193 -51 -204 q -27 -160 -35 -176 q -3 -129 -19 -143 q 51 -62 29 -100 q 92 15 72 -24 q 95 30 94 22 q 98 44 96 38 q 105 57 100 51 q 121 65 110 63 q 123 80 125 67 q 122 104 121 93 q 155 132 138 110 q 185 181 172 154 q 206 233 199 207 q 208 272 213 258 q 241 308 226 292 q 274 344 256 324 q 253 342 261 342 q 238 340 244 342 q 233 344 235 343 q 231 349 232 346 q 245 361 238 356 q 258 374 253 367 q 265 390 263 381 q 272 411 268 400 q 300 419 296 406 q 303 450 304 432 q 296 465 300 460 z "},"k":{"ha":825,"x_min":-274,"x_max":1111,"o":"m 29 538 q 20 562 18 551 q 29 582 22 572 q 45 600 36 592 q 60 617 54 608 q 133 731 94 676 q 208 844 171 786 q 228 880 219 861 q 246 917 236 899 q 255 935 250 926 q 267 953 260 943 q 283 1001 247 972 q 290 1020 290 1007 q 290 1044 290 1033 q 362 1131 322 1090 q 440 1212 401 1171 q 511 1299 478 1253 q 564 1401 544 1344 q 589 1397 576 1400 q 613 1397 601 1394 q 675 1398 647 1410 q 724 1365 703 1386 q 735 1335 733 1356 q 731 1300 736 1314 q 658 1150 701 1224 q 608 1069 635 1108 q 556 990 582 1031 q 534 960 546 975 q 518 931 522 946 q 515 890 513 911 q 517 842 517 868 q 537 851 531 849 q 547 857 543 854 q 681 938 614 897 q 814 1021 747 979 q 822 1028 818 1024 q 831 1036 826 1033 q 847 1051 838 1043 q 860 1058 856 1060 q 926 1058 899 1044 q 979 1096 953 1072 q 992 1103 983 1100 q 1004 1103 1001 1106 q 1056 1069 1031 1086 q 1101 1028 1082 1051 q 1110 992 1111 1017 q 1100 954 1108 968 q 1069 929 1089 939 q 1031 908 1050 919 q 915 849 972 878 q 799 790 857 819 q 758 772 779 779 q 718 753 738 764 q 645 717 682 735 q 572 679 608 699 q 560 665 565 676 q 556 646 554 653 q 613 436 583 540 q 669 226 642 332 q 669 201 672 215 q 660 179 667 186 q 624 159 647 165 q 574 153 600 153 q 524 159 549 153 q 488 178 500 165 q 471 199 476 189 q 485 222 465 208 q 487 231 488 224 q 485 244 486 238 q 443 403 464 324 q 400 565 422 482 q 382 553 390 558 q 364 543 374 547 q 289 513 326 528 q 214 482 251 497 q 200 475 207 479 q 190 465 193 471 q 158 406 174 436 q 128 346 143 376 q 81 254 104 300 q 35 161 58 208 q 10 113 22 138 q -18 64 -3 88 q -29 53 -21 57 q -46 47 -37 50 q -77 35 -64 43 q -96 6 -90 26 q -115 -18 -101 -14 q -146 -17 -128 -22 q -165 -15 -156 -14 q -186 -17 -175 -15 q -211 -24 -199 -19 q -235 -26 -224 -28 q -256 -19 -244 -25 q -271 -7 -267 -14 q -269 10 -274 0 q -260 29 -264 21 q -222 99 -240 65 q -186 168 -204 133 q -156 229 -171 199 q -126 290 -142 260 q -75 390 -100 340 q -22 488 -50 439 q 0 512 -14 501 q 29 538 14 522 z "},"l":{"ha":656,"x_min":-258,"x_max":693,"o":"m 108 175 q 247 202 181 190 q 381 231 314 214 q 481 233 433 244 q 572 197 528 222 q 606 161 593 186 q 614 114 618 136 q 587 83 607 85 q 547 81 567 81 q 297 58 418 86 q 57 -18 175 29 q 31 -46 46 -36 q -2 -62 15 -56 q -37 -74 -19 -68 q -69 -93 -56 -81 q -123 -119 -96 -117 q -189 -87 -150 -122 q -224 -46 -208 -68 q -258 0 -239 -24 q -195 31 -225 17 q -133 61 -165 46 q -146 92 -146 79 q -140 117 -146 106 q -125 140 -133 129 q -112 161 -117 150 q -94 190 -108 176 q -71 218 -81 203 q -65 233 -65 225 q -68 250 -65 242 q -33 296 -50 274 q 4 342 -15 318 q 7 385 -1 364 q 35 426 15 406 q 74 483 57 453 q 110 543 92 513 q 132 585 122 564 q 168 618 142 607 q 183 628 179 622 q 185 642 186 635 q 181 657 185 650 q 175 671 178 664 q 160 697 168 685 q 144 722 151 708 q 178 781 119 774 q 196 790 189 781 q 260 866 228 828 q 324 942 292 904 q 371 1001 347 969 q 435 1090 403 1046 q 500 1179 468 1135 q 506 1188 503 1183 q 508 1194 510 1192 q 506 1221 503 1210 q 516 1241 508 1232 q 533 1258 524 1250 q 549 1275 542 1267 q 563 1279 553 1279 q 579 1279 572 1279 q 638 1264 613 1276 q 678 1231 664 1251 q 692 1183 692 1210 q 676 1125 693 1156 q 578 960 632 1039 q 469 803 525 882 q 358 632 411 719 q 251 456 304 544 q 183 329 215 393 q 118 201 151 265 q 114 192 115 197 q 108 175 113 186 z "},"!":{"ha":411,"x_min":-68,"x_max":772,"o":"m 568 1297 q 560 1304 564 1301 q 550 1311 556 1307 q 621 1314 588 1335 q 634 1309 626 1311 q 644 1310 642 1307 q 673 1322 660 1321 q 699 1317 686 1322 q 722 1304 711 1313 q 743 1289 732 1296 q 770 1242 768 1274 q 753 1185 772 1210 q 653 1049 703 1117 q 554 911 603 982 q 499 826 525 869 q 446 738 474 782 q 331 550 388 643 q 218 361 275 457 q 194 333 210 346 q 159 310 178 319 q 120 297 140 300 q 83 297 100 293 q 58 313 65 303 q 56 343 50 324 q 55 360 58 351 q 47 378 51 369 q 38 391 43 385 q 25 406 32 397 q 92 497 68 447 q 140 597 117 546 q 179 663 156 632 q 222 726 203 694 q 229 747 228 736 q 235 767 231 757 q 244 788 239 778 q 257 808 250 797 q 338 932 297 871 q 421 1056 379 993 q 460 1113 440 1085 q 500 1168 481 1140 q 504 1189 504 1176 q 523 1249 501 1225 q 568 1297 544 1274 m -58 115 q -31 119 -33 114 q -39 160 -28 125 q 52 201 6 183 q 153 207 99 218 q 194 183 185 200 q 183 132 204 167 q 157 92 172 111 q 126 53 142 72 q 107 23 115 39 q 85 -4 99 7 q 42 -21 65 -18 q -4 -17 18 -24 q -44 6 -26 -10 q -68 42 -61 21 q -63 78 -65 60 q -58 115 -61 96 z "},"\"":{"ha":656,"x_min":133,"x_max":726,"o":"m 171 632 q 161 628 165 629 q 151 625 157 626 q 140 626 150 624 q 176 671 158 650 q 208 715 193 692 q 267 817 239 767 q 324 919 296 868 q 324 935 326 926 q 319 953 322 944 q 319 981 317 969 q 347 986 322 993 q 394 974 369 979 q 438 956 418 968 q 478 899 474 931 q 458 819 483 868 q 403 724 432 771 q 342 631 374 676 q 302 597 326 608 q 250 586 278 586 q 228 583 239 586 q 208 579 218 579 q 174 582 192 579 q 133 588 157 585 q 156 612 147 603 q 171 628 164 621 q 171 632 171 632 m 414 632 q 404 628 408 629 q 394 625 400 626 q 383 626 393 624 q 419 671 401 650 q 451 715 436 692 q 510 817 482 767 q 567 919 539 868 q 567 935 569 926 q 563 953 565 944 q 563 981 560 969 q 590 986 565 993 q 637 974 613 979 q 681 956 661 968 q 722 899 717 931 q 701 819 726 868 q 646 724 675 771 q 585 631 617 676 q 545 597 569 608 q 493 586 521 586 q 472 583 482 586 q 451 579 461 579 q 417 582 435 579 q 376 588 400 585 q 399 612 390 603 q 414 628 407 621 q 414 632 414 632 z "},"#":{"ha":1040,"x_min":-35,"x_max":976,"o":"m 465 653 q 508 662 488 657 q 551 671 529 667 q 572 676 563 674 q 593 681 582 678 q 628 688 615 685 q 647 699 640 692 q 658 717 654 706 q 667 749 663 728 q 711 758 690 754 q 754 768 732 763 q 809 763 782 775 q 851 728 836 751 q 868 714 858 719 q 889 703 878 708 q 909 697 899 699 q 928 688 919 694 q 960 664 943 676 q 972 625 976 651 q 945 588 968 601 q 894 571 922 574 q 839 567 867 568 q 783 563 811 567 q 763 553 772 561 q 738 535 753 544 q 796 526 769 529 q 846 517 822 524 q 896 488 876 508 q 913 447 915 467 q 889 409 910 422 q 832 390 868 396 q 737 374 783 383 q 642 354 690 365 q 607 328 619 349 q 553 238 579 283 q 501 147 526 193 q 460 110 488 124 q 404 106 432 97 q 380 117 392 108 q 360 139 368 126 q 348 165 351 151 q 349 190 344 178 q 371 235 356 214 q 401 285 386 257 q 341 273 368 278 q 286 263 314 268 q 265 256 275 260 q 244 253 256 253 q 184 235 206 256 q 147 183 163 215 q 135 167 143 175 q 119 153 126 160 q 87 135 104 138 q 54 143 69 132 q 34 167 43 151 q 26 197 25 183 q 29 228 28 214 q 27 257 31 243 q 15 283 24 271 q -12 303 6 294 q -25 320 -21 307 q -35 343 -29 333 q 30 357 -1 350 q 93 372 61 364 q 106 384 100 375 q 117 401 111 393 q 126 420 122 411 q 135 438 131 429 q 78 487 101 458 q 39 550 54 515 q 40 569 33 561 q 64 579 47 578 q 120 583 92 581 q 178 588 149 586 q 225 600 206 589 q 260 627 244 611 q 288 662 275 643 q 313 700 300 681 q 322 717 318 708 q 332 732 326 725 q 342 749 336 740 q 346 763 347 757 q 349 795 339 785 q 375 808 360 806 q 427 815 401 814 q 479 819 453 817 q 517 805 506 821 q 535 769 528 789 q 532 735 542 750 q 507 708 522 721 q 483 685 494 697 q 461 660 472 672 q 463 656 463 657 q 465 653 464 656 m 519 501 q 515 508 517 504 q 511 515 514 513 q 435 497 474 506 q 360 479 397 489 q 328 470 340 475 q 308 457 317 465 q 292 435 299 449 q 278 400 286 421 q 372 430 326 415 q 463 461 418 444 q 491 479 478 468 q 519 501 504 490 z "},"$":{"ha":624,"x_min":-71,"x_max":821,"o":"m 19 464 q 67 382 40 408 q 121 350 93 356 q 177 354 149 344 q 231 383 206 364 q 279 424 257 401 q 317 465 301 447 q 337 489 326 476 q 354 516 347 501 q 363 547 361 531 q 354 583 364 564 q 265 597 310 590 q 175 615 219 604 q 87 663 124 631 q 32 749 50 696 q 27 792 25 772 q 61 826 29 811 q 110 865 89 840 q 156 910 132 890 q 188 933 171 922 q 224 956 206 944 q 274 988 247 972 q 319 1024 300 1003 q 385 1072 350 1056 q 460 1099 419 1088 q 491 1104 475 1101 q 514 1117 507 1107 q 554 1207 543 1157 q 548 1233 557 1218 q 532 1263 539 1247 q 546 1267 539 1265 q 560 1271 553 1269 q 597 1277 579 1274 q 622 1307 614 1281 q 644 1321 625 1315 q 678 1324 664 1326 q 707 1310 693 1321 q 735 1289 721 1300 q 752 1260 751 1276 q 743 1226 753 1244 q 709 1168 725 1197 q 675 1108 693 1139 q 709 1094 693 1100 q 739 1078 725 1088 q 783 1039 764 1061 q 812 991 803 1017 q 815 936 821 965 q 785 875 810 907 q 751 833 768 854 q 713 797 733 811 q 667 779 693 785 q 618 771 642 774 q 601 776 611 769 q 583 790 590 783 q 540 831 561 810 q 494 875 519 851 q 594 904 558 872 q 624 983 631 936 q 519 964 578 986 q 403 905 461 942 q 293 821 344 868 q 208 728 242 774 q 242 718 225 722 q 328 706 285 711 q 414 689 371 700 q 493 651 461 676 q 540 593 525 626 q 552 519 554 560 q 528 436 550 479 q 497 387 514 411 q 460 344 481 363 q 373 264 413 307 q 301 169 333 221 q 245 93 276 129 q 183 21 214 57 q 152 -6 169 6 q 113 -8 135 -18 q 62 17 86 3 q 26 61 38 32 q 31 74 24 64 q 43 83 38 83 q 74 101 67 86 q 81 132 81 117 q 67 149 79 139 q 43 161 54 158 q -9 192 13 172 q -47 238 -31 211 q -69 300 -68 268 q -60 362 -71 332 q -27 417 -49 392 q 19 464 -6 443 z "},"%":{"ha":1213,"x_min":61,"x_max":1246,"o":"m 64 119 q 92 144 79 133 q 115 167 104 154 q 175 244 146 206 q 236 321 204 283 q 264 345 247 336 q 293 368 281 354 q 351 432 322 400 q 407 497 379 464 q 409 509 410 501 q 410 524 408 517 q 434 531 421 524 q 458 549 447 539 q 478 572 469 560 q 489 594 486 583 q 497 612 492 604 q 508 626 501 619 q 555 671 532 649 q 603 713 578 693 q 644 739 622 728 q 683 767 665 750 q 728 802 704 786 q 767 846 751 818 q 799 879 778 865 q 840 908 821 893 q 878 934 860 922 q 917 960 897 946 q 958 983 936 972 q 993 1014 981 994 q 1028 1045 1010 1036 q 1068 1056 1047 1054 q 1110 1056 1089 1058 q 1153 1053 1132 1053 q 1196 1035 1174 1051 q 1235 1003 1218 1019 q 1245 978 1244 994 q 1241 947 1246 963 q 1227 921 1236 932 q 1206 908 1218 910 q 1098 874 1146 903 q 1006 813 1050 844 q 883 719 942 769 q 763 621 824 669 q 626 497 690 563 q 503 361 563 431 q 388 219 444 292 q 276 74 332 146 q 226 35 253 42 q 164 40 199 29 q 104 72 129 51 q 64 119 79 93 m 825 54 q 724 85 769 63 q 646 160 678 108 q 622 220 625 192 q 626 285 619 249 q 651 365 633 329 q 692 436 668 401 q 708 452 697 444 q 731 460 719 460 q 829 472 781 463 q 929 476 878 481 q 986 460 958 474 q 1036 428 1014 447 q 1074 388 1058 410 q 1094 347 1089 365 q 1094 234 1113 283 q 1021 143 1076 185 q 947 91 985 115 q 861 60 910 67 q 843 58 851 58 q 825 54 835 57 m 781 192 q 792 197 788 194 q 801 200 797 199 q 889 242 854 213 q 924 332 924 271 q 922 354 924 342 q 915 368 919 367 q 890 371 904 371 q 868 364 876 371 q 781 192 789 301 m 131 972 q 131 999 126 985 q 144 1024 135 1013 q 168 1044 154 1036 q 197 1054 182 1053 q 275 1061 236 1058 q 353 1061 314 1064 q 456 1019 417 1057 q 521 929 496 982 q 544 862 539 890 q 542 810 549 833 q 517 768 535 788 q 474 728 500 749 q 335 662 408 676 q 178 679 261 647 q 138 710 158 688 q 99 760 117 733 q 72 815 82 788 q 63 858 61 842 q 66 890 64 874 q 71 922 68 907 q 74 948 72 939 q 82 962 76 957 q 99 968 88 967 q 131 972 110 969 m 349 946 q 303 925 325 940 q 267 890 282 910 q 244 847 251 869 q 240 803 236 824 q 274 819 257 811 q 305 837 290 826 q 330 861 319 847 q 344 897 340 875 q 348 888 347 892 q 351 879 349 883 q 356 881 354 881 q 360 882 357 881 q 354 914 357 897 q 349 946 351 931 z "},"&":{"ha":1204,"x_min":-97,"x_max":1307,"o":"m 717 550 l 675 613 q 663 603 668 607 q 650 593 657 599 q 662 617 657 604 q 676 635 667 631 q 702 638 688 640 q 732 638 717 636 q 767 638 750 638 q 801 642 785 639 q 890 659 846 650 q 978 678 933 668 q 1004 683 990 681 q 1029 692 1018 685 q 1082 712 1056 708 q 1134 713 1108 715 q 1186 706 1160 711 q 1239 699 1213 700 q 1279 681 1263 697 q 1301 638 1296 665 q 1295 599 1307 614 q 1260 582 1283 585 q 1177 572 1218 576 q 1096 560 1136 567 q 999 506 1039 551 q 881 377 940 440 q 764 249 822 314 q 740 218 750 233 q 718 186 729 203 q 710 161 708 172 q 728 139 711 150 q 753 113 742 129 q 769 78 765 97 q 770 40 774 60 q 751 7 767 21 q 726 -10 740 -3 q 700 -18 713 -18 q 629 -8 664 -17 q 571 32 594 0 q 530 92 549 61 q 490 154 511 122 q 437 125 465 140 q 381 94 408 110 q 265 42 324 61 q 139 26 206 22 q 30 62 76 31 q -53 143 -17 93 q -83 197 -72 169 q -96 257 -94 225 q -97 272 -97 264 q -92 283 -96 279 q -69 317 -78 299 q -49 354 -60 336 q -26 388 -39 372 q 10 415 -12 404 q 52 454 35 428 q 93 500 69 481 q 208 588 150 544 q 324 674 265 631 q 336 683 331 679 q 344 689 342 686 q 297 765 321 728 q 249 840 272 803 q 230 922 222 882 q 260 999 238 961 q 290 1042 274 1021 q 325 1079 306 1063 q 358 1095 339 1090 q 393 1107 376 1100 q 385 1117 390 1111 q 390 1129 388 1122 q 396 1138 392 1136 q 449 1156 422 1147 q 503 1172 475 1165 q 562 1181 532 1179 q 622 1186 592 1183 q 742 1185 685 1193 q 854 1142 800 1176 q 865 1140 857 1140 q 897 1179 881 1160 q 925 1221 913 1199 q 942 1256 936 1238 q 956 1294 947 1275 q 963 1308 958 1301 q 972 1317 967 1315 q 1013 1326 993 1321 q 1054 1332 1033 1331 q 1095 1331 1075 1333 q 1135 1315 1115 1328 q 1165 1265 1167 1297 q 1133 1214 1164 1233 q 1108 1194 1119 1204 q 1088 1169 1096 1183 q 1024 1063 1056 1117 q 963 953 992 1008 q 928 907 947 925 q 874 888 910 889 q 822 885 849 888 q 771 878 796 883 q 748 880 757 875 q 731 892 739 885 q 717 907 724 899 q 701 919 711 915 q 710 939 707 928 q 719 953 713 950 q 753 987 739 964 q 760 1029 767 1010 q 726 1073 751 1056 q 678 1083 701 1090 q 608 1058 643 1071 q 543 1025 574 1044 q 458 950 494 993 q 407 847 422 907 q 408 809 400 819 q 443 797 415 799 q 519 793 482 794 q 594 788 557 792 q 649 761 631 782 q 674 706 667 740 q 670 673 678 685 q 647 654 663 661 q 293 431 460 565 q 211 354 250 394 q 133 274 172 314 q 116 248 122 263 q 106 219 110 233 q 103 194 103 207 q 103 168 104 181 q 128 169 115 169 q 151 171 140 168 q 302 231 233 190 q 435 324 371 272 q 467 345 450 336 q 500 364 485 354 q 521 374 510 369 q 533 385 532 378 q 555 414 540 408 q 589 421 569 419 q 603 429 596 422 q 617 443 611 436 q 663 492 640 467 q 717 550 685 517 z "},"'":{"ha":376,"x_min":133,"x_max":483,"o":"m 171 632 q 161 628 165 629 q 151 625 157 626 q 140 626 150 624 q 176 671 158 650 q 208 715 193 692 q 267 817 239 767 q 324 919 296 868 q 324 935 326 926 q 319 953 322 944 q 319 981 317 969 q 347 986 322 993 q 394 974 369 979 q 438 956 418 968 q 478 899 474 931 q 458 819 483 868 q 403 724 432 771 q 342 631 374 676 q 302 597 326 608 q 250 586 278 586 q 228 583 239 586 q 208 579 218 579 q 174 582 192 579 q 133 588 157 585 q 156 612 147 603 q 171 628 164 621 q 171 632 171 632 z "},"(":{"ha":856,"x_min":-22,"x_max":1163,"o":"m 824 1318 q 815 1326 819 1322 q 804 1336 810 1331 q 875 1371 829 1361 q 970 1376 921 1381 q 1065 1358 1019 1372 q 1138 1321 1111 1343 q 1156 1286 1150 1310 q 1160 1243 1163 1263 q 1141 1221 1158 1232 q 1108 1201 1124 1210 q 1015 1162 1063 1179 q 928 1119 968 1144 q 694 951 804 1042 q 488 754 585 861 q 374 626 429 692 q 274 488 319 561 q 220 333 228 414 q 242 167 213 251 q 271 124 250 142 q 320 94 292 106 q 383 79 349 83 q 451 79 417 75 q 665 75 560 88 q 706 60 685 74 q 739 31 728 47 q 761 -44 771 -18 q 696 -86 751 -71 q 374 -87 538 -133 q 336 -78 356 -82 q 297 -71 317 -75 q 147 13 208 -44 q 44 146 86 69 q -15 345 -8 242 q 14 551 -22 449 q 99 710 44 639 q 225 839 154 781 q 257 876 244 854 q 288 914 269 897 q 314 931 299 925 q 340 949 329 938 q 388 988 365 968 q 433 1032 411 1008 q 617 1187 518 1119 q 824 1318 717 1254 z "},")":{"ha":968,"x_min":-168,"x_max":1017,"o":"m 704 1158 q 503 1231 599 1186 q 469 1257 485 1238 q 447 1296 453 1276 q 449 1374 432 1353 q 525 1393 467 1396 q 831 1293 690 1388 l 828 1289 q 897 1222 867 1258 q 950 1140 926 1185 q 1010 941 1003 1044 q 981 735 1017 838 q 895 576 950 647 q 769 447 840 506 q 738 410 750 432 q 707 372 725 389 q 681 355 696 361 q 654 338 665 349 q 606 298 629 318 q 561 254 583 278 q 377 99 476 167 q 171 -32 278 32 l 190 -50 q 119 -85 165 -75 q 24 -90 74 -94 q -71 -72 -25 -86 q -143 -35 -117 -57 q -162 0 -156 -24 q -165 43 -168 24 q -147 65 -164 54 q -114 85 -129 76 q -21 124 -68 107 q 67 167 26 142 q 300 335 190 244 q 507 532 410 425 q 620 660 565 594 q 721 799 675 725 q 774 953 767 872 q 753 1119 782 1035 q 735 1150 746 1136 l 704 1158 z "},"*":{"ha":656,"x_min":36,"x_max":760,"o":"m 156 614 q 153 612 158 615 q 139 601 149 608 q 155 636 149 621 q 167 664 161 651 q 115 679 142 671 q 60 699 88 688 q 44 710 53 701 q 39 725 36 719 q 48 752 42 739 q 65 772 54 765 q 119 799 92 788 q 175 824 147 810 q 231 851 203 836 q 289 881 258 865 q 256 926 271 906 q 228 968 242 947 q 202 1008 214 988 q 178 1049 190 1029 l 189 1060 q 272 1020 231 1040 q 357 981 313 1000 q 366 990 361 985 q 374 1001 371 994 q 375 1015 376 1007 q 365 1033 374 1022 q 376 1048 364 1035 q 400 1075 389 1061 q 410 1054 407 1061 q 418 1040 414 1047 q 450 1054 435 1046 q 469 1013 460 1033 q 490 964 479 992 q 576 1013 535 989 q 663 1061 618 1038 q 685 1065 671 1065 q 707 1060 700 1065 q 735 1028 722 1044 q 756 993 749 1013 q 752 969 760 985 q 736 947 744 953 q 635 896 686 919 q 533 847 585 872 q 522 842 528 844 q 504 836 515 840 q 522 821 514 828 q 536 807 529 814 q 578 772 557 789 q 617 735 599 754 q 626 713 624 728 q 625 688 629 697 q 606 671 619 678 q 581 664 592 664 q 550 670 565 665 q 522 685 535 675 q 472 719 496 701 q 426 760 449 738 q 394 774 406 779 q 368 750 382 768 q 317 683 343 715 q 267 617 292 650 q 231 592 251 596 q 188 585 210 588 q 174 594 181 585 q 156 614 167 604 z "},"+":{"ha":678,"x_min":-19,"x_max":581,"o":"m -19 504 q 67 515 25 510 q 153 522 110 519 q 197 531 179 522 q 225 567 214 539 q 256 638 240 603 q 286 710 271 674 l 289 715 q 336 734 313 722 q 376 742 360 746 q 418 715 413 733 q 410 665 424 697 q 381 601 394 633 q 354 535 368 568 q 428 531 390 532 q 501 522 465 529 q 539 508 521 518 q 572 488 557 499 q 580 473 579 482 q 576 453 581 464 q 564 434 572 443 q 543 421 556 425 q 504 411 524 414 q 465 407 485 408 q 392 408 429 407 q 318 410 356 408 q 294 404 304 410 q 278 382 285 399 q 248 313 264 347 q 219 244 232 279 q 190 206 208 217 q 135 196 172 194 q 108 208 115 197 q 101 242 101 218 q 110 310 103 278 q 136 378 117 343 q 133 390 139 381 q 121 399 126 399 q 79 403 97 397 q 47 419 61 410 q 19 441 32 429 q -7 464 7 453 q -15 481 -14 469 q -19 504 -15 492 z "},",":{"ha":383,"x_min":-122,"x_max":169,"o":"m 22 228 q 46 224 36 225 q 64 221 56 224 q 152 152 135 201 q 121 49 169 103 q 58 -12 92 17 q -24 -49 24 -40 q -72 -52 -47 -53 q -119 -53 -96 -51 q -122 -40 -119 -49 q -58 58 -90 10 q 4 158 -26 107 q 16 192 14 174 q 22 228 18 211 z "},"-":{"ha":650,"x_min":-24,"x_max":540,"o":"m -24 485 q 62 504 21 493 q 149 513 103 515 q 297 513 224 508 q 446 519 371 517 q 508 501 482 519 q 538 456 533 483 q 535 422 540 436 q 506 404 531 407 q 415 398 461 401 q 324 393 369 394 q 222 394 272 393 q 121 401 171 394 q 58 419 89 406 q -1 447 28 432 q -12 462 -8 450 q -24 485 -17 474 z "},".":{"ha":371,"x_min":-56,"x_max":185,"o":"m 47 297 q 95 280 69 288 q 140 254 121 272 q 173 212 161 236 q 185 162 185 188 q 169 113 185 136 q 121 75 154 90 q 49 56 82 57 q -15 83 17 54 q -38 115 -28 96 q -52 155 -49 133 q -49 197 -56 176 q -24 233 -43 218 q 11 263 -6 247 q 47 297 28 279 z "},"/":{"ha":394,"x_min":-162,"x_max":742,"o":"m 514 1083 q 533 1093 524 1089 q 550 1104 542 1097 q 649 1128 597 1139 q 732 1069 700 1118 q 741 1048 740 1057 q 738 1032 742 1039 q 727 1019 733 1025 q 715 1007 721 1013 q 633 924 675 965 q 551 839 592 883 q 465 737 507 789 q 382 632 422 685 q 310 526 344 581 q 240 419 276 472 q 189 338 214 379 q 138 256 164 296 q 78 167 108 211 q 18 81 49 124 q -45 44 -7 46 q -111 75 -83 43 q -135 100 -122 89 q -160 125 -149 111 q -158 138 -162 128 q -150 150 -154 149 q -112 172 -124 154 q -89 210 -101 190 q -8 333 -49 272 q 72 457 32 394 q 110 519 92 488 q 149 581 128 550 q 201 658 175 619 q 257 732 228 696 q 332 826 293 781 q 408 919 371 872 q 455 976 432 947 q 500 1035 478 1004 q 508 1058 507 1044 q 514 1083 510 1071 z "},";":{"ha":428,"x_min":-57,"x_max":382,"o":"m 244 710 q 292 692 267 700 q 338 667 318 685 q 370 624 358 649 q 382 574 382 600 q 367 526 382 549 q 318 488 351 503 q 247 468 279 469 q 182 496 214 467 q 159 527 169 508 q 145 567 149 546 q 148 610 142 589 q 174 646 154 631 q 208 676 192 660 q 244 710 225 692 m 88 393 q 111 390 101 390 q 129 386 121 389 q 217 317 200 367 q 186 214 235 268 q 123 153 157 182 q 42 117 89 125 q -6 113 18 113 q -54 113 -31 114 q -57 125 -54 117 q 7 224 -25 175 q 69 324 39 272 q 81 358 79 339 q 88 393 83 376 z "},"<":{"ha":621,"x_min":19,"x_max":671,"o":"m 19 574 q 89 555 57 558 q 154 565 121 551 q 149 542 150 554 q 181 560 165 551 q 213 576 197 568 q 234 591 224 583 q 257 603 244 599 q 358 653 313 621 q 446 721 403 686 q 467 750 460 732 q 485 785 475 768 q 488 790 486 788 q 490 793 489 793 q 528 794 508 793 q 566 794 547 796 q 603 787 585 793 q 636 765 621 781 q 653 739 647 754 q 671 704 660 724 q 586 628 631 663 q 493 565 542 594 q 393 507 444 535 q 290 450 342 479 q 377 403 335 426 q 461 358 419 381 q 496 337 481 349 q 519 304 511 325 q 519 253 531 275 q 476 231 507 232 q 443 234 460 231 q 411 246 426 238 q 297 314 353 279 q 183 382 242 349 q 142 401 164 393 q 103 425 121 410 q 77 459 88 440 q 56 497 67 478 q 43 522 49 508 q 31 547 38 535 q 19 574 28 553 z "},"=":{"ha":633,"x_min":-24,"x_max":550,"o":"m -24 328 q 180 378 81 360 q 382 393 279 396 q 436 387 410 392 q 489 376 463 382 q 511 367 500 374 q 531 350 522 360 q 544 313 550 328 q 511 290 539 297 q 475 287 493 288 q 438 283 457 286 q 311 272 375 276 q 185 257 247 267 q 97 259 139 250 q 14 286 54 268 q -5 303 3 292 q -24 328 -12 315 m 344 640 q 431 635 389 642 q 511 604 472 628 q 534 582 526 593 q 539 551 542 571 q 524 526 536 532 q 499 519 513 521 q 431 517 464 517 q 363 514 397 517 q 269 508 315 511 q 174 501 222 504 q 76 540 113 494 q 65 548 72 546 q 54 556 58 550 q 41 574 47 564 q 35 592 35 583 q 45 607 35 599 q 64 615 56 615 q 204 628 135 622 q 344 640 274 633 z "},">":{"ha":782,"x_min":19,"x_max":671,"o":"m 671 463 q 601 481 633 478 q 536 471 569 485 q 542 494 540 482 q 509 476 525 485 q 478 460 493 468 q 456 445 467 453 q 433 433 446 438 q 333 383 378 415 q 244 315 288 350 q 223 286 231 304 q 206 251 215 268 q 203 246 204 249 q 200 243 201 243 q 162 242 181 243 q 124 242 143 240 q 88 249 106 243 q 54 271 69 256 q 37 297 43 282 q 19 332 31 313 q 103 408 58 374 q 197 472 149 442 q 297 529 246 501 q 400 586 349 557 q 313 633 356 610 q 229 678 271 656 q 194 699 210 688 q 171 732 179 711 q 172 783 160 761 q 214 806 183 804 q 247 802 231 806 q 279 790 264 799 q 393 722 338 757 q 507 654 449 688 q 548 635 526 643 q 588 611 569 626 q 613 577 603 596 q 635 539 624 558 q 647 515 642 528 q 660 489 653 501 q 671 463 663 483 z "},"¢":{"ha":711,"x_min":-36,"x_max":754,"o":"m -36 321 q -30 329 -33 325 q -25 338 -26 333 q 7 421 -7 378 q 46 500 21 464 q 139 619 89 563 q 239 735 189 676 q 263 759 250 747 q 288 783 276 771 q 309 808 300 794 q 321 839 318 821 q 326 844 321 842 q 339 849 332 846 q 327 853 332 851 q 318 857 322 854 q 323 863 321 860 q 328 867 325 865 q 383 881 356 874 q 439 893 411 889 q 469 904 458 896 q 486 929 479 913 q 499 963 492 946 q 512 996 507 979 q 516 1030 517 1013 q 507 1067 515 1047 q 511 1081 506 1071 q 521 1090 517 1090 q 606 1089 564 1089 q 688 1078 649 1089 q 735 1042 724 1069 q 738 979 747 1014 q 733 961 735 971 q 726 943 732 951 q 694 856 699 899 q 735 769 690 813 q 750 733 754 751 q 731 696 746 714 q 695 651 714 674 q 656 608 676 629 q 605 587 639 590 q 546 594 571 583 q 525 598 538 599 q 496 599 513 597 q 572 739 532 669 q 494 738 528 746 q 435 713 461 729 q 388 672 408 696 q 349 624 367 649 q 269 514 308 569 q 194 400 231 458 q 180 358 183 381 q 169 311 176 335 q 268 317 225 303 q 347 358 311 331 q 362 372 356 364 q 374 388 368 381 q 388 399 381 394 q 407 401 396 403 q 498 384 453 394 q 585 357 543 374 q 607 337 600 350 q 612 309 614 324 q 601 282 610 294 q 575 265 592 269 q 531 242 547 257 q 504 208 515 226 q 484 172 493 190 q 463 136 475 153 q 414 72 436 104 q 364 11 392 40 q 305 -17 342 -17 q 240 4 268 -17 q 207 17 225 14 q 172 47 181 25 q 181 90 164 69 q 209 122 194 106 q 240 161 224 139 q 74 207 140 165 q -36 321 8 249 z "},"€":{"ha":1126,"x_min":-42,"x_max":1169,"o":"m 554 813 q 676 804 617 808 q 793 793 735 800 q 835 770 824 790 q 850 726 847 750 q 844 701 851 717 q 829 683 836 686 q 785 670 808 675 q 742 663 763 665 q 592 653 667 657 q 442 643 517 650 q 374 612 406 640 q 329 546 342 583 q 457 557 393 551 q 586 565 521 563 q 651 560 618 565 q 713 544 685 556 q 741 519 729 538 q 760 481 753 500 q 757 473 761 478 q 747 462 753 468 q 733 451 740 456 q 722 444 726 446 q 654 433 689 436 q 585 424 619 429 q 406 398 494 411 q 226 371 317 385 q 213 366 221 369 q 204 358 206 363 q 193 322 199 340 q 185 287 188 304 q 183 251 182 269 q 194 217 185 233 q 288 174 225 164 q 395 197 340 185 q 504 225 450 210 q 588 254 546 236 q 672 290 631 272 q 691 303 682 294 q 708 319 700 313 q 706 335 708 324 q 806 338 756 336 q 904 340 856 340 q 972 285 956 339 q 967 247 979 260 q 933 225 954 233 q 833 182 882 203 q 732 142 783 161 q 616 102 674 122 q 500 67 558 82 q 383 45 442 53 q 264 43 324 38 q 201 53 232 46 q 147 76 171 61 q 49 160 89 111 q -7 272 10 208 q -10 290 -10 281 q -11 310 -11 300 q -6 315 -11 313 q -1 321 0 318 q -7 342 -3 332 q -8 364 -11 353 q -10 406 -1 388 q -29 440 -19 424 q -41 460 -40 456 q -24 472 -42 464 q 18 485 -1 481 q 53 498 38 492 q 65 529 68 504 q 69 538 65 533 q 75 546 72 543 q 106 577 90 561 q 136 608 121 593 q 78 662 106 636 q 24 714 51 688 q 78 744 49 740 q 140 750 108 747 q 228 764 185 756 q 311 781 271 772 q 315 797 314 789 q 321 810 315 806 q 431 929 372 874 q 572 1018 490 985 q 618 1052 597 1029 q 663 1096 639 1075 q 655 1101 658 1099 q 644 1106 651 1103 q 669 1115 657 1110 q 693 1124 682 1121 q 843 1151 768 1139 q 990 1149 918 1164 q 1094 1106 1047 1135 q 1164 1022 1142 1078 q 1168 992 1169 1011 q 1157 964 1167 972 q 1068 883 1113 922 q 975 807 1024 843 q 919 791 946 786 q 869 819 893 796 q 845 839 858 831 q 821 857 832 847 q 878 910 851 885 q 936 958 906 935 q 960 990 954 972 q 957 1018 965 1007 q 928 1029 947 1026 q 894 1026 908 1032 q 804 988 849 1008 q 719 942 760 968 q 634 879 675 914 q 554 813 593 844 z "},"¥":{"ha":904,"x_min":-57,"x_max":1150,"o":"m 44 64 q 43 88 43 79 q 42 101 43 96 q 61 113 51 108 q 76 126 71 118 q 117 201 97 163 q 161 285 138 239 q 97 276 126 274 q 42 291 68 279 q -8 319 15 303 q -57 351 -32 336 q -27 386 -50 379 q 24 396 -4 393 q 108 403 67 399 q 192 414 150 408 q 235 426 215 417 q 267 458 254 435 q 294 501 279 481 q 326 547 310 522 q 288 545 306 546 q 253 543 271 544 q 152 551 200 539 q 67 608 104 563 q 48 622 60 617 q 25 633 36 626 q 45 665 32 660 q 96 668 58 671 q 237 669 167 663 q 379 694 307 676 q 351 768 365 732 q 328 840 338 804 q 303 951 313 896 q 279 1064 293 1007 q 264 1105 274 1085 q 247 1147 254 1125 q 243 1171 243 1158 q 242 1196 243 1183 q 274 1200 257 1197 q 307 1197 292 1203 q 392 1147 357 1178 q 435 1054 426 1117 q 465 930 444 992 q 503 806 485 868 q 513 785 506 794 q 524 769 519 776 q 536 781 531 776 q 547 790 542 786 q 556 795 550 793 q 561 800 561 797 q 577 842 565 825 q 605 874 589 860 q 638 901 621 889 q 671 929 656 914 q 765 1016 715 975 q 864 1100 815 1057 q 892 1132 879 1115 q 925 1160 904 1149 q 1026 1183 978 1188 q 1119 1133 1075 1178 q 1117 1081 1150 1106 q 1004 1002 1061 1040 q 893 921 947 964 q 793 834 842 879 q 696 744 744 789 q 701 736 699 739 q 724 733 715 733 q 817 696 781 742 q 837 667 828 682 q 838 639 846 651 q 808 614 826 624 q 772 603 790 604 q 688 599 731 599 q 601 600 646 600 q 606 572 604 583 q 610 546 607 561 q 557 542 583 543 q 510 531 531 542 q 476 497 490 519 q 447 454 463 474 l 610 454 q 660 456 635 454 q 710 454 685 457 q 744 443 728 453 q 771 419 760 433 q 785 390 782 406 q 782 360 789 374 q 765 339 775 346 q 742 329 754 332 q 717 325 729 326 q 692 322 704 324 q 628 322 660 319 q 565 321 597 324 q 471 315 518 318 q 376 306 424 311 q 355 296 365 304 q 339 278 344 288 q 288 186 313 232 q 238 93 263 140 q 193 44 218 57 q 128 36 168 32 q 122 35 125 36 q 118 35 119 33 q 103 51 110 42 q 88 63 96 60 q 67 65 78 67 q 44 64 56 64 z "},"×":{"ha":669,"x_min":-74,"x_max":613,"o":"m 160 481 q 103 522 131 501 q 47 561 75 542 q 81 588 60 576 q 127 605 103 600 q 176 607 151 610 q 221 590 201 604 q 251 577 238 579 q 278 578 265 575 q 303 590 290 582 q 328 606 315 597 q 392 647 360 626 q 458 683 424 668 q 519 694 488 697 q 579 674 551 690 q 602 647 592 665 q 608 617 613 628 q 585 590 603 601 q 551 575 568 579 q 457 537 507 564 q 369 471 407 510 q 419 433 394 451 q 467 393 443 414 q 479 372 474 386 q 481 351 485 358 q 464 332 476 340 q 440 319 451 324 q 378 322 407 307 q 324 351 350 336 q 311 358 317 354 q 300 367 306 361 q 263 378 279 383 q 228 358 247 374 q 151 298 190 326 q 69 250 113 269 q 8 240 42 238 q -57 254 -25 242 q -67 266 -64 257 q -74 282 -71 275 q -12 327 -43 306 q 47 372 18 349 q 102 423 75 396 q 160 481 129 450 z "},"÷":{"ha":675,"x_min":-65,"x_max":558,"o":"m -60 493 q 10 498 -25 496 q 79 503 44 500 q 238 511 158 507 q 397 518 318 515 q 444 517 421 519 q 489 504 468 514 q 526 478 510 494 q 558 449 543 461 q 538 415 550 426 q 513 397 526 403 q 483 391 499 392 q 450 390 467 390 q 338 388 393 390 q 225 383 282 386 q 160 381 193 382 q 96 381 128 381 q 45 390 68 381 q 3 413 22 399 q -32 445 -15 428 q -65 481 -49 463 q -62 487 -64 483 q -60 493 -61 490 m 260 597 q 236 623 249 613 q 222 644 224 633 q 225 683 219 664 q 233 721 231 701 q 238 726 235 724 q 271 737 250 735 q 314 735 292 739 q 355 723 336 732 q 383 701 374 714 q 397 670 396 686 q 374 643 397 654 q 319 621 347 632 q 260 597 292 610 m 213 201 q 173 210 192 204 q 141 227 154 217 q 123 252 128 238 q 125 286 118 267 q 147 312 131 303 q 185 323 164 321 q 227 319 206 325 q 261 297 249 313 q 272 271 269 289 q 269 246 275 253 q 240 220 257 231 q 213 201 224 210 z "},"O":{"ha":851,"x_min":-62,"x_max":1004,"o":"m 261 839 q 267 865 265 853 q 275 885 268 878 q 338 949 306 918 q 400 1014 369 981 q 485 1086 440 1056 q 586 1132 529 1117 q 595 1140 592 1135 q 604 1149 599 1146 q 615 1151 610 1151 q 621 1150 619 1150 q 633 1170 628 1160 q 646 1182 639 1181 q 705 1189 675 1186 q 764 1192 735 1192 q 828 1181 799 1192 q 883 1152 857 1169 q 931 1113 908 1135 q 976 1069 954 1092 q 998 1024 992 1054 q 997 974 1004 994 q 940 822 971 896 q 878 672 908 747 q 865 637 871 654 q 850 604 860 619 q 781 498 817 550 q 717 389 746 446 q 602 228 668 300 q 468 86 536 157 q 389 19 432 49 q 290 -21 346 -10 q 194 -19 238 -32 q 111 29 150 -6 q 49 88 78 56 q 26 174 14 124 q 44 241 36 207 q 64 310 53 275 q 64 335 69 326 q 47 356 58 344 q -5 410 19 382 q -53 465 -29 438 q -60 485 -62 476 q -39 497 -58 494 q -26 504 -32 499 q -14 517 -19 510 q 41 581 14 549 q 94 647 68 614 q 163 735 129 692 q 231 821 196 778 q 247 833 238 829 q 261 839 257 836 m 669 947 q 585 903 621 935 q 513 840 549 872 q 507 829 508 838 q 508 815 506 821 q 496 756 519 783 q 450 699 472 728 q 408 638 428 669 q 369 566 388 603 q 331 493 350 529 q 267 357 294 426 q 224 213 239 288 q 222 195 221 204 q 229 182 224 186 q 243 180 233 179 q 258 185 253 181 q 322 226 290 206 q 381 272 353 247 q 426 325 406 296 q 471 381 447 354 q 564 493 522 433 q 636 619 606 553 q 664 676 649 649 q 692 735 679 704 q 720 808 706 767 q 738 884 735 850 q 726 938 740 918 q 669 947 713 958 z "},"N":{"ha":874,"x_min":-264,"x_max":1197,"o":"m 613 454 q 660 551 636 503 q 711 644 683 599 q 774 749 740 697 q 838 856 807 801 q 867 917 854 886 q 894 981 881 949 q 913 1015 901 999 q 924 1050 925 1032 q 929 1085 922 1074 q 948 1101 936 1097 q 974 1106 960 1106 q 1003 1110 989 1107 q 1100 1102 1056 1121 q 1175 1044 1144 1083 q 1190 990 1197 1014 q 1172 946 1182 967 q 1068 767 1126 851 q 1026 719 1050 740 q 979 675 1001 699 q 973 669 976 672 q 969 663 969 667 q 955 638 964 646 q 924 638 946 631 q 882 628 896 644 q 858 594 868 613 q 781 436 818 515 q 703 278 743 357 q 696 260 699 269 q 688 244 693 251 q 674 215 679 229 q 668 185 668 200 q 675 156 668 171 q 700 128 682 142 q 681 100 693 108 q 650 85 668 92 q 620 62 632 79 q 596 29 608 44 q 585 4 589 18 q 574 -21 581 -10 q 547 -50 563 -40 q 506 -54 531 -60 q 447 -44 476 -49 q 396 -11 418 -39 q 433 65 415 28 q 471 142 451 103 q 479 160 479 153 q 472 195 476 178 q 464 232 467 213 q 443 340 453 286 q 424 447 433 393 q 412 535 417 492 q 403 624 407 579 q 404 633 401 628 q 408 642 407 638 q 406 645 407 644 q 403 649 404 646 q 390 636 396 642 q 381 624 385 631 q 313 522 347 572 q 251 415 279 471 q 209 347 233 378 q 165 279 185 315 q 122 207 146 242 q 75 136 99 172 q 28 66 51 100 q -19 -4 4 32 q -43 -35 -31 -19 q -67 -65 -56 -50 q -107 -87 -79 -83 q -154 -79 -135 -92 q -190 -56 -176 -65 q -215 -35 -204 -46 q -237 -8 -226 -24 q -264 33 -247 7 q -210 53 -231 38 q -173 90 -189 68 q -143 136 -157 113 q -112 181 -129 160 q -31 297 -65 233 q 44 421 4 361 q 149 589 99 504 q 253 758 200 674 q 289 821 272 789 q 326 881 306 853 q 351 951 353 915 q 329 1026 349 986 q 328 1042 326 1032 q 335 1054 331 1053 q 424 1067 379 1067 q 510 1031 469 1067 q 539 991 528 1015 q 553 944 550 967 q 567 809 563 876 q 579 674 572 742 q 592 563 586 618 q 603 453 597 508 q 608 453 606 453 q 613 454 610 454 z "},"M":{"ha":1090,"x_min":-181,"x_max":1324,"o":"m 151 749 q 188 797 167 774 q 213 849 208 821 q 232 915 217 885 q 258 976 247 944 q 271 1010 264 994 q 283 1043 278 1026 q 285 1066 286 1054 q 283 1089 285 1078 q 274 1093 278 1092 q 290 1112 282 1100 q 307 1122 297 1124 q 365 1119 336 1122 q 422 1106 394 1117 q 445 1078 436 1099 q 461 1039 454 1058 q 472 1002 468 1021 q 479 964 476 983 q 481 864 482 914 q 483 765 481 814 q 486 683 485 725 q 489 601 488 642 q 494 600 492 600 q 501 599 497 600 q 513 606 507 603 q 522 615 518 610 q 635 743 581 679 q 749 869 690 807 q 822 953 786 911 q 901 1031 858 994 q 967 1056 929 1053 q 1043 1039 1004 1058 q 1072 1032 1063 1029 q 1089 1053 1082 1035 q 1107 1095 1096 1075 q 1124 1138 1118 1115 q 1126 1169 1128 1153 q 1125 1207 1125 1186 q 1171 1219 1146 1211 q 1219 1222 1196 1228 q 1306 1175 1288 1210 q 1303 1078 1324 1140 q 1274 1005 1292 1040 q 1240 933 1257 969 q 1182 819 1211 875 q 1122 704 1153 763 q 1033 537 1078 619 q 946 368 988 454 q 858 176 901 272 q 772 -17 815 81 q 769 -26 768 -24 q 755 -95 775 -68 q 708 -142 735 -122 q 683 -173 690 -156 q 665 -207 676 -190 q 644 -219 660 -215 q 617 -221 628 -224 q 579 -209 597 -218 q 546 -189 561 -200 q 526 -165 535 -179 q 507 -139 517 -151 q 493 -146 501 -140 q 515 -119 504 -132 q 536 -94 525 -107 q 550 -60 553 -79 q 543 -21 547 -40 q 549 10 540 -1 q 565 35 557 22 q 592 78 581 56 q 617 122 604 100 q 627 142 624 132 q 639 160 631 153 q 656 188 651 172 q 671 218 661 204 q 688 255 682 235 q 700 294 694 275 q 713 333 706 314 q 733 368 719 353 q 746 372 738 372 q 757 376 754 372 q 765 399 763 388 q 774 426 768 411 q 792 444 782 428 q 800 479 803 461 q 804 506 800 494 q 874 640 839 574 q 942 772 908 706 q 962 810 953 792 q 981 847 971 828 q 969 857 974 854 q 906 796 938 826 q 843 733 875 765 q 678 550 756 646 q 539 344 601 454 q 495 308 524 317 q 432 310 467 300 q 393 317 413 315 q 354 326 374 319 q 330 344 333 332 q 339 371 326 356 q 358 391 349 382 q 375 411 367 400 q 391 434 383 422 q 410 464 399 446 q 385 482 397 474 q 360 500 372 490 q 321 588 317 535 q 322 619 324 603 q 318 651 319 636 q 313 652 315 651 q 307 653 310 653 q 271 583 289 618 q 235 513 253 549 q 128 303 182 408 q 21 94 75 199 q -10 59 6 64 q -62 65 -26 54 q -131 101 -101 78 q -181 147 -160 124 q -154 182 -167 165 q -128 214 -142 199 q -108 238 -117 226 q -87 261 -99 250 q -74 285 -79 269 q -60 324 -67 304 q -46 363 -53 343 q -42 369 -43 365 q -39 375 -42 374 q -2 395 -14 381 q 17 428 10 410 q 29 467 24 447 q 47 503 35 488 q 86 560 71 529 q 119 621 101 590 q 147 672 133 647 q 172 725 160 697 q 170 734 175 728 q 163 747 165 740 q 151 749 156 747 z "},"L":{"ha":656,"x_min":-258,"x_max":693,"o":"m 108 175 q 247 202 181 190 q 381 231 314 214 q 481 233 433 244 q 572 197 528 222 q 606 161 593 186 q 614 114 618 136 q 587 83 607 85 q 547 81 567 81 q 297 58 418 86 q 57 -18 175 29 q 31 -46 46 -36 q -2 -62 15 -56 q -37 -74 -19 -68 q -69 -93 -56 -81 q -123 -119 -96 -117 q -189 -87 -150 -122 q -224 -46 -208 -68 q -258 0 -239 -24 q -195 31 -225 17 q -133 61 -165 46 q -146 92 -146 79 q -140 117 -146 106 q -125 140 -133 129 q -112 161 -117 150 q -94 190 -108 176 q -71 218 -81 203 q -65 233 -65 225 q -68 250 -65 242 q -33 296 -50 274 q 4 342 -15 318 q 7 385 -1 364 q 35 426 15 406 q 74 483 57 453 q 110 543 92 513 q 132 585 122 564 q 168 618 142 607 q 183 628 179 622 q 185 642 186 635 q 181 657 185 650 q 175 671 178 664 q 160 697 168 685 q 144 722 151 708 q 178 781 119 774 q 196 790 189 781 q 260 866 228 828 q 324 942 292 904 q 371 1001 347 969 q 435 1090 403 1046 q 500 1179 468 1135 q 506 1188 503 1183 q 508 1194 510 1192 q 506 1221 503 1210 q 516 1241 508 1232 q 533 1258 524 1250 q 549 1275 542 1267 q 563 1279 553 1279 q 579 1279 572 1279 q 638 1264 613 1276 q 678 1231 664 1251 q 692 1183 692 1210 q 676 1125 693 1156 q 578 960 632 1039 q 469 803 525 882 q 358 632 411 719 q 251 456 304 544 q 183 329 215 393 q 118 201 151 265 q 114 192 115 197 q 108 175 113 186 z "},"K":{"ha":825,"x_min":-274,"x_max":1111,"o":"m 29 538 q 20 562 18 551 q 29 582 22 572 q 45 600 36 592 q 60 617 54 608 q 133 731 94 676 q 208 844 171 786 q 228 880 219 861 q 246 917 236 899 q 255 935 250 926 q 267 953 260 943 q 283 1001 247 972 q 290 1020 290 1007 q 290 1044 290 1033 q 362 1131 322 1090 q 440 1212 401 1171 q 511 1299 478 1253 q 564 1401 544 1344 q 589 1397 576 1400 q 613 1397 601 1394 q 675 1398 647 1410 q 724 1365 703 1386 q 735 1335 733 1356 q 731 1300 736 1314 q 658 1150 701 1224 q 608 1069 635 1108 q 556 990 582 1031 q 534 960 546 975 q 518 931 522 946 q 515 890 513 911 q 517 842 517 868 q 537 851 531 849 q 547 857 543 854 q 681 938 614 897 q 814 1021 747 979 q 822 1028 818 1024 q 831 1036 826 1033 q 847 1051 838 1043 q 860 1058 856 1060 q 926 1058 899 1044 q 979 1096 953 1072 q 992 1103 983 1100 q 1004 1103 1001 1106 q 1056 1069 1031 1086 q 1101 1028 1082 1051 q 1110 992 1111 1017 q 1100 954 1108 968 q 1069 929 1089 939 q 1031 908 1050 919 q 915 849 972 878 q 799 790 857 819 q 758 772 779 779 q 718 753 738 764 q 645 717 682 735 q 572 679 608 699 q 560 665 565 676 q 556 646 554 653 q 613 436 583 540 q 669 226 642 332 q 669 201 672 215 q 660 179 667 186 q 624 159 647 165 q 574 153 600 153 q 524 159 549 153 q 488 178 500 165 q 471 199 476 189 q 485 222 465 208 q 487 231 488 224 q 485 244 486 238 q 443 403 464 324 q 400 565 422 482 q 382 553 390 558 q 364 543 374 547 q 289 513 326 528 q 214 482 251 497 q 200 475 207 479 q 190 465 193 471 q 158 406 174 436 q 128 346 143 376 q 81 254 104 300 q 35 161 58 208 q 10 113 22 138 q -18 64 -3 88 q -29 53 -21 57 q -46 47 -37 50 q -77 35 -64 43 q -96 6 -90 26 q -115 -18 -101 -14 q -146 -17 -128 -22 q -165 -15 -156 -14 q -186 -17 -175 -15 q -211 -24 -199 -19 q -235 -26 -224 -28 q -256 -19 -244 -25 q -271 -7 -267 -14 q -269 10 -274 0 q -260 29 -264 21 q -222 99 -240 65 q -186 168 -204 133 q -156 229 -171 199 q -126 290 -142 260 q -75 390 -100 340 q -22 488 -50 439 q 0 512 -14 501 q 29 538 14 522 z "},"J":{"ha":603,"x_min":-557,"x_max":907,"o":"m 296 465 q 301 476 299 474 q 303 479 304 476 q 339 579 321 529 q 375 679 357 629 q 381 698 378 689 q 392 722 385 707 q 315 697 350 708 q 246 672 279 685 q 158 660 201 656 q 69 700 114 665 q 19 744 42 721 q -15 800 -3 768 q 83 802 39 789 q 168 832 126 815 q 275 875 221 854 q 383 917 329 896 q 415 929 400 922 q 442 945 431 936 q 460 967 454 954 q 465 997 467 979 q 528 995 499 997 q 586 999 558 993 q 618 1014 603 1001 q 644 1040 633 1026 q 685 1059 661 1060 q 729 1054 708 1058 q 788 1038 758 1049 q 846 1014 818 1026 q 888 982 874 1003 q 904 938 901 961 q 889 906 907 914 q 851 893 871 899 q 763 865 807 879 q 676 833 719 850 q 656 819 665 829 q 642 799 647 810 q 502 465 571 632 q 357 135 433 299 q 251 -70 308 29 q 131 -268 193 -169 q 77 -335 110 -304 q 13 -393 44 -365 q -37 -417 -6 -410 q -107 -425 -69 -425 q -181 -416 -144 -425 q -247 -390 -218 -407 q -310 -347 -281 -371 q -368 -300 -339 -324 q -437 -243 -403 -272 q -506 -186 -471 -214 q -532 -158 -519 -172 q -557 -124 -544 -143 q -506 -131 -531 -126 q -456 -137 -482 -135 q -392 -153 -422 -142 q -331 -181 -362 -165 q -237 -217 -286 -203 q -140 -246 -189 -231 q -112 -247 -126 -250 q -85 -235 -97 -243 q -62 -215 -72 -226 q -46 -193 -51 -204 q -27 -160 -35 -176 q -3 -129 -19 -143 q 51 -62 29 -100 q 92 15 72 -24 q 95 30 94 22 q 98 44 96 38 q 105 57 100 51 q 121 65 110 63 q 123 80 125 67 q 122 104 121 93 q 155 132 138 110 q 185 181 172 154 q 206 233 199 207 q 208 272 213 258 q 241 308 226 292 q 274 344 256 324 q 253 342 261 342 q 238 340 244 342 q 233 344 235 343 q 231 349 232 346 q 245 361 238 356 q 258 374 253 367 q 265 390 263 381 q 272 411 268 400 q 300 419 296 406 q 303 450 304 432 q 296 465 300 460 z "},"I":{"ha":374,"x_min":-72,"x_max":585,"o":"m -72 236 q -53 237 -61 236 q -39 238 -46 238 q 0 315 -19 278 q 39 390 19 353 q 63 439 49 408 q 94 502 78 469 q 126 565 111 535 q 153 614 142 596 q 163 628 157 621 q 176 641 169 635 q 187 652 182 647 q 190 660 192 657 q 188 681 185 672 q 197 695 190 689 q 210 708 203 701 q 218 726 217 715 q 239 785 222 757 q 271 842 256 814 q 338 969 304 906 q 403 1096 371 1032 q 406 1121 408 1107 q 406 1147 403 1135 q 413 1169 408 1157 q 422 1182 417 1182 q 460 1181 438 1183 q 506 1173 483 1179 q 549 1155 529 1167 q 576 1125 568 1143 q 583 1097 582 1113 q 582 1068 585 1082 q 553 983 571 1024 q 515 903 536 943 q 473 825 494 864 q 431 747 451 786 q 373 632 404 696 q 309 501 342 568 q 245 371 276 435 q 189 256 214 307 q 170 197 175 228 q 158 136 165 165 q 149 117 156 126 q 132 99 142 107 q 111 88 122 92 q 90 88 100 85 q 21 115 56 100 q -47 146 -14 131 q -59 160 -54 149 q -67 181 -64 171 q -69 207 -69 193 q -72 236 -69 221 z "},"H":{"ha":792,"x_min":-303,"x_max":1119,"o":"m 864 1007 q 853 1010 858 1010 q 840 1014 847 1011 q 878 1070 860 1042 q 915 1131 896 1099 q 927 1165 919 1147 q 941 1203 935 1183 q 949 1242 947 1222 q 942 1285 950 1263 q 967 1284 957 1285 q 989 1285 978 1283 q 1041 1281 1015 1289 q 1085 1256 1067 1274 q 1112 1215 1104 1239 q 1108 1161 1119 1190 q 1065 1052 1088 1106 q 1014 947 1042 999 q 916 775 967 860 q 814 606 865 690 q 730 472 774 538 q 647 338 686 407 q 601 240 621 290 q 561 139 581 189 q 533 101 550 113 q 488 100 515 90 q 385 197 410 122 q 374 224 381 211 q 364 246 368 236 q 382 270 375 258 q 400 289 389 282 q 417 308 411 297 q 425 331 422 319 q 431 353 428 343 q 440 371 433 364 q 475 412 461 389 q 501 458 489 435 q 527 503 514 481 q 560 546 540 526 q 571 569 568 554 q 574 597 574 583 q 558 605 572 600 q 535 608 544 610 q 407 592 471 600 q 281 571 343 583 q 251 557 265 568 q 229 532 238 546 q 89 294 158 413 q -50 54 19 175 q -83 -10 -68 22 q -115 -74 -99 -42 q -152 -115 -131 -103 q -196 -126 -174 -126 q -240 -112 -218 -125 q -275 -81 -261 -100 q -293 -56 -287 -65 q -301 -41 -299 -47 q -301 -28 -303 -35 q -294 -11 -299 -22 q -288 -19 -292 -15 q -282 -26 -285 -22 q -244 47 -262 11 q -207 117 -226 82 q -199 121 -204 119 q -190 125 -194 122 q -167 147 -174 132 q -169 181 -161 163 q -136 236 -124 190 q -131 255 -139 243 q -117 269 -124 267 q -87 293 -99 279 q -67 323 -75 307 q -53 356 -58 339 q -39 390 -47 374 q -35 403 -36 396 q -31 411 -35 410 q 15 456 3 426 q 42 514 26 486 q 43 539 47 524 q 32 565 39 554 q 2 615 18 590 q -33 668 -14 640 q 22 672 -3 671 q 69 676 46 674 q 110 683 89 679 q 147 696 131 686 q 169 717 160 703 q 186 744 179 731 q 199 777 194 760 q 210 811 203 794 q 210 817 210 814 q 211 821 210 819 q 250 872 236 843 q 274 930 264 900 q 295 990 285 960 q 324 1046 306 1019 q 339 1064 331 1056 q 354 1081 347 1072 q 353 1095 354 1088 q 354 1110 351 1103 q 382 1170 368 1140 q 408 1231 396 1200 q 410 1252 413 1240 q 408 1276 408 1264 q 458 1293 431 1292 q 509 1285 485 1294 q 551 1256 533 1276 q 575 1210 569 1236 q 575 1198 576 1204 q 571 1186 574 1192 q 490 1016 531 1100 q 410 847 450 932 q 379 790 396 818 q 344 729 363 761 q 389 735 371 731 q 492 747 440 742 q 594 760 543 753 q 618 756 607 760 q 685 746 663 738 q 732 797 708 754 q 763 849 747 824 q 796 899 779 874 q 801 906 799 901 q 804 913 804 910 q 819 968 807 944 q 864 1007 832 992 z "},"G":{"ha":971,"x_min":-97,"x_max":1046,"o":"m 592 1106 q 681 1158 633 1138 q 781 1168 729 1179 q 893 1130 839 1154 q 999 1075 947 1106 q 1031 1041 1019 1063 q 1044 994 1042 1019 q 1040 944 1046 969 q 1019 897 1033 918 q 965 826 993 861 q 908 756 938 790 q 800 735 865 703 q 791 738 796 738 q 783 740 786 738 q 760 759 772 750 q 746 779 747 768 q 751 810 743 794 q 783 826 760 825 q 796 831 793 826 q 836 902 822 868 q 846 953 850 936 q 817 965 842 971 q 739 919 792 960 q 535 763 636 840 q 336 599 433 685 q 197 448 257 531 q 96 268 136 365 q 79 201 83 236 q 68 132 75 167 q 72 116 67 125 q 83 104 78 107 q 99 106 90 101 q 115 115 108 111 q 135 128 126 121 q 156 140 144 136 q 219 170 190 151 q 274 212 247 189 q 325 258 300 235 q 378 304 350 282 q 401 325 389 314 q 428 350 413 336 q 400 358 407 357 q 333 386 364 361 q 296 446 303 411 q 299 482 290 472 q 331 494 307 492 q 363 503 347 497 q 396 514 379 510 q 460 530 428 522 q 525 547 493 538 q 555 557 540 551 q 585 568 569 563 q 612 578 599 574 q 639 586 625 583 q 722 605 681 596 q 807 621 764 614 q 838 620 822 624 q 869 611 854 617 q 919 594 894 603 q 967 571 944 585 q 990 544 981 561 q 1001 511 999 526 q 992 483 1004 496 q 960 472 981 471 q 914 474 936 472 q 868 476 892 475 q 838 450 844 476 q 821 413 831 431 q 797 381 811 394 q 635 192 713 289 q 490 -10 558 94 q 428 -119 456 -62 q 393 -242 401 -176 q 365 -281 389 -269 q 315 -281 342 -293 q 261 -234 279 -265 q 244 -162 243 -203 q 244 -135 244 -149 q 240 -100 243 -121 q 247 -111 244 -108 q 250 -117 249 -114 q 259 -86 249 -99 q 281 -62 269 -74 q 301 -37 292 -50 q 306 -3 310 -24 q 315 21 304 8 q 333 46 326 33 q 342 40 339 43 q 329 35 335 38 q 318 31 324 33 q 228 -17 274 3 q 129 -37 182 -36 q 76 -28 104 -39 q 21 0 47 -18 q -26 40 -6 18 q -57 83 -47 61 q -69 109 -62 97 q -82 135 -76 121 q -96 192 -94 164 q -92 248 -97 221 q -77 301 -86 275 q -57 354 -68 328 q 14 488 -28 425 q 104 610 56 550 q 181 707 143 658 q 260 801 219 756 q 306 845 281 825 q 356 888 332 865 q 383 919 371 903 q 411 949 396 935 q 463 988 436 969 q 515 1025 489 1006 q 550 1047 532 1036 q 583 1071 568 1058 q 589 1085 589 1075 q 592 1106 589 1096 z "},"F":{"ha":781,"x_min":-131,"x_max":1293,"o":"m 547 842 q 564 838 563 838 q 615 847 590 847 q 664 838 640 846 q 710 820 688 831 q 756 801 732 810 q 778 784 767 797 q 797 755 789 771 q 810 724 806 739 q 811 700 814 708 q 769 674 801 667 q 698 681 733 681 q 627 679 663 682 q 556 672 592 676 q 485 665 519 667 q 411 621 435 663 q 299 440 356 529 q 190 258 242 351 q 110 101 147 181 q 38 -60 74 21 q -25 -101 18 -101 q -76 -64 -61 -101 q -84 -62 -78 -61 q -94 -60 -90 -62 q -111 -39 -103 -56 q -124 -3 -119 -22 q -130 33 -129 15 q -124 56 -131 50 q -116 68 -118 60 q -110 83 -114 76 q -100 93 -107 90 q -81 90 -93 96 q -78 94 -79 92 q -76 99 -76 97 q -75 103 -76 100 q -27 198 -50 150 q 22 293 -4 246 q 74 382 47 338 q 128 471 101 426 q 163 535 146 503 q 200 603 181 568 q 135 609 164 603 q 86 649 106 615 q 61 700 71 675 q 57 754 51 725 q 124 758 90 757 q 189 767 157 760 q 234 776 211 771 q 278 788 257 781 q 319 808 300 796 q 353 839 338 819 q 417 937 388 886 q 476 1039 446 988 q 503 1090 492 1064 q 531 1147 515 1117 q 483 1152 507 1153 q 438 1153 460 1151 q 397 1164 417 1156 q 363 1193 378 1172 q 335 1255 342 1222 q 332 1325 329 1288 q 354 1324 343 1324 q 375 1319 365 1324 q 474 1303 424 1296 q 569 1321 524 1310 q 686 1337 628 1333 q 803 1347 744 1340 q 850 1358 826 1350 q 897 1365 874 1367 q 1010 1371 956 1361 q 1122 1376 1065 1381 q 1177 1360 1150 1374 q 1232 1332 1204 1346 q 1286 1257 1275 1313 q 1281 1212 1293 1222 q 1235 1204 1269 1201 q 1101 1210 1168 1208 q 967 1211 1035 1213 q 881 1206 924 1211 q 796 1199 839 1201 q 751 1186 768 1196 q 719 1149 733 1176 q 647 1015 685 1081 q 569 882 608 949 q 559 863 564 872 q 547 842 554 853 z "},"E":{"ha":735,"x_min":-239,"x_max":994,"o":"m 988 957 q 821 951 900 954 q 663 949 742 949 q 618 935 635 949 q 588 903 601 922 q 533 824 560 864 q 476 742 507 785 q 560 740 521 740 q 640 721 600 740 q 704 671 681 701 q 724 588 728 640 q 693 585 708 588 q 663 585 678 582 q 508 585 583 596 q 357 558 433 574 q 346 553 351 556 q 338 544 340 550 q 269 444 303 494 q 201 344 235 394 q 194 328 196 338 q 192 310 193 319 q 224 332 207 326 q 264 335 242 338 q 300 339 282 332 q 336 350 318 346 q 369 357 353 353 q 403 364 386 361 q 416 366 410 365 q 426 364 422 367 q 460 344 443 353 q 492 324 476 335 q 522 301 508 314 q 546 268 536 288 q 544 223 557 242 q 503 207 532 204 q 363 203 431 215 q 228 168 294 190 q 112 122 168 149 q -3 72 56 96 q -58 49 -31 61 q -115 31 -86 38 q -178 44 -149 24 q -219 97 -208 65 q -228 124 -224 110 q -239 153 -233 138 q -208 163 -224 158 q -176 172 -192 167 q -164 181 -169 175 q -151 193 -158 186 q -122 220 -136 207 q -93 244 -108 233 l -68 282 q -41 315 -54 299 q -14 347 -28 332 q 20 388 3 368 q 53 429 38 408 q 86 474 71 453 q 114 514 101 496 q 78 583 94 550 q 44 653 63 617 q 108 663 76 660 q 167 679 139 665 q 232 712 199 694 q 283 771 265 729 q 326 846 299 811 q 379 919 353 881 q 368 921 372 921 q 361 921 364 921 q 303 931 329 919 q 255 962 276 943 q 219 1005 233 981 q 197 1054 204 1029 q 201 1066 196 1058 q 208 1074 206 1074 q 359 1081 283 1078 q 511 1090 435 1085 q 672 1106 592 1097 q 833 1122 751 1114 q 879 1117 854 1124 q 927 1096 904 1110 q 967 1063 950 1082 q 990 1024 985 1044 q 992 989 994 1007 q 988 957 989 971 z "},"D":{"ha":857,"x_min":-242,"x_max":1047,"o":"m -242 104 l -140 104 q -110 188 -124 149 q -69 264 -97 228 q -42 300 -56 283 q -7 329 -28 317 q -1 338 -4 332 q 3 347 3 343 q 26 422 4 390 q 72 483 49 453 q 80 502 79 490 q 86 522 81 514 q 124 576 106 550 q 163 631 143 603 q 171 648 168 639 q 178 665 174 657 q 207 731 193 697 q 243 793 221 765 q 267 824 258 810 q 272 860 275 839 q 229 849 250 854 q 186 840 208 843 q 156 847 167 836 q 140 875 146 858 q 131 901 136 888 q 121 931 126 915 q 138 947 129 938 q 157 965 147 956 q 163 974 160 968 q 164 982 167 979 q 156 1001 156 994 q 162 1011 157 1007 q 174 1017 167 1015 q 188 1022 182 1019 q 249 1059 219 1040 q 311 1094 279 1078 q 343 1115 326 1104 q 378 1128 360 1125 q 440 1159 418 1135 q 476 1217 461 1183 q 520 1263 492 1253 q 581 1249 549 1272 q 619 1220 600 1235 q 639 1175 638 1206 q 647 1166 639 1171 q 661 1158 654 1161 q 790 1122 728 1143 q 906 1057 853 1101 q 1041 833 1035 943 q 929 589 1047 722 q 691 363 821 465 q 436 164 561 260 q 298 77 368 118 q 157 -4 228 36 q 49 -42 104 -33 q -68 -35 -6 -50 q -137 -20 -104 -26 q -194 19 -171 -14 q -216 56 -206 36 q -242 104 -226 76 m 142 265 q 151 260 147 263 q 158 258 156 257 q 306 328 228 285 q 460 424 385 372 q 605 533 536 476 q 724 643 674 590 q 847 892 867 794 q 625 1014 826 989 q 577 1008 597 1017 q 546 971 557 999 q 526 933 538 951 q 503 896 514 915 q 381 686 442 790 q 258 476 319 582 q 201 373 229 425 q 142 265 172 321 z "},"C":{"ha":926,"x_min":-101,"x_max":1042,"o":"m 146 -29 q 159 -31 153 -31 q 172 -33 165 -32 q 142 -15 158 -21 q 110 -8 126 -10 q 76 -5 93 -6 q 42 -1 58 -4 q 58 8 50 3 q 81 19 67 13 q 56 38 67 29 q 35 51 46 46 q -81 174 -42 92 q -92 259 -101 219 q -49 335 -82 299 q -34 359 -39 346 q -22 386 -29 372 q 2 446 -10 415 q 29 504 14 476 q 65 572 46 539 q 101 638 83 604 q 107 652 104 644 q 114 667 110 660 q 122 681 118 674 q 133 696 126 689 q 169 728 151 713 q 206 761 188 744 q 214 781 214 769 q 226 815 213 804 q 257 835 239 825 q 279 850 269 842 q 300 867 289 858 q 329 892 315 881 q 351 918 343 903 q 381 960 364 942 q 424 992 397 979 q 444 1012 436 999 q 464 1035 453 1025 q 580 1115 522 1075 q 694 1196 638 1154 q 776 1236 735 1225 q 856 1244 817 1247 q 932 1228 896 1242 q 997 1194 968 1214 q 1031 1158 1021 1179 q 1033 1113 1042 1138 q 1001 1031 1018 1071 q 965 951 983 992 q 956 935 961 943 q 944 918 950 926 q 907 886 929 892 q 856 889 885 881 q 833 900 843 893 q 814 915 822 907 q 797 933 806 924 q 779 949 789 942 q 777 965 775 951 q 785 986 779 978 q 808 1021 796 1004 q 831 1058 821 1038 q 787 1027 808 1042 q 746 993 765 1013 q 613 865 679 929 q 485 735 547 801 q 372 609 426 672 q 269 478 318 546 q 183 333 221 408 q 131 174 146 258 q 130 164 129 169 q 131 146 131 158 q 194 167 164 157 q 253 190 225 178 q 316 222 285 206 q 378 254 347 238 q 394 271 388 261 q 408 288 400 281 q 496 359 453 324 q 583 431 539 394 q 641 481 613 456 q 697 533 669 507 q 720 560 710 546 q 738 590 731 575 q 755 614 744 607 q 777 622 765 621 q 801 619 789 622 q 822 615 813 617 q 878 594 850 608 q 932 565 906 581 q 953 527 954 551 q 933 485 953 503 q 847 402 889 444 q 760 319 804 360 q 636 208 697 263 q 508 101 575 154 q 388 18 450 56 q 254 -39 326 -19 q 209 -47 232 -46 q 163 -50 186 -47 q 151 -46 157 -50 q 140 -39 146 -42 q 146 -29 142 -33 z "},"B":{"ha":885,"x_min":-229,"x_max":1094,"o":"m 290 951 q 276 1017 283 985 q 260 1085 268 1050 q 373 1141 317 1113 q 486 1200 429 1169 q 503 1214 496 1206 q 521 1229 511 1222 q 549 1247 535 1238 q 578 1256 564 1257 q 618 1258 599 1254 q 656 1270 638 1263 q 691 1286 674 1278 q 728 1300 708 1294 q 805 1317 765 1310 q 881 1323 844 1325 q 951 1307 918 1321 q 1006 1260 983 1293 q 1067 1155 1040 1208 q 1094 1044 1094 1101 q 1056 926 1093 988 q 922 800 1018 865 q 812 731 868 764 q 699 664 756 699 q 688 655 693 660 q 672 643 682 650 q 702 627 689 635 q 729 614 715 619 q 806 560 782 593 q 833 492 831 528 q 821 420 836 456 q 781 356 806 385 q 658 246 725 292 q 519 157 590 200 q 417 95 468 125 q 311 40 365 65 q 147 -34 229 1 q -26 -79 65 -69 q -57 -81 -42 -81 q -87 -82 -72 -81 q -179 -51 -140 -86 q -225 44 -218 -15 q -227 55 -226 50 q -229 67 -228 60 q -173 81 -196 85 q -149 53 -150 78 q -104 65 -125 60 q -61 78 -83 71 q -85 107 -74 94 q -103 135 -96 119 q -116 164 -111 149 q -128 194 -121 179 q -91 229 -108 213 q -54 264 -74 246 q -38 290 -39 278 q -61 313 -37 301 q -15 392 -37 353 q 31 468 7 431 q 80 542 54 506 q 131 615 106 579 l 226 753 l 335 903 q 308 925 321 914 q 282 947 294 936 l 290 951 m 150 143 q 161 156 157 150 q 172 165 165 163 q 219 189 196 178 q 267 214 243 200 q 348 261 307 238 q 428 311 389 285 q 516 374 472 342 q 603 439 560 406 q 629 463 617 450 q 651 490 642 475 q 659 501 654 494 q 667 515 664 508 q 667 528 669 522 q 654 538 665 535 q 611 549 633 543 q 567 556 589 556 q 524 552 546 557 q 479 532 501 547 q 426 501 454 514 q 369 474 397 489 q 314 447 342 460 q 265 414 286 435 q 217 353 238 386 q 174 288 196 319 q 124 214 149 251 q 75 139 100 176 q 83 128 78 136 q 109 140 96 135 q 138 151 122 144 q 144 148 140 150 q 150 143 147 146 m 507 763 q 515 760 513 761 q 518 760 517 760 q 627 831 572 796 q 736 903 682 867 q 760 922 749 911 q 785 936 771 932 q 872 1015 843 975 q 897 1081 901 1054 q 851 1116 892 1108 q 732 1100 811 1124 q 674 1053 693 1088 q 626 964 650 1008 q 576 875 601 919 q 543 819 561 847 q 507 763 525 792 z "},"A":{"ha":799,"x_min":-172,"x_max":1058,"o":"m 385 319 q 384 342 385 329 q 382 371 383 354 l 307 342 q 208 301 258 321 q 110 258 158 282 q 83 236 94 251 q 60 206 71 221 q 26 157 43 182 q -6 107 10 132 q -40 76 -19 83 q -81 75 -61 69 q -120 96 -101 82 q -157 125 -139 110 q -167 151 -172 138 q -150 176 -161 165 q -124 202 -139 190 q -99 229 -110 214 q -74 264 -85 246 q -51 301 -62 282 q -49 317 -47 308 q -49 336 -50 326 q -47 355 -47 344 q -42 371 -47 365 q -9 394 -26 383 q 24 418 8 404 q 64 456 44 436 q 103 494 83 475 q 149 544 126 519 q 193 596 171 569 q 206 617 201 606 q 218 640 211 629 q 224 644 219 643 q 231 647 228 644 q 244 663 238 654 q 257 682 251 671 q 300 710 282 693 q 324 758 318 726 q 338 753 338 753 q 472 899 406 828 q 600 1038 538 969 q 565 1069 583 1053 q 532 1100 547 1086 q 592 1145 564 1124 q 649 1186 621 1167 q 661 1197 656 1192 q 674 1207 667 1203 q 769 1276 726 1236 q 853 1356 811 1315 q 876 1368 865 1369 q 897 1356 886 1367 q 916 1342 906 1346 q 939 1335 926 1339 q 999 1306 971 1324 q 1056 1269 1028 1289 q 1056 1256 1058 1268 q 1050 1238 1054 1244 q 991 1131 1021 1185 q 932 1025 961 1078 q 816 817 874 921 q 700 608 758 713 q 723 585 711 596 q 744 561 735 574 q 759 534 754 549 q 761 500 764 519 q 713 490 738 494 q 665 476 689 485 q 641 462 653 471 q 624 442 629 453 q 543 263 581 353 q 482 75 506 172 q 453 26 472 36 q 397 31 433 15 q 341 59 367 42 q 306 113 315 76 q 301 121 304 115 q 297 131 299 126 q 300 139 296 136 q 317 142 304 142 q 322 151 319 142 q 326 167 324 160 q 342 224 335 196 q 358 281 349 253 q 369 300 361 292 q 385 319 378 308 m 664 825 q 627 843 643 849 q 597 824 611 838 l 351 574 q 329 551 340 563 q 307 528 318 539 q 333 525 322 521 q 397 551 365 539 q 458 579 429 563 q 505 613 483 594 q 549 650 526 631 q 551 658 551 653 q 551 668 550 663 q 554 685 553 675 q 558 696 556 696 q 579 701 572 696 q 590 715 586 707 q 593 731 593 722 q 594 747 593 739 q 615 797 597 775 q 664 825 632 818 z "},"":{"ha":0,"x_min":-1144,"x_max":1361,"o":"m -1137 -286 q -1044 -269 -1090 -278 q -954 -251 -999 -260 q -797 -224 -875 -237 q -639 -197 -718 -210 q -516 -176 -576 -187 q -393 -164 -456 -164 q -333 -155 -361 -164 q -276 -149 -306 -146 q -258 -151 -264 -149 q -224 -160 -240 -156 q -187 -149 -207 -164 q -172 -147 -183 -143 q -149 -151 -160 -151 q -110 -155 -129 -154 q -68 -139 -90 -156 q -28 -129 -53 -128 q 21 -133 -3 -131 q -1 -144 14 -135 q 139 -126 71 -135 q 281 -110 207 -118 q 272 -124 274 -121 q 268 -131 269 -128 q 295 -140 282 -135 q 326 -151 308 -144 q 316 -131 321 -140 q 304 -110 311 -121 q 414 -115 360 -112 q 521 -118 468 -117 q 569 -113 544 -118 q 617 -108 593 -108 q 630 -110 622 -108 q 644 -115 638 -112 q 657 -119 651 -117 q 663 -119 663 -121 q 681 -106 671 -104 q 700 -108 690 -108 q 815 -108 758 -108 q 931 -106 872 -107 q 949 -102 940 -106 q 972 -94 958 -99 q 1017 -144 993 -118 q 1063 -200 1042 -171 q 1076 -231 1072 -214 q 1083 -262 1081 -247 q 1083 -287 1086 -274 q 1072 -307 1079 -300 q 1051 -310 1065 -311 q 1026 -307 1038 -310 q 968 -287 997 -299 q 908 -274 939 -275 q 730 -269 819 -269 q 550 -268 640 -269 q 446 -267 497 -268 q 342 -267 394 -267 q 308 -270 325 -267 q 275 -275 292 -274 q 190 -280 232 -278 q 104 -285 147 -282 q -17 -290 43 -287 q -139 -297 -76 -293 q -264 -310 -201 -303 q -389 -326 -326 -318 q -609 -360 -500 -343 q -826 -399 -718 -378 q -917 -422 -874 -407 q -1006 -450 -961 -436 q -1089 -428 -1058 -468 q -1128 -361 -1112 -396 q -1137 -286 -1144 -326 m 1142 -162 q 1203 -161 1174 -161 q 1261 -160 1233 -161 q 1309 -175 1292 -158 q 1338 -215 1326 -192 q 1346 -231 1340 -224 q 1356 -247 1351 -239 q 1360 -264 1360 -256 q 1354 -282 1361 -272 q 1335 -301 1346 -292 q 1313 -308 1324 -310 q 1208 -286 1260 -306 q 1172 -251 1182 -275 q 1157 -200 1161 -228 q 1151 -183 1156 -192 q 1142 -162 1147 -175 z "},"":{"ha":0,"x_min":-1074,"x_max":1508,"o":"m 1015 -275 q 1074 -301 1047 -286 q 1118 -347 1101 -315 q 1133 -378 1126 -362 q 1132 -412 1140 -393 q 1100 -443 1121 -440 q 1056 -444 1079 -446 q 858 -434 956 -439 q 661 -424 761 -429 q 626 -428 643 -424 q 581 -427 599 -437 q 547 -397 563 -417 q 516 -333 525 -367 q 518 -262 507 -300 q 520 -251 521 -257 q 519 -236 519 -244 q 449 -229 483 -233 q 379 -225 415 -225 q 226 -224 303 -224 q 72 -226 150 -224 q -699 -361 -324 -243 q -775 -388 -737 -372 q -849 -421 -812 -404 q -1029 -375 -957 -471 q -1045 -356 -1036 -365 q -1061 -339 -1054 -347 q -1071 -321 -1068 -331 q -1068 -300 -1074 -311 q -943 -261 -1003 -281 q -822 -225 -883 -242 q -653 -183 -737 -203 q -482 -142 -568 -162 q -444 -131 -462 -137 q -407 -122 -426 -125 q -340 -113 -374 -117 q -274 -106 -307 -110 q -190 -93 -232 -100 q -107 -83 -149 -86 q -54 -83 -81 -81 q 0 -82 -28 -85 q 83 -76 42 -81 q 167 -71 125 -71 q 335 -77 251 -74 q 504 -85 419 -81 q 601 -90 553 -87 q 697 -101 650 -92 q 821 -126 760 -115 q 940 -165 882 -136 q 990 -212 974 -183 q 1015 -275 1007 -240 m 1507 -424 q 1487 -472 1506 -458 q 1436 -474 1468 -485 q 1352 -446 1394 -458 q 1274 -401 1310 -433 q 1246 -370 1257 -386 q 1232 -331 1235 -354 q 1223 -295 1229 -312 q 1214 -258 1217 -278 q 1216 -247 1213 -253 q 1222 -236 1219 -240 q 1231 -235 1225 -233 q 1242 -239 1238 -236 q 1328 -276 1286 -257 q 1415 -311 1371 -294 q 1483 -358 1458 -329 q 1507 -424 1508 -387 z "},"":{"ha":0,"x_min":-897,"x_max":922,"o":"m 418 -247 q 347 -235 386 -242 q 267 -224 307 -228 q 153 -213 210 -218 q 40 -210 97 -208 q -128 -216 -44 -212 q -297 -235 -212 -219 q -512 -283 -406 -254 q -722 -349 -618 -312 q -768 -356 -743 -356 q -817 -350 -793 -357 q -843 -331 -832 -346 q -867 -301 -854 -315 q -886 -271 -879 -289 q -892 -244 -890 -257 q -897 -217 -894 -231 q -875 -212 -886 -215 q -856 -211 -864 -208 q -812 -215 -833 -217 q -770 -207 -790 -212 q -730 -194 -750 -201 q -690 -179 -710 -186 q -506 -128 -599 -151 q -317 -99 -414 -106 q -221 -86 -268 -94 q -125 -75 -174 -78 q -52 -76 -89 -72 q 22 -83 -15 -81 q 34 -87 28 -85 q 46 -86 40 -89 q 124 -76 85 -71 q 201 -81 163 -81 q 289 -85 246 -81 q 376 -93 332 -90 q 389 -96 383 -94 q 401 -97 394 -97 q 437 -102 419 -100 q 474 -107 454 -104 q 503 -112 489 -110 q 532 -117 517 -115 q 647 -130 590 -124 q 761 -143 703 -136 l 765 -143 q 822 -169 793 -157 q 875 -200 851 -181 q 910 -245 899 -218 q 915 -304 922 -272 q 908 -318 914 -311 q 894 -328 901 -325 q 825 -342 864 -339 q 698 -355 761 -349 q 569 -368 635 -361 q 562 -374 565 -368 q 554 -383 558 -381 q 528 -403 542 -392 q 503 -414 514 -415 q 471 -400 488 -411 q 449 -375 454 -389 q 431 -315 438 -347 q 418 -247 425 -283 z "},"":{"ha":0,"x_min":-844,"x_max":715,"o":"m 590 -71 q 607 -83 597 -76 q 628 -93 617 -90 q 683 -135 661 -106 q 711 -199 706 -164 q 701 -242 715 -228 q 667 -268 686 -256 q 597 -335 675 -347 q 537 -325 567 -331 q 478 -308 507 -319 q 450 -292 464 -304 q 432 -265 436 -279 q 401 -222 421 -233 q 350 -211 382 -211 q 215 -203 282 -208 q 82 -192 149 -199 q -344 -219 -132 -174 q -524 -266 -436 -240 q -703 -315 -612 -292 q -806 -267 -771 -333 q -812 -252 -808 -260 q -821 -242 -815 -244 q -844 -213 -844 -228 q -833 -186 -843 -199 q -797 -178 -814 -182 q -765 -172 -781 -175 q -771 -181 -768 -176 q -779 -194 -774 -186 q -678 -160 -726 -178 q -581 -131 -629 -143 q -469 -107 -525 -117 q -357 -86 -414 -97 q -301 -72 -329 -79 q -246 -57 -274 -64 q -195 -50 -221 -53 q -143 -46 -169 -47 q -33 -44 -87 -44 q 75 -46 21 -43 q 238 -58 157 -50 q 400 -71 318 -65 q 494 -72 447 -74 q 590 -71 542 -71 z "},"™":{"ha":1142,"x_min":47,"x_max":1346,"o":"m 331 518 q 368 551 344 526 q 419 609 392 576 q 474 678 446 642 q 523 748 501 715 q 558 805 544 781 q 571 838 572 829 q 604 861 589 849 q 633 876 619 874 q 674 876 654 879 q 713 867 694 874 q 725 813 743 856 q 721 784 718 799 q 726 754 724 769 q 732 752 729 753 q 738 750 735 751 q 772 781 756 765 q 808 810 789 796 q 932 901 871 856 q 1056 992 993 946 q 1090 1019 1074 1006 q 1122 1049 1107 1033 q 1150 1067 1131 1057 q 1192 1085 1169 1078 q 1233 1097 1214 1093 q 1264 1097 1253 1100 q 1290 1093 1276 1094 q 1315 1088 1303 1092 q 1346 1053 1346 1081 q 1322 999 1346 1026 q 1237 899 1279 950 q 1158 796 1194 849 q 1028 602 1090 700 q 901 407 965 504 q 855 353 878 371 q 804 340 832 335 q 769 358 785 344 q 739 382 754 371 q 729 390 732 385 q 721 401 726 396 q 726 410 724 406 q 732 417 729 415 q 773 438 757 424 q 800 469 789 451 q 820 506 811 488 q 840 542 829 525 q 933 678 888 610 q 1022 815 978 746 q 1035 849 1026 824 q 1001 826 1015 835 q 975 808 986 818 q 888 737 931 772 q 803 665 844 701 q 688 649 740 617 q 666 663 676 656 q 647 679 656 669 q 617 691 629 700 q 590 661 604 682 q 532 582 561 621 q 475 503 503 543 q 451 478 464 486 q 426 466 439 469 q 401 463 414 463 q 378 465 389 464 q 353 480 363 467 q 333 504 344 493 q 331 518 331 506 m 89 1050 q 178 1053 133 1050 q 264 1049 222 1056 q 428 1044 344 1038 q 594 1057 511 1050 q 621 1060 608 1058 q 646 1061 633 1061 q 694 1051 676 1063 q 711 1019 713 1039 q 685 979 708 1000 q 632 951 661 958 q 608 946 619 949 q 585 943 596 943 q 531 928 551 944 q 492 882 511 911 q 372 713 433 796 q 251 544 310 629 q 190 476 224 504 q 115 424 156 447 q 104 422 111 421 q 90 424 97 424 q 85 409 88 417 q 79 393 82 401 q 56 403 65 397 q 60 428 47 408 q 86 472 74 450 q 113 517 99 494 q 176 613 144 565 q 238 708 208 660 q 251 734 247 721 q 260 761 254 747 q 267 761 263 761 q 275 764 272 761 q 316 826 296 794 q 356 889 336 857 q 360 916 367 906 q 333 926 354 926 q 283 930 308 928 q 235 939 258 932 q 189 957 210 946 q 144 979 168 968 q 118 997 129 988 q 78 1029 97 1011 q 83 1040 81 1035 q 89 1050 86 1044 z "},"±":{"ha":678,"x_min":-169,"x_max":581,"o":"m -19 504 q 67 515 25 510 q 153 522 110 519 q 197 531 179 522 q 225 567 214 539 q 256 638 240 603 q 286 710 271 674 l 289 715 q 336 734 313 722 q 376 742 360 746 q 418 715 413 733 q 410 665 424 697 q 381 601 394 633 q 354 535 368 568 q 428 531 390 532 q 501 522 465 529 q 539 508 521 518 q 572 488 557 499 q 580 473 579 482 q 576 453 581 464 q 564 434 572 443 q 543 421 556 425 q 504 411 524 414 q 465 407 485 408 q 392 408 429 407 q 318 410 356 408 q 294 404 304 410 q 278 382 285 399 q 248 313 264 347 q 219 244 232 279 q 190 206 208 217 q 135 196 172 194 q 108 208 115 197 q 101 242 101 218 q 110 310 103 278 q 136 378 117 343 q 133 390 139 381 q 121 399 126 399 q 79 403 97 397 q 47 419 61 410 q 19 441 32 429 q -7 464 7 453 q -15 481 -14 469 q -19 504 -15 492 m -169 94 q -84 114 -125 103 q 3 122 -43 125 q 151 122 78 118 q 300 129 225 126 q 362 111 336 129 q 392 65 388 93 q 390 31 394 46 q 360 14 385 17 q 269 8 315 11 q 178 3 224 4 q 76 3 126 3 q -25 11 25 4 q -87 28 -57 15 q -147 57 -118 42 q -158 72 -154 60 q -169 94 -162 83 z "},":":{"ha":428,"x_min":-29,"x_max":382,"o":"m 244 710 q 292 692 267 700 q 338 667 318 685 q 370 624 358 649 q 382 574 382 600 q 367 526 382 549 q 318 488 351 503 q 247 468 279 469 q 182 496 214 467 q 159 527 169 508 q 145 567 149 546 q 148 610 142 589 q 174 646 154 631 q 208 676 192 660 q 244 710 225 692 m 74 376 q 122 359 96 367 q 167 333 147 351 q 199 291 188 315 q 211 241 211 267 q 196 192 211 215 q 147 154 181 169 q 76 135 108 136 q 11 163 43 133 q -12 194 -1 175 q -26 234 -22 213 q -23 276 -29 256 q 3 313 -17 297 q 38 342 21 326 q 74 376 54 358 z "},"‚":{"ha":383,"x_min":-122,"x_max":169,"o":"m 22 228 q 46 224 36 225 q 64 221 56 224 q 152 152 135 201 q 121 49 169 103 q 58 -12 92 17 q -24 -49 24 -40 q -72 -52 -47 -53 q -119 -53 -96 -51 q -122 -40 -119 -49 q -58 58 -90 10 q 4 158 -26 107 q 16 192 14 174 q 22 228 18 211 z "},"„":{"ha":619,"x_min":-122,"x_max":429,"o":"m 22 228 q 46 224 36 225 q 64 221 56 224 q 152 152 135 201 q 121 49 169 103 q 58 -12 92 17 q -24 -49 24 -40 q -72 -52 -47 -53 q -119 -53 -96 -51 q -122 -40 -119 -49 q -58 58 -90 10 q 4 158 -26 107 q 16 192 14 174 q 22 228 18 211 m 282 228 q 306 224 296 225 q 324 221 315 224 q 412 152 394 201 q 381 49 429 103 q 317 -12 351 17 q 236 -49 283 -40 q 188 -52 213 -53 q 140 -53 164 -51 q 138 -40 140 -49 q 201 58 169 10 q 264 158 233 107 q 276 192 274 174 q 282 228 278 211 z "},"…":{"ha":1113,"x_min":-56,"x_max":926,"o":"m 47 297 q 95 280 69 288 q 140 254 121 272 q 173 212 161 236 q 185 162 185 188 q 169 113 185 136 q 121 75 154 90 q 49 56 82 57 q -15 83 17 54 q -38 115 -28 96 q -52 155 -49 133 q -49 197 -56 176 q -24 233 -43 218 q 11 263 -6 247 q 47 297 28 279 m 418 297 q 466 280 440 288 q 511 254 492 272 q 544 212 532 236 q 556 162 556 188 q 540 113 556 136 q 492 75 525 90 q 420 56 453 57 q 356 83 388 54 q 333 115 343 96 q 319 155 322 133 q 322 197 315 176 q 347 233 328 218 q 382 263 365 247 q 418 297 399 279 m 789 297 q 837 280 811 288 q 882 254 863 272 q 915 212 903 236 q 926 162 926 188 q 911 113 926 136 q 863 75 896 90 q 791 56 824 57 q 726 83 758 54 q 703 115 714 96 q 690 155 693 133 q 692 197 686 176 q 718 233 699 218 q 753 263 736 247 q 789 297 769 279 z "},"’":{"ha":376,"x_min":133,"x_max":483,"o":"m 171 632 q 161 628 165 629 q 151 625 157 626 q 140 626 150 624 q 176 671 158 650 q 208 715 193 692 q 267 817 239 767 q 324 919 296 868 q 324 935 326 926 q 319 953 322 944 q 319 981 317 969 q 347 986 322 993 q 394 974 369 979 q 438 956 418 968 q 478 899 474 931 q 458 819 483 868 q 403 724 432 771 q 342 631 374 676 q 302 597 326 608 q 250 586 278 586 q 228 583 239 586 q 208 579 218 579 q 174 582 192 579 q 133 588 157 585 q 156 612 147 603 q 171 628 164 621 q 171 632 171 632 z "},"‘":{"ha":376,"x_min":142,"x_max":492,"o":"m 454 943 q 464 947 460 946 q 474 950 468 949 q 485 949 474 950 q 449 904 467 925 q 417 860 432 883 q 358 758 386 808 q 301 656 329 707 q 301 640 299 649 q 306 622 303 631 q 306 594 308 606 q 278 589 303 582 q 231 601 256 596 q 188 619 207 607 q 147 676 151 644 q 167 756 142 707 q 222 851 193 804 q 283 944 251 899 q 323 978 299 967 q 375 989 347 989 q 397 992 386 989 q 417 996 407 996 q 451 993 433 996 q 492 988 468 990 q 469 963 478 972 q 454 947 461 954 q 454 943 454 943 z "},"”":{"ha":656,"x_min":133,"x_max":726,"o":"m 171 632 q 161 628 165 629 q 151 625 157 626 q 140 626 150 624 q 176 671 158 650 q 208 715 193 692 q 267 817 239 767 q 324 919 296 868 q 324 935 326 926 q 319 953 322 944 q 319 981 317 969 q 347 986 322 993 q 394 974 369 979 q 438 956 418 968 q 478 899 474 931 q 458 819 483 868 q 403 724 432 771 q 342 631 374 676 q 302 597 326 608 q 250 586 278 586 q 228 583 239 586 q 208 579 218 579 q 174 582 192 579 q 133 588 157 585 q 156 612 147 603 q 171 628 164 621 q 171 632 171 632 m 414 632 q 404 628 408 629 q 394 625 400 626 q 383 626 393 624 q 419 671 401 650 q 451 715 436 692 q 510 817 482 767 q 567 919 539 868 q 567 935 569 926 q 563 953 565 944 q 563 981 560 969 q 590 986 565 993 q 637 974 613 979 q 681 956 661 968 q 722 899 717 931 q 701 819 726 868 q 646 724 675 771 q 585 631 617 676 q 545 597 569 608 q 493 586 521 586 q 472 583 482 586 q 451 579 461 579 q 417 582 435 579 q 376 588 400 585 q 399 612 390 603 q 414 628 407 621 q 414 632 414 632 z "},"“":{"ha":656,"x_min":142,"x_max":735,"o":"m 697 943 q 707 947 703 946 q 717 950 711 949 q 728 949 717 950 q 692 904 710 925 q 660 860 675 883 q 601 758 629 808 q 544 656 572 707 q 544 640 542 649 q 549 622 546 631 q 549 594 551 606 q 521 589 546 582 q 474 601 499 596 q 431 619 450 607 q 390 676 394 644 q 410 756 385 707 q 465 851 436 804 q 526 944 494 899 q 566 978 542 967 q 618 989 590 989 q 640 992 629 989 q 660 996 650 996 q 694 993 676 996 q 735 988 711 990 q 713 963 721 972 q 697 947 704 954 q 697 943 697 943 m 454 943 q 464 947 460 946 q 474 950 468 949 q 485 949 474 950 q 449 904 467 925 q 417 860 432 883 q 358 758 386 808 q 301 656 329 707 q 301 640 299 649 q 306 622 303 631 q 306 594 308 606 q 278 589 303 582 q 231 601 256 596 q 188 619 207 607 q 147 676 151 644 q 167 756 142 707 q 222 851 193 804 q 283 944 251 899 q 323 978 299 967 q 375 989 347 989 q 397 992 386 989 q 417 996 407 996 q 451 993 433 996 q 492 988 468 990 q 469 963 478 972 q 454 947 461 954 q 454 943 454 943 z "},"£":{"ha":993,"x_min":-121,"x_max":1072,"o":"m 515 922 q 524 950 521 935 q 536 975 526 965 q 587 1021 560 999 q 642 1067 614 1043 q 693 1099 667 1090 q 747 1110 719 1108 q 801 1109 774 1111 q 856 1110 828 1107 q 917 1107 890 1114 q 967 1086 944 1100 q 1010 1053 990 1072 q 1047 1011 1029 1033 q 1067 968 1061 994 q 1070 913 1072 942 q 1059 857 1068 885 q 1035 808 1050 829 q 988 752 1011 781 q 940 696 964 724 q 866 647 907 660 q 786 649 825 635 q 756 660 771 653 q 730 678 742 667 q 711 705 718 689 q 707 743 704 721 q 821 849 781 786 q 850 968 861 911 q 760 937 797 967 q 692 869 722 907 q 588 730 635 803 q 510 574 542 657 q 574 575 542 574 q 639 574 607 576 q 703 568 672 571 q 763 554 735 565 q 797 532 782 547 q 819 499 811 517 q 819 444 836 467 q 764 421 803 421 q 608 422 685 421 q 454 426 531 424 q 404 404 419 429 q 377 360 390 381 q 353 324 364 339 q 450 282 401 303 q 550 244 499 261 q 586 244 565 239 q 626 257 607 250 q 735 281 685 285 q 822 235 785 276 q 840 192 836 219 q 839 143 844 165 q 812 111 835 128 q 769 90 789 94 q 688 73 728 79 q 608 69 647 67 q 533 83 569 71 q 463 121 496 96 q 350 163 410 160 q 224 146 290 167 q 158 125 192 136 q 92 101 125 114 q -65 154 -15 60 q -94 208 -79 182 q -121 258 -108 235 q 3 285 -51 272 q 48 295 26 289 q 92 304 69 301 q 154 343 131 308 q 186 384 169 364 q 219 425 203 404 q 160 454 190 440 q 103 488 129 468 q 77 517 88 499 q 53 553 67 535 q 77 578 60 575 q 113 582 94 582 q 197 585 154 583 q 281 585 239 588 q 332 601 317 583 q 354 646 347 618 q 460 811 407 729 q 567 976 514 893 q 540 949 553 963 q 515 922 528 936 m 461 865 q 413 781 438 822 q 365 700 389 740 q 355 678 358 689 q 346 656 351 667 q 356 694 351 675 q 371 731 360 713 q 415 799 392 765 q 461 865 438 832 z "},"@":{"ha":1293,"x_min":-29,"x_max":1331,"o":"m 600 971 q 570 961 585 965 q 543 950 556 957 q 394 842 464 901 q 274 703 325 782 q 200 572 232 639 q 151 429 168 504 q 142 329 140 379 q 163 231 144 279 q 233 156 183 178 q 351 140 283 133 q 495 167 425 150 q 633 213 565 185 q 733 260 683 235 q 836 296 783 285 q 941 315 888 307 q 1047 299 994 322 q 1090 266 1075 286 q 1099 224 1106 246 q 1069 181 1092 193 q 1014 164 1046 168 q 929 145 971 157 q 844 122 888 133 q 679 73 761 99 q 514 28 597 47 q 388 12 451 13 q 261 24 325 11 q 144 78 193 39 q 49 167 94 118 q -5 245 13 204 q -26 328 -22 286 q -22 413 -29 369 q -4 499 -15 456 q 53 650 15 579 q 138 790 92 721 q 205 874 169 835 q 283 944 240 913 q 371 1010 328 976 q 467 1063 414 1043 q 487 1076 478 1067 q 507 1089 496 1085 q 547 1103 526 1097 q 586 1117 567 1110 q 605 1124 596 1119 q 621 1138 614 1128 l 589 1138 q 588 1143 588 1139 q 640 1159 614 1150 q 693 1169 665 1168 q 837 1178 765 1175 q 979 1167 908 1182 q 1177 1080 1093 1143 q 1307 907 1261 1017 q 1325 797 1331 851 q 1290 693 1319 743 q 1185 572 1247 622 q 1047 489 1124 521 q 907 472 974 458 q 781 536 840 486 q 757 547 767 547 q 733 538 747 546 q 660 494 697 515 q 582 457 622 472 q 533 448 558 447 q 481 458 507 449 q 433 482 456 467 q 394 518 410 497 q 381 533 389 526 q 367 549 374 540 q 356 566 360 557 q 353 588 351 575 q 351 594 353 590 q 350 601 349 599 q 395 687 374 644 q 442 771 417 729 q 513 874 475 824 q 603 961 550 925 q 600 971 603 965 m 558 615 q 563 612 561 613 q 567 608 564 611 q 588 622 578 615 q 606 638 597 629 q 645 683 626 657 q 688 717 664 710 q 782 735 733 732 q 875 707 831 739 q 897 674 894 693 q 885 636 899 656 q 877 620 879 629 q 878 607 875 611 q 890 600 881 601 q 907 599 900 599 q 920 601 914 599 q 933 607 926 604 q 995 637 967 618 q 1049 679 1024 656 q 1110 758 1086 715 q 1133 854 1133 800 q 1115 932 1132 896 q 1074 1000 1099 968 q 1049 1028 1063 1015 q 1018 1047 1035 1042 q 928 1064 972 1063 q 843 1058 885 1065 q 763 1038 801 1051 q 686 1013 724 1025 q 773 1009 726 1010 q 868 1003 819 1008 q 947 966 914 999 q 983 889 979 933 q 974 835 986 858 q 940 804 963 813 q 897 803 921 797 q 853 823 874 810 q 817 856 832 836 q 799 899 801 876 q 660 771 717 843 q 558 615 603 699 z "},"^":{"ha":656,"x_min":51,"x_max":775,"o":"m 438 763 q 348 685 390 722 q 261 613 306 649 q 224 581 243 597 q 185 557 206 564 q 105 562 139 542 q 51 628 71 582 q 149 680 108 643 q 231 757 190 717 q 332 849 279 806 q 433 942 385 893 q 501 1004 465 974 q 554 1081 538 1035 q 565 1087 557 1085 q 579 1092 572 1089 q 603 1102 590 1097 q 628 1108 615 1107 q 665 1107 646 1108 q 700 1099 685 1106 q 732 986 775 1063 q 701 938 718 961 q 669 890 685 914 q 622 802 642 847 q 596 706 603 757 q 598 677 593 692 q 607 647 603 663 q 619 612 613 629 q 633 575 626 594 q 557 576 594 564 q 492 615 519 588 q 448 681 464 642 q 438 763 432 719 z "},"":{"ha":4011,"x_min":-7,"x_max":3947,"o":"m 49 799 q 43 815 46 804 q 131 906 88 861 q 218 997 174 951 q 306 1083 263 1042 q 390 1169 350 1125 q 416 1210 406 1186 q 439 1257 426 1233 q 509 1216 471 1238 q 583 1169 547 1194 q 603 1096 618 1147 q 578 1028 594 1060 q 544 967 563 997 q 503 909 525 938 q 463 851 482 881 q 366 700 414 775 q 269 546 318 625 q 268 536 268 544 q 332 583 300 560 q 396 631 364 607 q 401 637 399 632 q 403 644 403 642 q 415 683 406 672 q 450 704 425 693 q 467 717 460 707 q 483 735 475 728 q 569 804 526 771 q 651 874 611 838 q 763 974 708 922 q 875 1078 817 1025 q 860 1081 867 1081 q 922 1104 882 1119 q 951 1105 940 1097 q 964 1142 963 1113 q 1035 1098 1000 1118 q 1097 1053 1069 1078 q 1115 1008 1119 1036 q 1090 956 1111 979 q 974 824 1032 889 q 860 692 917 760 q 660 433 751 567 q 483 157 569 299 q 422 43 451 101 q 358 -72 392 -15 q 319 -130 340 -103 q 275 -190 297 -157 q 270 -174 272 -182 q 265 -156 268 -167 q 235 -195 249 -178 q 211 -232 222 -212 q 170 -264 196 -256 q 119 -258 144 -272 q 81 -235 100 -247 q 43 -210 63 -224 q 33 -193 35 -204 q 33 -170 31 -182 q 44 -147 36 -158 q 63 -131 51 -136 q 78 -121 69 -126 q 90 -108 86 -115 q 143 -29 118 -69 q 193 54 168 11 q 208 82 201 67 q 222 110 214 97 q 256 165 238 139 q 304 214 275 192 q 326 244 319 225 q 343 283 333 264 q 431 419 388 351 q 519 556 475 488 q 524 564 522 558 q 529 579 525 569 q 477 558 494 578 q 442 522 460 539 q 342 413 392 469 q 240 306 293 357 q 153 265 203 269 q 57 313 104 260 q 29 351 43 332 q 4 389 15 369 q -7 424 -7 407 q 11 461 -7 440 q 42 508 31 481 q 67 561 53 536 q 133 677 99 619 q 199 789 167 735 q 123 794 161 792 q 49 799 85 796 m 1140 374 q 1103 360 1121 367 q 1065 346 1085 353 q 966 304 1017 324 q 867 261 915 285 q 841 239 851 254 q 819 208 831 224 q 754 110 783 158 q 718 80 739 88 q 676 78 697 72 q 638 99 657 85 q 600 128 619 114 q 591 155 585 142 q 608 179 597 168 q 633 205 619 192 q 660 232 647 218 q 684 267 672 249 q 707 304 696 286 q 710 319 711 310 q 711 339 708 329 q 712 357 711 347 q 717 374 713 367 q 749 397 732 386 q 782 421 767 407 q 823 458 804 438 q 861 497 842 478 q 907 548 885 524 q 953 600 929 572 q 965 621 961 610 q 976 644 969 632 q 982 647 978 646 q 989 651 986 649 q 1017 685 1006 665 q 1058 713 1040 696 q 1082 763 1076 731 q 1096 756 1093 756 q 1229 901 1164 831 q 1357 1040 1294 972 q 1324 1073 1342 1056 q 1290 1103 1307 1090 q 1351 1149 1324 1128 q 1407 1189 1379 1169 q 1420 1201 1414 1194 q 1433 1211 1426 1207 q 1526 1278 1485 1239 q 1611 1358 1568 1318 q 1634 1371 1624 1372 q 1656 1358 1644 1369 q 1674 1345 1664 1349 q 1697 1339 1685 1342 q 1757 1310 1728 1328 q 1815 1274 1786 1292 q 1816 1260 1818 1272 q 1808 1240 1814 1247 q 1750 1135 1781 1188 q 1692 1028 1719 1082 q 1574 820 1632 924 q 1458 613 1517 717 q 1481 588 1469 600 q 1503 564 1493 576 q 1517 537 1513 551 q 1521 503 1522 522 q 1472 492 1496 497 q 1424 479 1447 488 q 1400 465 1411 474 q 1382 443 1389 456 q 1301 265 1339 356 q 1240 78 1264 175 q 1211 30 1231 40 q 1156 33 1192 19 q 1099 62 1124 44 q 1064 115 1074 79 q 1059 124 1063 118 q 1055 134 1056 129 q 1058 142 1054 139 q 1075 146 1061 146 q 1080 155 1078 146 q 1085 169 1082 164 q 1099 227 1093 199 q 1115 283 1106 256 q 1128 303 1121 294 q 1143 324 1136 311 q 1142 344 1143 332 q 1140 374 1142 357 m 1356 826 q 1233 702 1293 764 q 1110 578 1172 640 q 1088 554 1099 565 q 1065 532 1078 543 q 1081 526 1075 526 q 1092 528 1086 525 q 1156 553 1124 542 q 1217 583 1188 565 q 1263 616 1242 597 q 1308 654 1285 635 q 1310 661 1311 656 q 1311 671 1310 667 q 1313 688 1313 678 q 1317 699 1314 699 q 1338 704 1331 699 q 1348 717 1344 710 q 1351 734 1351 725 q 1353 750 1351 743 q 1373 799 1356 778 q 1422 828 1390 819 q 1386 846 1401 851 q 1356 826 1371 840 m 601 -249 q 760 -221 682 -235 q 918 -194 839 -207 q 1041 -173 981 -185 q 1164 -161 1101 -161 q 1224 -152 1196 -161 q 1281 -146 1251 -143 q 1299 -149 1293 -146 q 1334 -157 1318 -153 q 1368 -146 1350 -161 q 1386 -144 1375 -140 q 1408 -149 1397 -149 q 1447 -151 1428 -151 q 1488 -136 1467 -151 q 1529 -126 1504 -125 q 1578 -131 1554 -128 q 1569 -135 1574 -132 q 1554 -142 1564 -137 q 1695 -124 1628 -132 q 1838 -106 1763 -115 q 1828 -122 1831 -118 q 1826 -128 1826 -125 q 1851 -137 1839 -132 q 1883 -149 1864 -142 q 1860 -106 1876 -132 q 1972 -110 1918 -108 q 2078 -114 2025 -112 q 2125 -109 2101 -114 q 2172 -104 2149 -104 q 2201 -111 2185 -103 q 2218 -117 2217 -119 q 2237 -103 2226 -101 q 2257 -104 2247 -104 q 2372 -103 2315 -104 q 2488 -101 2429 -103 q 2508 -99 2499 -101 q 2529 -90 2517 -96 q 2575 -142 2551 -117 q 2621 -197 2599 -167 q 2634 -227 2631 -211 q 2640 -260 2638 -243 q 2640 -284 2643 -271 q 2629 -304 2636 -297 q 2608 -308 2622 -308 q 2583 -304 2594 -307 q 2525 -284 2554 -296 q 2465 -271 2496 -272 q 2287 -266 2376 -267 q 2107 -265 2197 -265 q 2003 -265 2054 -265 q 1899 -264 1951 -264 q 1866 -267 1883 -264 q 1832 -272 1849 -271 q 1747 -277 1789 -275 q 1660 -282 1704 -279 q 1540 -287 1600 -285 q 1418 -294 1481 -289 q 1292 -307 1356 -299 q 1167 -324 1229 -315 q 949 -357 1057 -339 q 731 -394 840 -375 q 639 -418 682 -403 q 551 -447 596 -433 q 468 -424 500 -464 q 428 -358 444 -393 q 419 -283 413 -324 q 511 -266 465 -275 q 601 -249 557 -257 m 2818 -157 q 2867 -172 2849 -156 q 2896 -211 2885 -187 q 2903 -228 2897 -219 q 2913 -244 2908 -236 q 2917 -261 2917 -253 q 2911 -278 2918 -269 q 2892 -298 2903 -287 q 2871 -306 2882 -308 q 2765 -283 2814 -303 q 2728 -249 2738 -272 q 2714 -197 2718 -225 q 2708 -181 2713 -189 q 2699 -158 2704 -172 q 2760 -157 2731 -157 q 2818 -157 2790 -157 m 1617 619 q 1688 735 1650 679 q 1765 849 1726 790 q 1785 883 1776 864 q 1803 919 1793 901 q 1825 957 1810 935 q 1819 978 1815 965 q 1840 1003 1824 990 q 1847 1023 1847 1010 q 1847 1047 1847 1036 q 1919 1133 1879 1093 q 1997 1215 1958 1174 q 2069 1303 2036 1257 q 2121 1406 2101 1349 q 2146 1401 2133 1404 q 2169 1400 2158 1397 q 2232 1401 2204 1413 q 2281 1368 2260 1389 q 2291 1337 2290 1358 q 2288 1303 2292 1315 q 2253 1227 2272 1264 q 2215 1154 2235 1190 q 2165 1073 2192 1113 q 2111 993 2139 1033 q 2090 964 2101 978 q 2076 933 2079 950 q 2072 892 2069 914 q 2075 844 2075 871 q 2104 858 2097 856 q 2238 941 2172 900 q 2372 1024 2304 982 l 2388 1039 q 2403 1054 2394 1046 q 2415 1061 2413 1063 q 2483 1061 2456 1047 q 2536 1100 2511 1075 q 2549 1106 2540 1103 q 2561 1106 2558 1108 q 2614 1072 2588 1089 q 2658 1031 2640 1054 q 2666 995 2668 1019 q 2656 957 2664 971 q 2626 931 2647 940 q 2588 911 2606 921 q 2473 851 2531 879 q 2356 794 2415 822 q 2315 775 2336 783 q 2275 756 2294 767 q 2201 719 2239 738 q 2131 682 2164 701 q 2117 668 2124 679 q 2111 650 2110 657 q 2169 438 2140 543 q 2226 229 2199 333 q 2226 203 2229 218 q 2215 182 2224 189 q 2181 163 2204 169 q 2131 156 2157 156 q 2081 162 2106 156 q 2044 181 2057 168 q 2035 190 2039 185 q 2028 201 2031 196 q 2029 213 2026 207 q 2042 226 2032 219 q 2044 234 2044 228 q 2042 247 2043 240 q 2000 406 2021 326 q 1958 567 1979 485 q 1940 556 1949 561 q 1921 546 1932 550 q 1846 515 1883 531 q 1771 485 1808 500 q 1758 478 1764 482 q 1749 468 1751 475 q 1715 409 1731 439 q 1685 349 1700 379 q 1638 258 1661 303 q 1592 164 1615 213 q 1567 115 1579 140 q 1539 67 1554 90 q 1528 56 1536 60 q 1511 50 1519 53 q 1480 38 1493 46 q 1461 8 1467 29 q 1443 -15 1457 -11 q 1413 -12 1429 -19 q 1392 -11 1403 -10 q 1371 -12 1382 -12 q 1347 -19 1358 -15 q 1324 -24 1335 -24 q 1301 -17 1314 -22 q 1286 -4 1289 -11 q 1288 13 1283 3 q 1297 32 1292 24 q 1335 102 1317 68 q 1371 172 1353 136 q 1401 233 1386 203 q 1431 293 1415 263 q 1483 392 1458 343 q 1535 490 1508 442 q 1557 515 1543 504 q 1586 540 1571 526 q 1578 565 1576 554 q 1586 585 1579 576 q 1602 603 1593 594 q 1617 619 1611 611 m 2343 240 q 2383 319 2364 281 q 2421 393 2401 357 q 2446 442 2431 411 q 2477 505 2461 472 q 2508 568 2493 538 q 2535 617 2524 599 q 2545 631 2539 624 q 2558 644 2551 638 q 2569 656 2564 650 q 2572 664 2574 661 q 2570 684 2567 676 q 2580 699 2574 692 q 2592 713 2586 706 q 2600 731 2599 719 q 2622 789 2604 761 q 2653 844 2639 817 q 2719 972 2688 908 q 2783 1100 2751 1035 q 2787 1124 2790 1111 q 2786 1150 2783 1138 q 2793 1172 2789 1160 q 2804 1185 2797 1185 q 2842 1185 2819 1186 q 2888 1177 2865 1183 q 2931 1158 2911 1171 q 2958 1128 2950 1146 q 2965 1101 2964 1117 q 2964 1069 2967 1085 q 2935 986 2953 1026 q 2897 906 2918 946 q 2854 828 2876 867 q 2813 750 2832 789 q 2754 635 2786 699 q 2690 506 2722 572 q 2627 374 2658 439 q 2571 258 2596 310 q 2551 199 2557 231 q 2540 140 2546 168 q 2515 103 2536 121 q 2472 90 2493 85 q 2403 119 2438 104 q 2335 150 2369 133 q 2324 164 2329 153 q 2317 185 2318 175 q 2313 210 2314 197 q 2310 239 2313 224 q 2328 240 2321 239 q 2343 240 2336 240 m 3467 649 q 3530 753 3497 701 q 3593 858 3563 804 q 3623 920 3610 889 q 3651 983 3636 951 q 3670 1018 3658 1001 q 3679 1053 3682 1035 q 3684 1088 3676 1076 q 3703 1104 3692 1100 q 3730 1110 3715 1108 q 3758 1114 3744 1111 q 3856 1106 3811 1124 q 3932 1047 3900 1088 q 3945 1019 3943 1032 q 3945 993 3947 1006 q 3938 969 3943 981 q 3926 949 3932 958 q 3878 858 3904 903 q 3824 771 3853 813 q 3781 722 3806 743 q 3735 678 3757 701 q 3725 665 3725 675 q 3710 642 3719 650 q 3679 642 3701 633 q 3638 633 3651 649 q 3614 599 3625 617 q 3537 440 3575 518 q 3458 281 3499 361 q 3451 263 3454 272 q 3443 247 3449 254 q 3422 188 3425 217 q 3456 129 3419 158 q 3436 103 3449 111 q 3406 88 3424 94 q 3375 66 3388 83 q 3351 32 3363 49 q 3340 7 3343 21 q 3329 -18 3336 -7 q 3302 -47 3318 -37 q 3261 -50 3286 -57 q 3202 -41 3232 -46 q 3151 -8 3172 -36 q 3189 69 3171 31 q 3225 146 3207 107 q 3233 163 3233 154 q 3226 198 3231 181 q 3219 235 3222 215 q 3199 342 3208 289 q 3179 451 3189 394 q 3167 539 3171 496 q 3157 626 3163 582 q 3160 636 3157 631 q 3164 644 3163 642 q 3160 649 3163 647 q 3157 653 3158 650 q 3146 640 3151 646 q 3138 626 3140 635 q 3069 524 3103 575 q 3007 418 3035 474 q 2964 349 2989 379 q 2919 282 2939 319 q 2878 210 2901 244 q 2831 140 2854 175 q 2782 69 2806 104 q 2735 -3 2758 33 q 2712 -33 2724 -18 q 2689 -62 2700 -47 q 2649 -84 2676 -81 q 2601 -76 2621 -87 q 2565 -53 2579 -62 q 2540 -32 2551 -43 q 2519 -6 2529 -21 q 2492 36 2508 10 q 2547 56 2525 40 q 2584 93 2568 71 q 2613 140 2600 115 q 2644 185 2626 164 q 2726 301 2692 238 q 2799 424 2760 365 q 2906 592 2856 507 q 3008 763 2957 678 q 3044 824 3028 792 q 3083 882 3061 856 q 3106 953 3107 918 q 3085 1029 3104 989 q 3084 1045 3082 1035 q 3090 1056 3086 1056 q 3135 1067 3113 1063 q 3180 1070 3158 1071 q 3223 1061 3201 1069 q 3265 1035 3244 1053 q 3293 994 3282 1019 q 3310 946 3304 969 q 3323 813 3318 879 q 3335 676 3328 746 q 3347 567 3340 621 q 3357 456 3353 513 q 3362 456 3360 456 q 3367 457 3364 457 q 3415 554 3392 506 q 3467 649 3439 603 z "}}}
